<ttFont>
    <TTGlyph name="A" xMin="-45" yMin="0" xMax="897" yMax="700">
      <contour>
        <pt x="303" y="388" on="0"/>
        <pt x="221" y="282" on="0"/>
        <pt x="41" y="282" on="0"/>
        <pt x="-45" y="384" on="0"/>
        <pt x="-45" y="456" on="1"/>
        <pt x="-45" y="570" on="0"/>
        <pt x="183" y="700" on="0"/>
        <pt x="434" y="700" on="1"/>
        <pt x="708" y="700" on="1"/>
        <pt x="708" y="580" on="1"/>
        <pt x="649" y="580" on="1"/>
        <pt x="831" y="120" on="1"/>
        <pt x="897" y="120" on="1"/>
        <pt x="897" y="0" on="1"/>
        <pt x="640" y="0" on="1"/>
        <pt x="640" y="120" on="1"/>
        <pt x="699" y="120" on="1"/>
        <pt x="678" y="176" on="1"/>
        <pt x="416" y="176" on="1"/>
        <pt x="395" y="120" on="1"/>
        <pt x="455" y="120" on="1"/>
        <pt x="455" y="0" on="1"/>
        <pt x="198" y="0" on="1"/>
        <pt x="198" y="120" on="1"/>
        <pt x="263" y="120" on="1"/>
        <pt x="444" y="580" on="1"/>
        <pt x="434" y="580" on="1"/>
        <pt x="233" y="580" on="0"/>
        <pt x="80" y="524" on="0"/>
        <pt x="80" y="456" on="1"/>
        <pt x="80" y="402" on="0"/>
        <pt x="131" y="402" on="1"/>
        <pt x="178" y="402" on="0"/>
        <pt x="178" y="466" on="1"/>
        <pt x="303" y="466" on="1"/>
      </contour>
      <contour>
        <pt x="547" y="524" on="1"/>
        <pt x="457" y="286" on="1"/>
        <pt x="636" y="286" on="1"/>
      </contour>
    </TTGlyph>
    <TTGlyph name="AE" xMin="-45" yMin="0" xMax="1052" yMax="700">
      <contour>
        <pt x="303" y="389" on="0"/>
        <pt x="221" y="282" on="0"/>
        <pt x="41" y="282" on="0"/>
        <pt x="-45" y="384" on="0"/>
        <pt x="-45" y="456" on="1"/>
        <pt x="-45" y="570" on="0"/>
        <pt x="169" y="700" on="0"/>
        <pt x="404" y="700" on="1"/>
        <pt x="1043" y="700" on="1"/>
        <pt x="1043" y="495" on="1"/>
        <pt x="928" y="495" on="1"/>
        <pt x="928" y="580" on="1"/>
        <pt x="708" y="580" on="1"/>
        <pt x="708" y="406" on="1"/>
        <pt x="786" y="406" on="1"/>
        <pt x="786" y="466" on="1"/>
        <pt x="901" y="466" on="1"/>
        <pt x="901" y="226" on="1"/>
        <pt x="786" y="226" on="1"/>
        <pt x="786" y="286" on="1"/>
        <pt x="708" y="286" on="1"/>
        <pt x="708" y="120" on="1"/>
        <pt x="937" y="120" on="1"/>
        <pt x="937" y="205" on="1"/>
        <pt x="1052" y="205" on="1"/>
        <pt x="1052" y="0" on="1"/>
        <pt x="526" y="0" on="1"/>
        <pt x="526" y="120" on="1"/>
        <pt x="578" y="120" on="1"/>
        <pt x="578" y="176" on="1"/>
        <pt x="384" y="176" on="1"/>
        <pt x="357" y="120" on="1"/>
        <pt x="385" y="120" on="1"/>
        <pt x="385" y="0" on="1"/>
        <pt x="128" y="0" on="1"/>
        <pt x="128" y="120" on="1"/>
        <pt x="224" y="120" on="1"/>
        <pt x="449" y="580" on="1"/>
        <pt x="404" y="580" on="1"/>
        <pt x="220" y="580" on="0"/>
        <pt x="80" y="524" on="0"/>
        <pt x="80" y="456" on="1"/>
        <pt x="80" y="402" on="0"/>
        <pt x="131" y="402" on="1"/>
        <pt x="178" y="402" on="0"/>
        <pt x="178" y="466" on="1"/>
        <pt x="303" y="466" on="1"/>
      </contour>
      <contour>
        <pt x="578" y="286" on="1"/>
        <pt x="578" y="572" on="1"/>
        <pt x="438" y="286" on="1"/>
      </contour>
    </TTGlyph>
    <TTGlyph name="Aacute" xMin="-45" yMin="0" xMax="897" yMax="993">
      <contour>
        <pt x="721" y="918" on="1"/>
        <pt x="593" y="760" on="1"/>
        <pt x="509" y="810" on="1"/>
        <pt x="610" y="993" on="1"/>
      </contour>
      <contour>
        <pt x="41" y="282" on="0"/>
        <pt x="-45" y="384" on="0"/>
        <pt x="-45" y="456" on="1"/>
        <pt x="-45" y="570" on="0"/>
        <pt x="183" y="700" on="0"/>
        <pt x="434" y="700" on="1"/>
        <pt x="708" y="700" on="1"/>
        <pt x="708" y="580" on="1"/>
        <pt x="649" y="580" on="1"/>
        <pt x="831" y="120" on="1"/>
        <pt x="897" y="120" on="1"/>
        <pt x="897" y="0" on="1"/>
        <pt x="640" y="0" on="1"/>
        <pt x="640" y="120" on="1"/>
        <pt x="699" y="120" on="1"/>
        <pt x="678" y="176" on="1"/>
        <pt x="416" y="176" on="1"/>
        <pt x="395" y="120" on="1"/>
        <pt x="455" y="120" on="1"/>
        <pt x="455" y="0" on="1"/>
        <pt x="198" y="0" on="1"/>
        <pt x="198" y="120" on="1"/>
        <pt x="263" y="120" on="1"/>
        <pt x="444" y="580" on="1"/>
        <pt x="434" y="580" on="1"/>
        <pt x="233" y="580" on="0"/>
        <pt x="80" y="524" on="0"/>
        <pt x="80" y="456" on="1"/>
        <pt x="80" y="402" on="0"/>
        <pt x="131" y="402" on="1"/>
        <pt x="178" y="402" on="0"/>
        <pt x="178" y="466" on="1"/>
        <pt x="303" y="466" on="1"/>
        <pt x="303" y="388" on="0"/>
        <pt x="221" y="282" on="0"/>
      </contour>
      <contour>
        <pt x="457" y="286" on="1"/>
        <pt x="636" y="286" on="1"/>
        <pt x="547" y="524" on="1"/>
      </contour>
    </TTGlyph>
    <TTGlyph name="Abreve" xMin="-45" yMin="0" xMax="852" yMax="924">
      <contour>
        <pt x="303" y="388" on="0"/>
        <pt x="221" y="282" on="0"/>
        <pt x="41" y="282" on="0"/>
        <pt x="-45" y="384" on="0"/>
        <pt x="-45" y="456" on="1"/>
        <pt x="-45" y="570" on="0"/>
        <pt x="162" y="700" on="0"/>
        <pt x="389" y="700" on="1"/>
        <pt x="663" y="700" on="1"/>
        <pt x="663" y="580" on="1"/>
        <pt x="604" y="580" on="1"/>
        <pt x="786" y="120" on="1"/>
        <pt x="852" y="120" on="1"/>
        <pt x="852" y="0" on="1"/>
        <pt x="595" y="0" on="1"/>
        <pt x="595" y="120" on="1"/>
        <pt x="654" y="120" on="1"/>
        <pt x="633" y="176" on="1"/>
        <pt x="371" y="176" on="1"/>
        <pt x="350" y="120" on="1"/>
        <pt x="410" y="120" on="1"/>
        <pt x="410" y="0" on="1"/>
        <pt x="153" y="0" on="1"/>
        <pt x="153" y="120" on="1"/>
        <pt x="218" y="120" on="1"/>
        <pt x="399" y="580" on="1"/>
        <pt x="389" y="580" on="1"/>
        <pt x="163" y="580" on="0"/>
        <pt x="108" y="528" on="1"/>
        <pt x="80" y="501" on="0"/>
        <pt x="80" y="456" on="1"/>
        <pt x="80" y="402" on="0"/>
        <pt x="131" y="402" on="1"/>
        <pt x="178" y="402" on="0"/>
        <pt x="178" y="466" on="1"/>
        <pt x="303" y="466" on="1"/>
      </contour>
      <contour>
        <pt x="502" y="524" on="1"/>
        <pt x="412" y="286" on="1"/>
        <pt x="591" y="286" on="1"/>
      </contour>
      <contour>
        <pt x="437" y="858" on="0"/>
        <pt x="563" y="858" on="0"/>
        <pt x="629" y="924" on="1"/>
        <pt x="688" y="864" on="1"/>
        <pt x="601" y="750" on="0"/>
        <pt x="399" y="750" on="0"/>
        <pt x="312" y="864" on="1"/>
        <pt x="371" y="924" on="1"/>
      </contour>
    </TTGlyph>
    <TTGlyph name="Acircumflex" xMin="-45" yMin="0" xMax="897" yMax="947">
      <contour>
        <pt x="390" y="800" on="1"/>
        <pt x="520" y="947" on="1"/>
        <pt x="602" y="947" on="1"/>
        <pt x="732" y="800" on="1"/>
        <pt x="670" y="750" on="1"/>
        <pt x="561" y="840" on="1"/>
        <pt x="452" y="750" on="1"/>
      </contour>
      <contour>
        <pt x="41" y="282" on="0"/>
        <pt x="-45" y="384" on="0"/>
        <pt x="-45" y="456" on="1"/>
        <pt x="-45" y="570" on="0"/>
        <pt x="183" y="700" on="0"/>
        <pt x="434" y="700" on="1"/>
        <pt x="708" y="700" on="1"/>
        <pt x="708" y="580" on="1"/>
        <pt x="649" y="580" on="1"/>
        <pt x="831" y="120" on="1"/>
        <pt x="897" y="120" on="1"/>
        <pt x="897" y="0" on="1"/>
        <pt x="640" y="0" on="1"/>
        <pt x="640" y="120" on="1"/>
        <pt x="699" y="120" on="1"/>
        <pt x="678" y="176" on="1"/>
        <pt x="416" y="176" on="1"/>
        <pt x="395" y="120" on="1"/>
        <pt x="455" y="120" on="1"/>
        <pt x="455" y="0" on="1"/>
        <pt x="198" y="0" on="1"/>
        <pt x="198" y="120" on="1"/>
        <pt x="263" y="120" on="1"/>
        <pt x="444" y="580" on="1"/>
        <pt x="434" y="580" on="1"/>
        <pt x="233" y="580" on="0"/>
        <pt x="80" y="524" on="0"/>
        <pt x="80" y="456" on="1"/>
        <pt x="80" y="402" on="0"/>
        <pt x="131" y="402" on="1"/>
        <pt x="178" y="402" on="0"/>
        <pt x="178" y="466" on="1"/>
        <pt x="303" y="466" on="1"/>
        <pt x="303" y="388" on="0"/>
        <pt x="221" y="282" on="0"/>
      </contour>
      <contour>
        <pt x="457" y="286" on="1"/>
        <pt x="636" y="286" on="1"/>
        <pt x="547" y="524" on="1"/>
      </contour>
    </TTGlyph>
    <TTGlyph name="Adieresis" xMin="-45" yMin="0" xMax="897" yMax="945">
      <contour>
        <pt x="410" y="798" on="0"/>
        <pt x="373" y="839" on="0"/>
        <pt x="373" y="901" on="0"/>
        <pt x="414" y="945" on="0"/>
        <pt x="473" y="945" on="0"/>
        <pt x="510" y="903" on="0"/>
        <pt x="510" y="842" on="0"/>
        <pt x="469" y="798" on="0"/>
      </contour>
      <contour>
        <pt x="633" y="798" on="0"/>
        <pt x="596" y="839" on="0"/>
        <pt x="596" y="901" on="0"/>
        <pt x="637" y="945" on="0"/>
        <pt x="696" y="945" on="0"/>
        <pt x="733" y="903" on="0"/>
        <pt x="733" y="842" on="0"/>
        <pt x="692" y="798" on="0"/>
      </contour>
      <contour>
        <pt x="41" y="282" on="0"/>
        <pt x="-45" y="384" on="0"/>
        <pt x="-45" y="456" on="1"/>
        <pt x="-45" y="570" on="0"/>
        <pt x="183" y="700" on="0"/>
        <pt x="434" y="700" on="1"/>
        <pt x="708" y="700" on="1"/>
        <pt x="708" y="580" on="1"/>
        <pt x="649" y="580" on="1"/>
        <pt x="831" y="120" on="1"/>
        <pt x="897" y="120" on="1"/>
        <pt x="897" y="0" on="1"/>
        <pt x="640" y="0" on="1"/>
        <pt x="640" y="120" on="1"/>
        <pt x="699" y="120" on="1"/>
        <pt x="678" y="176" on="1"/>
        <pt x="416" y="176" on="1"/>
        <pt x="395" y="120" on="1"/>
        <pt x="455" y="120" on="1"/>
        <pt x="455" y="0" on="1"/>
        <pt x="198" y="0" on="1"/>
        <pt x="198" y="120" on="1"/>
        <pt x="263" y="120" on="1"/>
        <pt x="444" y="580" on="1"/>
        <pt x="434" y="580" on="1"/>
        <pt x="233" y="580" on="0"/>
        <pt x="80" y="524" on="0"/>
        <pt x="80" y="456" on="1"/>
        <pt x="80" y="402" on="0"/>
        <pt x="131" y="402" on="1"/>
        <pt x="178" y="402" on="0"/>
        <pt x="178" y="466" on="1"/>
        <pt x="303" y="466" on="1"/>
        <pt x="303" y="388" on="0"/>
        <pt x="221" y="282" on="0"/>
      </contour>
      <contour>
        <pt x="457" y="286" on="1"/>
        <pt x="636" y="286" on="1"/>
        <pt x="547" y="524" on="1"/>
      </contour>
    </TTGlyph>
    <TTGlyph name="Agrave" xMin="-45" yMin="0" xMax="897" yMax="993">
      <contour>
        <pt x="579" y="760" on="1"/>
        <pt x="451" y="918" on="1"/>
        <pt x="562" y="993" on="1"/>
        <pt x="663" y="810" on="1"/>
      </contour>
      <contour>
        <pt x="41" y="282" on="0"/>
        <pt x="-45" y="384" on="0"/>
        <pt x="-45" y="456" on="1"/>
        <pt x="-45" y="570" on="0"/>
        <pt x="183" y="700" on="0"/>
        <pt x="434" y="700" on="1"/>
        <pt x="708" y="700" on="1"/>
        <pt x="708" y="580" on="1"/>
        <pt x="649" y="580" on="1"/>
        <pt x="831" y="120" on="1"/>
        <pt x="897" y="120" on="1"/>
        <pt x="897" y="0" on="1"/>
        <pt x="640" y="0" on="1"/>
        <pt x="640" y="120" on="1"/>
        <pt x="699" y="120" on="1"/>
        <pt x="678" y="176" on="1"/>
        <pt x="416" y="176" on="1"/>
        <pt x="395" y="120" on="1"/>
        <pt x="455" y="120" on="1"/>
        <pt x="455" y="0" on="1"/>
        <pt x="198" y="0" on="1"/>
        <pt x="198" y="120" on="1"/>
        <pt x="263" y="120" on="1"/>
        <pt x="444" y="580" on="1"/>
        <pt x="434" y="580" on="1"/>
        <pt x="233" y="580" on="0"/>
        <pt x="80" y="524" on="0"/>
        <pt x="80" y="456" on="1"/>
        <pt x="80" y="402" on="0"/>
        <pt x="131" y="402" on="1"/>
        <pt x="178" y="402" on="0"/>
        <pt x="178" y="466" on="1"/>
        <pt x="303" y="466" on="1"/>
        <pt x="303" y="388" on="0"/>
        <pt x="221" y="282" on="0"/>
      </contour>
      <contour>
        <pt x="457" y="286" on="1"/>
        <pt x="636" y="286" on="1"/>
        <pt x="547" y="524" on="1"/>
      </contour>
    </TTGlyph>
    <TTGlyph name="Aring" xMin="-45" yMin="0" xMax="897" yMax="980">
      <contour>
        <pt x="685" y="787" on="0"/>
        <pt x="606" y="710" on="0"/>
        <pt x="491" y="710" on="0"/>
        <pt x="410" y="789" on="0"/>
        <pt x="410" y="899" on="0"/>
        <pt x="492" y="980" on="0"/>
        <pt x="606" y="980" on="0"/>
        <pt x="685" y="900" on="0"/>
      </contour>
      <contour>
        <pt x="571" y="895" on="0"/>
        <pt x="527" y="895" on="0"/>
        <pt x="500" y="865" on="0"/>
        <pt x="500" y="824" on="0"/>
        <pt x="527" y="795" on="0"/>
        <pt x="572" y="795" on="0"/>
        <pt x="599" y="824" on="0"/>
        <pt x="599" y="865" on="0"/>
      </contour>
      <contour>
        <pt x="303" y="388" on="0"/>
        <pt x="221" y="282" on="0"/>
        <pt x="41" y="282" on="0"/>
        <pt x="-45" y="384" on="0"/>
        <pt x="-45" y="456" on="1"/>
        <pt x="-45" y="570" on="0"/>
        <pt x="183" y="700" on="0"/>
        <pt x="434" y="700" on="1"/>
        <pt x="708" y="700" on="1"/>
        <pt x="708" y="580" on="1"/>
        <pt x="649" y="580" on="1"/>
        <pt x="831" y="120" on="1"/>
        <pt x="897" y="120" on="1"/>
        <pt x="897" y="0" on="1"/>
        <pt x="640" y="0" on="1"/>
        <pt x="640" y="120" on="1"/>
        <pt x="699" y="120" on="1"/>
        <pt x="678" y="176" on="1"/>
        <pt x="416" y="176" on="1"/>
        <pt x="395" y="120" on="1"/>
        <pt x="455" y="120" on="1"/>
        <pt x="455" y="0" on="1"/>
        <pt x="198" y="0" on="1"/>
        <pt x="198" y="120" on="1"/>
        <pt x="263" y="120" on="1"/>
        <pt x="444" y="580" on="1"/>
        <pt x="434" y="580" on="1"/>
        <pt x="233" y="580" on="0"/>
        <pt x="80" y="524" on="0"/>
        <pt x="80" y="456" on="1"/>
        <pt x="80" y="402" on="0"/>
        <pt x="131" y="402" on="1"/>
        <pt x="178" y="402" on="0"/>
        <pt x="178" y="466" on="1"/>
        <pt x="303" y="466" on="1"/>
      </contour>
      <contour>
        <pt x="547" y="524" on="1"/>
        <pt x="457" y="286" on="1"/>
        <pt x="636" y="286" on="1"/>
      </contour>
    </TTGlyph>
    <TTGlyph name="Atilde" xMin="-45" yMin="0" xMax="897" yMax="910">
      <contour>
        <pt x="595" y="868" on="1"/>
        <pt x="658" y="910" on="1"/>
        <pt x="713" y="867" on="1"/>
        <pt x="695" y="819" on="0"/>
        <pt x="636" y="762" on="0"/>
        <pt x="567" y="762" on="0"/>
        <pt x="478" y="799" on="1"/>
        <pt x="415" y="757" on="1"/>
        <pt x="360" y="800" on="1"/>
        <pt x="378" y="848" on="0"/>
        <pt x="437" y="905" on="0"/>
        <pt x="475" y="905" on="1"/>
        <pt x="491" y="905" on="0"/>
        <pt x="510" y="899" on="0"/>
        <pt x="521" y="896" on="0"/>
        <pt x="544" y="888" on="0"/>
        <pt x="550" y="886" on="1"/>
        <pt x="565" y="879" on="0"/>
      </contour>
      <contour>
        <pt x="41" y="282" on="0"/>
        <pt x="-45" y="384" on="0"/>
        <pt x="-45" y="456" on="1"/>
        <pt x="-45" y="570" on="0"/>
        <pt x="183" y="700" on="0"/>
        <pt x="434" y="700" on="1"/>
        <pt x="708" y="700" on="1"/>
        <pt x="708" y="580" on="1"/>
        <pt x="649" y="580" on="1"/>
        <pt x="831" y="120" on="1"/>
        <pt x="897" y="120" on="1"/>
        <pt x="897" y="0" on="1"/>
        <pt x="640" y="0" on="1"/>
        <pt x="640" y="120" on="1"/>
        <pt x="699" y="120" on="1"/>
        <pt x="678" y="176" on="1"/>
        <pt x="416" y="176" on="1"/>
        <pt x="395" y="120" on="1"/>
        <pt x="455" y="120" on="1"/>
        <pt x="455" y="0" on="1"/>
        <pt x="198" y="0" on="1"/>
        <pt x="198" y="120" on="1"/>
        <pt x="263" y="120" on="1"/>
        <pt x="444" y="580" on="1"/>
        <pt x="434" y="580" on="1"/>
        <pt x="233" y="580" on="0"/>
        <pt x="80" y="524" on="0"/>
        <pt x="80" y="456" on="1"/>
        <pt x="80" y="402" on="0"/>
        <pt x="131" y="402" on="1"/>
        <pt x="178" y="402" on="0"/>
        <pt x="178" y="466" on="1"/>
        <pt x="303" y="466" on="1"/>
        <pt x="303" y="388" on="0"/>
        <pt x="221" y="282" on="0"/>
      </contour>
      <contour>
        <pt x="457" y="286" on="1"/>
        <pt x="636" y="286" on="1"/>
        <pt x="547" y="524" on="1"/>
      </contour>
    </TTGlyph>
    <TTGlyph name="B" xMin="-45" yMin="-10" xMax="863" yMax="710">
      <contour>
        <pt x="303" y="399" on="0"/>
        <pt x="221" y="292" on="0"/>
        <pt x="41" y="292" on="0"/>
        <pt x="-45" y="394" on="0"/>
        <pt x="-45" y="466" on="1"/>
        <pt x="-45" y="580" on="0"/>
        <pt x="169" y="710" on="0"/>
        <pt x="404" y="710" on="1"/>
        <pt x="449" y="710" on="1"/>
        <pt x="832" y="710" on="0"/>
        <pt x="832" y="506" on="1"/>
        <pt x="832" y="404" on="0"/>
        <pt x="737" y="362" on="1"/>
        <pt x="795" y="342" on="0"/>
        <pt x="863" y="251" on="0"/>
        <pt x="863" y="187" on="1"/>
        <pt x="863" y="101" on="0"/>
        <pt x="725" y="-10" on="0"/>
        <pt x="594" y="-10" on="1"/>
        <pt x="572" y="-10" on="0"/>
        <pt x="412" y="0" on="0"/>
        <pt x="364" y="0" on="1"/>
        <pt x="252" y="0" on="1"/>
        <pt x="252" y="120" on="1"/>
        <pt x="349" y="120" on="1"/>
        <pt x="349" y="589" on="1"/>
        <pt x="199" y="585" on="0"/>
        <pt x="80" y="528" on="0"/>
        <pt x="80" y="412" on="0"/>
        <pt x="131" y="412" on="1"/>
        <pt x="178" y="412" on="0"/>
        <pt x="178" y="476" on="1"/>
        <pt x="303" y="476" on="1"/>
      </contour>
      <contour>
        <pt x="519" y="287" on="1"/>
        <pt x="519" y="407" on="1"/>
        <pt x="598" y="407" on="1"/>
        <pt x="636" y="407" on="0"/>
        <pt x="687" y="451" on="0"/>
        <pt x="687" y="542" on="0"/>
        <pt x="593" y="590" on="0"/>
        <pt x="479" y="590" on="1"/>
        <pt x="479" y="117" on="1"/>
        <pt x="579" y="110" on="0"/>
        <pt x="659" y="110" on="0"/>
        <pt x="718" y="160" on="0"/>
        <pt x="718" y="245" on="0"/>
        <pt x="658" y="287" on="0"/>
        <pt x="609" y="287" on="1"/>
      </contour>
    </TTGlyph>
    <TTGlyph name="C" xMin="35" yMin="-10" xMax="631" yMax="710">
      <contour>
        <pt x="612" y="423" on="0"/>
        <pt x="526" y="321" on="0"/>
        <pt x="346" y="321" on="0"/>
        <pt x="264" y="428" on="0"/>
        <pt x="264" y="505" on="1"/>
        <pt x="389" y="505" on="1"/>
        <pt x="389" y="441" on="0"/>
        <pt x="436" y="441" on="1"/>
        <pt x="472" y="441" on="0"/>
        <pt x="472" y="495" on="1"/>
        <pt x="472" y="535" on="0"/>
        <pt x="410" y="585" on="0"/>
        <pt x="370" y="585" on="1"/>
        <pt x="279" y="585" on="0"/>
        <pt x="170" y="452" on="0"/>
        <pt x="170" y="248" on="0"/>
        <pt x="279" y="115" on="0"/>
        <pt x="473" y="115" on="0"/>
        <pt x="555" y="201" on="1"/>
        <pt x="631" y="106" on="1"/>
        <pt x="538" y="-10" on="0"/>
        <pt x="215" y="-10" on="0"/>
        <pt x="35" y="189" on="0"/>
        <pt x="35" y="507" on="0"/>
        <pt x="215" y="710" on="0"/>
        <pt x="370" y="710" on="1"/>
        <pt x="467" y="710" on="0"/>
        <pt x="612" y="590" on="0"/>
        <pt x="612" y="495" on="1"/>
      </contour>
    </TTGlyph>
    <TTGlyph name="Cacute" xMin="35" yMin="-10" xMax="631" yMax="993">
      <contour>
        <pt x="612" y="423" on="0"/>
        <pt x="526" y="321" on="0"/>
        <pt x="346" y="321" on="0"/>
        <pt x="264" y="428" on="0"/>
        <pt x="264" y="505" on="1"/>
        <pt x="389" y="505" on="1"/>
        <pt x="389" y="441" on="0"/>
        <pt x="436" y="441" on="1"/>
        <pt x="472" y="441" on="0"/>
        <pt x="472" y="495" on="1"/>
        <pt x="472" y="535" on="0"/>
        <pt x="410" y="585" on="0"/>
        <pt x="370" y="585" on="1"/>
        <pt x="279" y="585" on="0"/>
        <pt x="170" y="452" on="0"/>
        <pt x="170" y="248" on="0"/>
        <pt x="279" y="115" on="0"/>
        <pt x="473" y="115" on="0"/>
        <pt x="555" y="201" on="1"/>
        <pt x="631" y="106" on="1"/>
        <pt x="538" y="-10" on="0"/>
        <pt x="215" y="-10" on="0"/>
        <pt x="35" y="189" on="0"/>
        <pt x="35" y="507" on="0"/>
        <pt x="215" y="710" on="0"/>
        <pt x="370" y="710" on="1"/>
        <pt x="467" y="710" on="0"/>
        <pt x="612" y="590" on="0"/>
        <pt x="612" y="495" on="1"/>
      </contour>
      <contour>
        <pt x="523" y="918" on="1"/>
        <pt x="395" y="760" on="1"/>
        <pt x="311" y="810" on="1"/>
        <pt x="412" y="993" on="1"/>
      </contour>
    </TTGlyph>
    <TTGlyph name="Ccaron" xMin="35" yMin="-10" xMax="631" yMax="947">
      <contour>
        <pt x="612" y="423" on="0"/>
        <pt x="526" y="321" on="0"/>
        <pt x="346" y="321" on="0"/>
        <pt x="264" y="428" on="0"/>
        <pt x="264" y="505" on="1"/>
        <pt x="389" y="505" on="1"/>
        <pt x="389" y="441" on="0"/>
        <pt x="436" y="441" on="1"/>
        <pt x="472" y="441" on="0"/>
        <pt x="472" y="495" on="1"/>
        <pt x="472" y="535" on="0"/>
        <pt x="410" y="585" on="0"/>
        <pt x="370" y="585" on="1"/>
        <pt x="279" y="585" on="0"/>
        <pt x="170" y="452" on="0"/>
        <pt x="170" y="248" on="0"/>
        <pt x="279" y="115" on="0"/>
        <pt x="473" y="115" on="0"/>
        <pt x="555" y="201" on="1"/>
        <pt x="631" y="106" on="1"/>
        <pt x="538" y="-10" on="0"/>
        <pt x="215" y="-10" on="0"/>
        <pt x="35" y="189" on="0"/>
        <pt x="35" y="507" on="0"/>
        <pt x="215" y="710" on="0"/>
        <pt x="370" y="710" on="1"/>
        <pt x="467" y="710" on="0"/>
        <pt x="612" y="590" on="0"/>
        <pt x="612" y="495" on="1"/>
      </contour>
      <contour>
        <pt x="322" y="750" on="1"/>
        <pt x="192" y="897" on="1"/>
        <pt x="254" y="947" on="1"/>
        <pt x="363" y="857" on="1"/>
        <pt x="472" y="947" on="1"/>
        <pt x="534" y="897" on="1"/>
        <pt x="404" y="750" on="1"/>
      </contour>
    </TTGlyph>
    <TTGlyph name="Ccedilla" xMin="-45" yMin="-260" xMax="551" yMax="710">
      <contour>
        <pt x="102" y="13" on="0"/>
        <pt x="-45" y="206" on="0"/>
        <pt x="-45" y="507" on="0"/>
        <pt x="135" y="710" on="0"/>
        <pt x="290" y="710" on="1"/>
        <pt x="387" y="710" on="0"/>
        <pt x="532" y="590" on="0"/>
        <pt x="532" y="495" on="1"/>
        <pt x="532" y="423" on="0"/>
        <pt x="446" y="321" on="0"/>
        <pt x="266" y="321" on="0"/>
        <pt x="184" y="428" on="0"/>
        <pt x="184" y="505" on="1"/>
        <pt x="309" y="505" on="1"/>
        <pt x="309" y="441" on="0"/>
        <pt x="356" y="441" on="1"/>
        <pt x="392" y="441" on="0"/>
        <pt x="392" y="495" on="1"/>
        <pt x="392" y="535" on="0"/>
        <pt x="330" y="585" on="0"/>
        <pt x="290" y="585" on="1"/>
        <pt x="199" y="585" on="0"/>
        <pt x="90" y="452" on="0"/>
        <pt x="90" y="248" on="0"/>
        <pt x="199" y="115" on="0"/>
        <pt x="393" y="115" on="0"/>
        <pt x="475" y="201" on="1"/>
        <pt x="551" y="106" on="1"/>
        <pt x="473" y="10" on="0"/>
        <pt x="345" y="-6" on="1"/>
        <pt x="319" y="-22" on="1"/>
        <pt x="392" y="-41" on="0"/>
        <pt x="392" y="-131" on="1"/>
        <pt x="392" y="-196" on="0"/>
        <pt x="313" y="-260" on="0"/>
        <pt x="193" y="-260" on="0"/>
        <pt x="144" y="-238" on="1"/>
        <pt x="178" y="-145" on="1"/>
        <pt x="197" y="-155" on="0"/>
        <pt x="284" y="-155" on="0"/>
        <pt x="284" y="-127" on="1"/>
        <pt x="284" y="-96" on="0"/>
        <pt x="246" y="-96" on="1"/>
        <pt x="225" y="-96" on="0"/>
        <pt x="207" y="-104" on="1"/>
        <pt x="186" y="-35" on="1"/>
        <pt x="231" y="-5" on="1"/>
      </contour>
    </TTGlyph>
    <TTGlyph name="D" xMin="-45" yMin="-10" xMax="887" yMax="700">
      <contour>
        <pt x="569" y="-10" on="1"/>
        <pt x="364" y="0" on="1"/>
        <pt x="261" y="0" on="1"/>
        <pt x="261" y="120" on="1"/>
        <pt x="349" y="120" on="1"/>
        <pt x="349" y="579" on="1"/>
        <pt x="199" y="575" on="0"/>
        <pt x="80" y="518" on="0"/>
        <pt x="80" y="402" on="0"/>
        <pt x="131" y="402" on="1"/>
        <pt x="178" y="402" on="0"/>
        <pt x="178" y="466" on="1"/>
        <pt x="303" y="466" on="1"/>
        <pt x="303" y="389" on="0"/>
        <pt x="221" y="282" on="0"/>
        <pt x="41" y="282" on="0"/>
        <pt x="-45" y="384" on="0"/>
        <pt x="-45" y="456" on="1"/>
        <pt x="-45" y="570" on="0"/>
        <pt x="169" y="700" on="0"/>
        <pt x="404" y="700" on="1"/>
        <pt x="449" y="700" on="1"/>
        <pt x="662" y="700" on="0"/>
        <pt x="887" y="495" on="0"/>
        <pt x="887" y="320" on="1"/>
        <pt x="887" y="149" on="0"/>
        <pt x="786" y="58" on="1"/>
        <pt x="708" y="-10" on="0"/>
      </contour>
      <contour>
        <pt x="479" y="116" on="1"/>
        <pt x="547" y="110" on="0"/>
        <pt x="621" y="110" on="0"/>
        <pt x="696" y="147" on="0"/>
        <pt x="716" y="178" on="1"/>
        <pt x="752" y="237" on="0"/>
        <pt x="752" y="320" on="1"/>
        <pt x="752" y="444" on="0"/>
        <pt x="613" y="580" on="0"/>
        <pt x="479" y="580" on="1"/>
      </contour>
    </TTGlyph>
    <TTGlyph name="Dcaron" xMin="-45" yMin="-10" xMax="872" yMax="947">
      <contour>
        <pt x="349" y="0" on="1"/>
        <pt x="246" y="0" on="1"/>
        <pt x="246" y="120" on="1"/>
        <pt x="334" y="120" on="1"/>
        <pt x="334" y="579" on="1"/>
        <pt x="192" y="575" on="0"/>
        <pt x="80" y="518" on="0"/>
        <pt x="80" y="402" on="0"/>
        <pt x="131" y="402" on="1"/>
        <pt x="178" y="402" on="0"/>
        <pt x="178" y="466" on="1"/>
        <pt x="303" y="466" on="1"/>
        <pt x="303" y="389" on="0"/>
        <pt x="221" y="282" on="0"/>
        <pt x="41" y="282" on="0"/>
        <pt x="-45" y="384" on="0"/>
        <pt x="-45" y="456" on="1"/>
        <pt x="-45" y="570" on="0"/>
        <pt x="162" y="700" on="0"/>
        <pt x="389" y="700" on="1"/>
        <pt x="434" y="700" on="1"/>
        <pt x="647" y="700" on="0"/>
        <pt x="872" y="495" on="0"/>
        <pt x="872" y="320" on="1"/>
        <pt x="872" y="211" on="0"/>
        <pt x="830" y="133" on="1"/>
        <pt x="751" y="-10" on="0"/>
        <pt x="554" y="-10" on="1"/>
      </contour>
      <contour>
        <pt x="606" y="110" on="0"/>
        <pt x="681" y="147" on="0"/>
        <pt x="700" y="178" on="1"/>
        <pt x="737" y="237" on="0"/>
        <pt x="737" y="320" on="1"/>
        <pt x="737" y="444" on="0"/>
        <pt x="598" y="580" on="0"/>
        <pt x="464" y="580" on="1"/>
        <pt x="464" y="116" on="1"/>
        <pt x="532" y="110" on="0"/>
      </contour>
      <contour>
        <pt x="375" y="750" on="1"/>
        <pt x="245" y="897" on="1"/>
        <pt x="307" y="947" on="1"/>
        <pt x="416" y="857" on="1"/>
        <pt x="525" y="947" on="1"/>
        <pt x="587" y="897" on="1"/>
        <pt x="457" y="750" on="1"/>
      </contour>
    </TTGlyph>
    <TTGlyph name="E" xMin="-45" yMin="0" xMax="823" yMax="700">
      <contour>
        <pt x="303" y="389" on="0"/>
        <pt x="221" y="282" on="0"/>
        <pt x="41" y="282" on="0"/>
        <pt x="-45" y="384" on="0"/>
        <pt x="-45" y="456" on="1"/>
        <pt x="-45" y="570" on="0"/>
        <pt x="169" y="700" on="0"/>
        <pt x="404" y="700" on="1"/>
        <pt x="814" y="700" on="1"/>
        <pt x="814" y="495" on="1"/>
        <pt x="699" y="495" on="1"/>
        <pt x="699" y="580" on="1"/>
        <pt x="479" y="580" on="1"/>
        <pt x="479" y="406" on="1"/>
        <pt x="557" y="406" on="1"/>
        <pt x="557" y="466" on="1"/>
        <pt x="672" y="466" on="1"/>
        <pt x="672" y="226" on="1"/>
        <pt x="557" y="226" on="1"/>
        <pt x="557" y="286" on="1"/>
        <pt x="479" y="286" on="1"/>
        <pt x="479" y="120" on="1"/>
        <pt x="708" y="120" on="1"/>
        <pt x="708" y="205" on="1"/>
        <pt x="823" y="205" on="1"/>
        <pt x="823" y="0" on="1"/>
        <pt x="252" y="0" on="1"/>
        <pt x="252" y="120" on="1"/>
        <pt x="349" y="120" on="1"/>
        <pt x="349" y="579" on="1"/>
        <pt x="199" y="575" on="0"/>
        <pt x="80" y="518" on="0"/>
        <pt x="80" y="402" on="0"/>
        <pt x="131" y="402" on="1"/>
        <pt x="178" y="402" on="0"/>
        <pt x="178" y="466" on="1"/>
        <pt x="303" y="466" on="1"/>
      </contour>
    </TTGlyph>
    <TTGlyph name="Eacute" xMin="-45" yMin="0" xMax="808" yMax="993">
      <contour>
        <pt x="303" y="389" on="0"/>
        <pt x="221" y="282" on="0"/>
        <pt x="41" y="282" on="0"/>
        <pt x="-45" y="384" on="0"/>
        <pt x="-45" y="456" on="1"/>
        <pt x="-45" y="570" on="0"/>
        <pt x="162" y="700" on="0"/>
        <pt x="389" y="700" on="1"/>
        <pt x="799" y="700" on="1"/>
        <pt x="799" y="495" on="1"/>
        <pt x="684" y="495" on="1"/>
        <pt x="684" y="580" on="1"/>
        <pt x="464" y="580" on="1"/>
        <pt x="464" y="406" on="1"/>
        <pt x="542" y="406" on="1"/>
        <pt x="542" y="466" on="1"/>
        <pt x="657" y="466" on="1"/>
        <pt x="657" y="226" on="1"/>
        <pt x="542" y="226" on="1"/>
        <pt x="542" y="286" on="1"/>
        <pt x="464" y="286" on="1"/>
        <pt x="464" y="120" on="1"/>
        <pt x="693" y="120" on="1"/>
        <pt x="693" y="205" on="1"/>
        <pt x="808" y="205" on="1"/>
        <pt x="808" y="0" on="1"/>
        <pt x="237" y="0" on="1"/>
        <pt x="237" y="120" on="1"/>
        <pt x="334" y="120" on="1"/>
        <pt x="334" y="579" on="1"/>
        <pt x="192" y="575" on="0"/>
        <pt x="80" y="518" on="0"/>
        <pt x="80" y="402" on="0"/>
        <pt x="131" y="402" on="1"/>
        <pt x="178" y="402" on="0"/>
        <pt x="178" y="466" on="1"/>
        <pt x="303" y="466" on="1"/>
      </contour>
      <contour>
        <pt x="626" y="918" on="1"/>
        <pt x="498" y="760" on="1"/>
        <pt x="414" y="810" on="1"/>
        <pt x="515" y="993" on="1"/>
      </contour>
    </TTGlyph>
    <TTGlyph name="Ecaron" xMin="-45" yMin="0" xMax="808" yMax="947">
      <contour>
        <pt x="303" y="389" on="0"/>
        <pt x="221" y="282" on="0"/>
        <pt x="41" y="282" on="0"/>
        <pt x="-45" y="384" on="0"/>
        <pt x="-45" y="456" on="1"/>
        <pt x="-45" y="570" on="0"/>
        <pt x="162" y="700" on="0"/>
        <pt x="389" y="700" on="1"/>
        <pt x="799" y="700" on="1"/>
        <pt x="799" y="495" on="1"/>
        <pt x="684" y="495" on="1"/>
        <pt x="684" y="580" on="1"/>
        <pt x="464" y="580" on="1"/>
        <pt x="464" y="406" on="1"/>
        <pt x="542" y="406" on="1"/>
        <pt x="542" y="466" on="1"/>
        <pt x="657" y="466" on="1"/>
        <pt x="657" y="226" on="1"/>
        <pt x="542" y="226" on="1"/>
        <pt x="542" y="286" on="1"/>
        <pt x="464" y="286" on="1"/>
        <pt x="464" y="120" on="1"/>
        <pt x="693" y="120" on="1"/>
        <pt x="693" y="205" on="1"/>
        <pt x="808" y="205" on="1"/>
        <pt x="808" y="0" on="1"/>
        <pt x="237" y="0" on="1"/>
        <pt x="237" y="120" on="1"/>
        <pt x="334" y="120" on="1"/>
        <pt x="334" y="579" on="1"/>
        <pt x="192" y="575" on="0"/>
        <pt x="80" y="518" on="0"/>
        <pt x="80" y="402" on="0"/>
        <pt x="131" y="402" on="1"/>
        <pt x="178" y="402" on="0"/>
        <pt x="178" y="466" on="1"/>
        <pt x="303" y="466" on="1"/>
      </contour>
      <contour>
        <pt x="460" y="750" on="1"/>
        <pt x="330" y="897" on="1"/>
        <pt x="392" y="947" on="1"/>
        <pt x="501" y="857" on="1"/>
        <pt x="610" y="947" on="1"/>
        <pt x="672" y="897" on="1"/>
        <pt x="542" y="750" on="1"/>
      </contour>
    </TTGlyph>
    <TTGlyph name="Ecircumflex" xMin="-45" yMin="0" xMax="808" yMax="947">
      <contour>
        <pt x="303" y="389" on="0"/>
        <pt x="221" y="282" on="0"/>
        <pt x="41" y="282" on="0"/>
        <pt x="-45" y="384" on="0"/>
        <pt x="-45" y="456" on="1"/>
        <pt x="-45" y="570" on="0"/>
        <pt x="162" y="700" on="0"/>
        <pt x="389" y="700" on="1"/>
        <pt x="799" y="700" on="1"/>
        <pt x="799" y="495" on="1"/>
        <pt x="684" y="495" on="1"/>
        <pt x="684" y="580" on="1"/>
        <pt x="464" y="580" on="1"/>
        <pt x="464" y="406" on="1"/>
        <pt x="542" y="406" on="1"/>
        <pt x="542" y="466" on="1"/>
        <pt x="657" y="466" on="1"/>
        <pt x="657" y="226" on="1"/>
        <pt x="542" y="226" on="1"/>
        <pt x="542" y="286" on="1"/>
        <pt x="464" y="286" on="1"/>
        <pt x="464" y="120" on="1"/>
        <pt x="693" y="120" on="1"/>
        <pt x="693" y="205" on="1"/>
        <pt x="808" y="205" on="1"/>
        <pt x="808" y="0" on="1"/>
        <pt x="237" y="0" on="1"/>
        <pt x="237" y="120" on="1"/>
        <pt x="334" y="120" on="1"/>
        <pt x="334" y="579" on="1"/>
        <pt x="192" y="575" on="0"/>
        <pt x="80" y="518" on="0"/>
        <pt x="80" y="402" on="0"/>
        <pt x="131" y="402" on="1"/>
        <pt x="178" y="402" on="0"/>
        <pt x="178" y="466" on="1"/>
        <pt x="303" y="466" on="1"/>
      </contour>
      <contour>
        <pt x="348" y="800" on="1"/>
        <pt x="478" y="947" on="1"/>
        <pt x="560" y="947" on="1"/>
        <pt x="690" y="800" on="1"/>
        <pt x="628" y="750" on="1"/>
        <pt x="519" y="840" on="1"/>
        <pt x="410" y="750" on="1"/>
      </contour>
    </TTGlyph>
    <TTGlyph name="Edieresis" xMin="-45" yMin="0" xMax="808" yMax="945">
      <contour>
        <pt x="303" y="389" on="0"/>
        <pt x="221" y="282" on="0"/>
        <pt x="41" y="282" on="0"/>
        <pt x="-45" y="384" on="0"/>
        <pt x="-45" y="456" on="1"/>
        <pt x="-45" y="570" on="0"/>
        <pt x="162" y="700" on="0"/>
        <pt x="389" y="700" on="1"/>
        <pt x="799" y="700" on="1"/>
        <pt x="799" y="495" on="1"/>
        <pt x="684" y="495" on="1"/>
        <pt x="684" y="580" on="1"/>
        <pt x="464" y="580" on="1"/>
        <pt x="464" y="406" on="1"/>
        <pt x="542" y="406" on="1"/>
        <pt x="542" y="466" on="1"/>
        <pt x="657" y="466" on="1"/>
        <pt x="657" y="226" on="1"/>
        <pt x="542" y="226" on="1"/>
        <pt x="542" y="286" on="1"/>
        <pt x="464" y="286" on="1"/>
        <pt x="464" y="120" on="1"/>
        <pt x="693" y="120" on="1"/>
        <pt x="693" y="205" on="1"/>
        <pt x="808" y="205" on="1"/>
        <pt x="808" y="0" on="1"/>
        <pt x="237" y="0" on="1"/>
        <pt x="237" y="120" on="1"/>
        <pt x="334" y="120" on="1"/>
        <pt x="334" y="579" on="1"/>
        <pt x="192" y="575" on="0"/>
        <pt x="80" y="518" on="0"/>
        <pt x="80" y="402" on="0"/>
        <pt x="131" y="402" on="1"/>
        <pt x="178" y="402" on="0"/>
        <pt x="178" y="466" on="1"/>
        <pt x="303" y="466" on="1"/>
      </contour>
      <contour>
        <pt x="397" y="798" on="0"/>
        <pt x="360" y="839" on="0"/>
        <pt x="360" y="901" on="0"/>
        <pt x="401" y="945" on="0"/>
        <pt x="460" y="945" on="0"/>
        <pt x="497" y="903" on="0"/>
        <pt x="497" y="842" on="0"/>
        <pt x="456" y="798" on="0"/>
      </contour>
      <contour>
        <pt x="620" y="798" on="0"/>
        <pt x="583" y="839" on="0"/>
        <pt x="583" y="901" on="0"/>
        <pt x="624" y="945" on="0"/>
        <pt x="683" y="945" on="0"/>
        <pt x="720" y="903" on="0"/>
        <pt x="720" y="842" on="0"/>
        <pt x="679" y="798" on="0"/>
      </contour>
    </TTGlyph>
    <TTGlyph name="Egrave" xMin="-45" yMin="0" xMax="808" yMax="993">
      <contour>
        <pt x="303" y="389" on="0"/>
        <pt x="221" y="282" on="0"/>
        <pt x="41" y="282" on="0"/>
        <pt x="-45" y="384" on="0"/>
        <pt x="-45" y="456" on="1"/>
        <pt x="-45" y="570" on="0"/>
        <pt x="162" y="700" on="0"/>
        <pt x="389" y="700" on="1"/>
        <pt x="799" y="700" on="1"/>
        <pt x="799" y="495" on="1"/>
        <pt x="684" y="495" on="1"/>
        <pt x="684" y="580" on="1"/>
        <pt x="464" y="580" on="1"/>
        <pt x="464" y="406" on="1"/>
        <pt x="542" y="406" on="1"/>
        <pt x="542" y="466" on="1"/>
        <pt x="657" y="466" on="1"/>
        <pt x="657" y="226" on="1"/>
        <pt x="542" y="226" on="1"/>
        <pt x="542" y="286" on="1"/>
        <pt x="464" y="286" on="1"/>
        <pt x="464" y="120" on="1"/>
        <pt x="693" y="120" on="1"/>
        <pt x="693" y="205" on="1"/>
        <pt x="808" y="205" on="1"/>
        <pt x="808" y="0" on="1"/>
        <pt x="237" y="0" on="1"/>
        <pt x="237" y="120" on="1"/>
        <pt x="334" y="120" on="1"/>
        <pt x="334" y="579" on="1"/>
        <pt x="192" y="575" on="0"/>
        <pt x="80" y="518" on="0"/>
        <pt x="80" y="402" on="0"/>
        <pt x="131" y="402" on="1"/>
        <pt x="178" y="402" on="0"/>
        <pt x="178" y="466" on="1"/>
        <pt x="303" y="466" on="1"/>
      </contour>
      <contour>
        <pt x="509" y="760" on="1"/>
        <pt x="381" y="918" on="1"/>
        <pt x="492" y="993" on="1"/>
        <pt x="593" y="810" on="1"/>
      </contour>
    </TTGlyph>
    <TTGlyph name="Eth" xMin="-45" yMin="-10" xMax="872" yMax="700">
      <contour>
        <pt x="554" y="-10" on="1"/>
        <pt x="349" y="0" on="1"/>
        <pt x="246" y="0" on="1"/>
        <pt x="246" y="120" on="1"/>
        <pt x="334" y="120" on="1"/>
        <pt x="334" y="579" on="1"/>
        <pt x="192" y="575" on="0"/>
        <pt x="80" y="518" on="0"/>
        <pt x="80" y="402" on="0"/>
        <pt x="131" y="402" on="1"/>
        <pt x="178" y="402" on="0"/>
        <pt x="178" y="466" on="1"/>
        <pt x="303" y="466" on="1"/>
        <pt x="303" y="389" on="0"/>
        <pt x="221" y="282" on="0"/>
        <pt x="41" y="282" on="0"/>
        <pt x="-45" y="384" on="0"/>
        <pt x="-45" y="456" on="1"/>
        <pt x="-45" y="570" on="0"/>
        <pt x="162" y="700" on="0"/>
        <pt x="389" y="700" on="1"/>
        <pt x="434" y="700" on="1"/>
        <pt x="647" y="700" on="0"/>
        <pt x="872" y="495" on="0"/>
        <pt x="872" y="320" on="1"/>
        <pt x="872" y="149" on="0"/>
        <pt x="770" y="58" on="1"/>
        <pt x="693" y="-10" on="0"/>
      </contour>
      <contour>
        <pt x="464" y="116" on="1"/>
        <pt x="532" y="110" on="0"/>
        <pt x="606" y="110" on="0"/>
        <pt x="681" y="147" on="0"/>
        <pt x="700" y="178" on="1"/>
        <pt x="737" y="237" on="0"/>
        <pt x="737" y="320" on="1"/>
        <pt x="737" y="444" on="0"/>
        <pt x="598" y="580" on="0"/>
        <pt x="464" y="580" on="1"/>
        <pt x="464" y="382" on="1"/>
        <pt x="565" y="382" on="1"/>
        <pt x="565" y="280" on="1"/>
        <pt x="464" y="280" on="1"/>
      </contour>
    </TTGlyph>
    <TTGlyph name="Euro" xMin="7" yMin="-10" xMax="673" yMax="710">
      <contour>
        <pt x="654" y="423" on="0"/>
        <pt x="568" y="321" on="0"/>
        <pt x="381" y="321" on="0"/>
        <pt x="337" y="388" on="1"/>
        <pt x="214" y="388" on="1"/>
        <pt x="212" y="373" on="0"/>
        <pt x="212" y="350" on="1"/>
        <pt x="212" y="340" on="1"/>
        <pt x="348" y="340" on="1"/>
        <pt x="328" y="223" on="1"/>
        <pt x="240" y="223" on="1"/>
        <pt x="294" y="115" on="0"/>
        <pt x="412" y="115" on="1"/>
        <pt x="515" y="115" on="0"/>
        <pt x="597" y="201" on="1"/>
        <pt x="673" y="106" on="1"/>
        <pt x="580" y="-10" on="0"/>
        <pt x="412" y="-10" on="1"/>
        <pt x="290" y="-10" on="0"/>
        <pt x="125" y="115" on="0"/>
        <pt x="94" y="223" on="1"/>
        <pt x="7" y="223" on="1"/>
        <pt x="27" y="340" on="1"/>
        <pt x="77" y="340" on="1"/>
        <pt x="77" y="348" on="1"/>
        <pt x="77" y="375" on="0"/>
        <pt x="78" y="388" on="1"/>
        <pt x="7" y="388" on="1"/>
        <pt x="27" y="505" on="1"/>
        <pt x="104" y="505" on="1"/>
        <pt x="141" y="600" on="0"/>
        <pt x="300" y="710" on="0"/>
        <pt x="509" y="710" on="0"/>
        <pt x="654" y="590" on="0"/>
        <pt x="654" y="495" on="1"/>
      </contour>
      <contour>
        <pt x="412" y="585" on="1"/>
        <pt x="313" y="585" on="0"/>
        <pt x="256" y="505" on="1"/>
        <pt x="431" y="505" on="1"/>
        <pt x="431" y="441" on="0"/>
        <pt x="478" y="441" on="1"/>
        <pt x="514" y="441" on="0"/>
        <pt x="514" y="495" on="1"/>
        <pt x="514" y="535" on="0"/>
        <pt x="452" y="585" on="0"/>
      </contour>
    </TTGlyph>
    <TTGlyph name="F" xMin="-45" yMin="0" xMax="814" yMax="700">
      <contour>
        <pt x="303" y="389" on="0"/>
        <pt x="221" y="282" on="0"/>
        <pt x="41" y="282" on="0"/>
        <pt x="-45" y="384" on="0"/>
        <pt x="-45" y="456" on="1"/>
        <pt x="-45" y="570" on="0"/>
        <pt x="169" y="700" on="0"/>
        <pt x="404" y="700" on="1"/>
        <pt x="814" y="700" on="1"/>
        <pt x="814" y="495" on="1"/>
        <pt x="699" y="495" on="1"/>
        <pt x="699" y="580" on="1"/>
        <pt x="479" y="580" on="1"/>
        <pt x="479" y="406" on="1"/>
        <pt x="557" y="406" on="1"/>
        <pt x="557" y="466" on="1"/>
        <pt x="672" y="466" on="1"/>
        <pt x="672" y="226" on="1"/>
        <pt x="557" y="226" on="1"/>
        <pt x="557" y="286" on="1"/>
        <pt x="479" y="286" on="1"/>
        <pt x="479" y="120" on="1"/>
        <pt x="571" y="120" on="1"/>
        <pt x="571" y="0" on="1"/>
        <pt x="252" y="0" on="1"/>
        <pt x="252" y="120" on="1"/>
        <pt x="349" y="120" on="1"/>
        <pt x="349" y="579" on="1"/>
        <pt x="199" y="575" on="0"/>
        <pt x="80" y="518" on="0"/>
        <pt x="80" y="402" on="0"/>
        <pt x="131" y="402" on="1"/>
        <pt x="178" y="402" on="0"/>
        <pt x="178" y="466" on="1"/>
        <pt x="303" y="466" on="1"/>
      </contour>
    </TTGlyph>
    <TTGlyph name="G" xMin="35" yMin="-10" xMax="635" yMax="710">
      <contour>
        <pt x="612" y="444" on="0"/>
        <pt x="533" y="351" on="0"/>
        <pt x="361" y="351" on="0"/>
        <pt x="279" y="440" on="0"/>
        <pt x="279" y="505" on="1"/>
        <pt x="404" y="505" on="1"/>
        <pt x="404" y="471" on="0"/>
        <pt x="436" y="471" on="1"/>
        <pt x="472" y="471" on="0"/>
        <pt x="472" y="543" on="0"/>
        <pt x="410" y="585" on="0"/>
        <pt x="370" y="585" on="1"/>
        <pt x="279" y="585" on="0"/>
        <pt x="170" y="452" on="0"/>
        <pt x="170" y="248" on="0"/>
        <pt x="279" y="115" on="0"/>
        <pt x="447" y="115" on="0"/>
        <pt x="505" y="180" on="1"/>
        <pt x="336" y="180" on="1"/>
        <pt x="336" y="300" on="1"/>
        <pt x="635" y="300" on="1"/>
        <pt x="635" y="0" on="1"/>
        <pt x="528" y="0" on="1"/>
        <pt x="514" y="44" on="1"/>
        <pt x="446" y="-10" on="0"/>
        <pt x="355" y="-10" on="1"/>
        <pt x="206" y="-10" on="0"/>
        <pt x="35" y="189" on="0"/>
        <pt x="35" y="507" on="0"/>
        <pt x="215" y="710" on="0"/>
        <pt x="370" y="710" on="1"/>
        <pt x="467" y="710" on="0"/>
        <pt x="612" y="598" on="0"/>
        <pt x="612" y="510" on="1"/>
      </contour>
    </TTGlyph>
    <TTGlyph name="H" xMin="-45" yMin="0" xMax="974" yMax="700">
      <contour>
        <pt x="303" y="389" on="0"/>
        <pt x="221" y="282" on="0"/>
        <pt x="41" y="282" on="0"/>
        <pt x="-45" y="384" on="0"/>
        <pt x="-45" y="456" on="1"/>
        <pt x="-45" y="570" on="0"/>
        <pt x="169" y="700" on="0"/>
        <pt x="404" y="700" on="1"/>
        <pt x="566" y="700" on="1"/>
        <pt x="566" y="580" on="1"/>
        <pt x="479" y="580" on="1"/>
        <pt x="479" y="408" on="1"/>
        <pt x="747" y="408" on="1"/>
        <pt x="747" y="580" on="1"/>
        <pt x="660" y="580" on="1"/>
        <pt x="660" y="700" on="1"/>
        <pt x="974" y="700" on="1"/>
        <pt x="974" y="580" on="1"/>
        <pt x="877" y="580" on="1"/>
        <pt x="877" y="120" on="1"/>
        <pt x="974" y="120" on="1"/>
        <pt x="974" y="0" on="1"/>
        <pt x="660" y="0" on="1"/>
        <pt x="660" y="120" on="1"/>
        <pt x="747" y="120" on="1"/>
        <pt x="747" y="288" on="1"/>
        <pt x="479" y="288" on="1"/>
        <pt x="479" y="120" on="1"/>
        <pt x="566" y="120" on="1"/>
        <pt x="566" y="0" on="1"/>
        <pt x="252" y="0" on="1"/>
        <pt x="252" y="120" on="1"/>
        <pt x="349" y="120" on="1"/>
        <pt x="349" y="579" on="1"/>
        <pt x="199" y="575" on="0"/>
        <pt x="80" y="518" on="0"/>
        <pt x="80" y="402" on="0"/>
        <pt x="131" y="402" on="1"/>
        <pt x="178" y="402" on="0"/>
        <pt x="178" y="466" on="1"/>
        <pt x="303" y="466" on="1"/>
      </contour>
    </TTGlyph>
    <TTGlyph name="I" xMin="-45" yMin="0" xMax="576" yMax="700">
      <contour>
        <pt x="303" y="389" on="0"/>
        <pt x="221" y="282" on="0"/>
        <pt x="41" y="282" on="0"/>
        <pt x="-45" y="384" on="0"/>
        <pt x="-45" y="456" on="1"/>
        <pt x="-45" y="570" on="0"/>
        <pt x="169" y="700" on="0"/>
        <pt x="404" y="700" on="1"/>
        <pt x="576" y="700" on="1"/>
        <pt x="576" y="580" on="1"/>
        <pt x="479" y="580" on="1"/>
        <pt x="479" y="120" on="1"/>
        <pt x="576" y="120" on="1"/>
        <pt x="576" y="0" on="1"/>
        <pt x="261" y="0" on="1"/>
        <pt x="261" y="120" on="1"/>
        <pt x="349" y="120" on="1"/>
        <pt x="349" y="579" on="1"/>
        <pt x="199" y="575" on="0"/>
        <pt x="80" y="518" on="0"/>
        <pt x="80" y="402" on="0"/>
        <pt x="131" y="402" on="1"/>
        <pt x="178" y="402" on="0"/>
        <pt x="178" y="466" on="1"/>
        <pt x="303" y="466" on="1"/>
      </contour>
    </TTGlyph>
    <TTGlyph name="IJ" xMin="-45" yMin="-160" xMax="900" yMax="700">
      <contour>
        <pt x="303" y="389" on="0"/>
        <pt x="221" y="282" on="0"/>
        <pt x="41" y="282" on="0"/>
        <pt x="-45" y="384" on="0"/>
        <pt x="-45" y="456" on="1"/>
        <pt x="-45" y="570" on="0"/>
        <pt x="162" y="700" on="0"/>
        <pt x="389" y="700" on="1"/>
        <pt x="900" y="700" on="1"/>
        <pt x="900" y="580" on="1"/>
        <pt x="803" y="580" on="1"/>
        <pt x="803" y="100" on="1"/>
        <pt x="803" y="-21" on="0"/>
        <pt x="671" y="-160" on="0"/>
        <pt x="544" y="-160" on="1"/>
        <pt x="544" y="-45" on="1"/>
        <pt x="606" y="-45" on="0"/>
        <pt x="673" y="31" on="0"/>
        <pt x="673" y="100" on="1"/>
        <pt x="673" y="580" on="1"/>
        <pt x="464" y="580" on="1"/>
        <pt x="464" y="120" on="1"/>
        <pt x="561" y="120" on="1"/>
        <pt x="561" y="0" on="1"/>
        <pt x="246" y="0" on="1"/>
        <pt x="246" y="120" on="1"/>
        <pt x="334" y="120" on="1"/>
        <pt x="334" y="579" on="1"/>
        <pt x="192" y="575" on="0"/>
        <pt x="80" y="518" on="0"/>
        <pt x="80" y="402" on="0"/>
        <pt x="131" y="402" on="1"/>
        <pt x="178" y="402" on="0"/>
        <pt x="178" y="466" on="1"/>
        <pt x="303" y="466" on="1"/>
      </contour>
    </TTGlyph>
    <TTGlyph name="Iacute" xMin="-45" yMin="0" xMax="561" yMax="993">
      <contour>
        <pt x="303" y="389" on="0"/>
        <pt x="221" y="282" on="0"/>
        <pt x="41" y="282" on="0"/>
        <pt x="-45" y="384" on="0"/>
        <pt x="-45" y="456" on="1"/>
        <pt x="-45" y="570" on="0"/>
        <pt x="162" y="700" on="0"/>
        <pt x="389" y="700" on="1"/>
        <pt x="561" y="700" on="1"/>
        <pt x="561" y="580" on="1"/>
        <pt x="464" y="580" on="1"/>
        <pt x="464" y="120" on="1"/>
        <pt x="561" y="120" on="1"/>
        <pt x="561" y="0" on="1"/>
        <pt x="246" y="0" on="1"/>
        <pt x="246" y="120" on="1"/>
        <pt x="334" y="120" on="1"/>
        <pt x="334" y="579" on="1"/>
        <pt x="192" y="575" on="0"/>
        <pt x="80" y="518" on="0"/>
        <pt x="80" y="402" on="0"/>
        <pt x="131" y="402" on="1"/>
        <pt x="178" y="402" on="0"/>
        <pt x="178" y="466" on="1"/>
        <pt x="303" y="466" on="1"/>
      </contour>
      <contour>
        <pt x="532" y="918" on="1"/>
        <pt x="404" y="760" on="1"/>
        <pt x="320" y="810" on="1"/>
        <pt x="421" y="993" on="1"/>
      </contour>
    </TTGlyph>
    <TTGlyph name="Icircumflex" xMin="-45" yMin="0" xMax="575" yMax="947">
      <contour>
        <pt x="303" y="389" on="0"/>
        <pt x="221" y="282" on="0"/>
        <pt x="41" y="282" on="0"/>
        <pt x="-45" y="384" on="0"/>
        <pt x="-45" y="456" on="1"/>
        <pt x="-45" y="570" on="0"/>
        <pt x="162" y="700" on="0"/>
        <pt x="389" y="700" on="1"/>
        <pt x="561" y="700" on="1"/>
        <pt x="561" y="580" on="1"/>
        <pt x="464" y="580" on="1"/>
        <pt x="464" y="120" on="1"/>
        <pt x="561" y="120" on="1"/>
        <pt x="561" y="0" on="1"/>
        <pt x="246" y="0" on="1"/>
        <pt x="246" y="120" on="1"/>
        <pt x="334" y="120" on="1"/>
        <pt x="334" y="579" on="1"/>
        <pt x="192" y="575" on="0"/>
        <pt x="80" y="518" on="0"/>
        <pt x="80" y="402" on="0"/>
        <pt x="131" y="402" on="1"/>
        <pt x="178" y="402" on="0"/>
        <pt x="178" y="466" on="1"/>
        <pt x="303" y="466" on="1"/>
      </contour>
      <contour>
        <pt x="233" y="800" on="1"/>
        <pt x="363" y="947" on="1"/>
        <pt x="445" y="947" on="1"/>
        <pt x="575" y="800" on="1"/>
        <pt x="513" y="750" on="1"/>
        <pt x="404" y="840" on="1"/>
        <pt x="295" y="750" on="1"/>
      </contour>
    </TTGlyph>
    <TTGlyph name="Idieresis" xMin="-45" yMin="0" xMax="569" yMax="945">
      <contour>
        <pt x="303" y="389" on="0"/>
        <pt x="221" y="282" on="0"/>
        <pt x="41" y="282" on="0"/>
        <pt x="-45" y="384" on="0"/>
        <pt x="-45" y="456" on="1"/>
        <pt x="-45" y="570" on="0"/>
        <pt x="162" y="700" on="0"/>
        <pt x="389" y="700" on="1"/>
        <pt x="561" y="700" on="1"/>
        <pt x="561" y="580" on="1"/>
        <pt x="464" y="580" on="1"/>
        <pt x="464" y="120" on="1"/>
        <pt x="561" y="120" on="1"/>
        <pt x="561" y="0" on="1"/>
        <pt x="246" y="0" on="1"/>
        <pt x="246" y="120" on="1"/>
        <pt x="334" y="120" on="1"/>
        <pt x="334" y="579" on="1"/>
        <pt x="192" y="575" on="0"/>
        <pt x="80" y="518" on="0"/>
        <pt x="80" y="402" on="0"/>
        <pt x="131" y="402" on="1"/>
        <pt x="178" y="402" on="0"/>
        <pt x="178" y="466" on="1"/>
        <pt x="303" y="466" on="1"/>
      </contour>
      <contour>
        <pt x="246" y="798" on="0"/>
        <pt x="209" y="839" on="0"/>
        <pt x="209" y="901" on="0"/>
        <pt x="250" y="945" on="0"/>
        <pt x="309" y="945" on="0"/>
        <pt x="346" y="903" on="0"/>
        <pt x="346" y="842" on="0"/>
        <pt x="305" y="798" on="0"/>
      </contour>
      <contour>
        <pt x="469" y="798" on="0"/>
        <pt x="432" y="839" on="0"/>
        <pt x="432" y="901" on="0"/>
        <pt x="473" y="945" on="0"/>
        <pt x="532" y="945" on="0"/>
        <pt x="569" y="903" on="0"/>
        <pt x="569" y="842" on="0"/>
        <pt x="528" y="798" on="0"/>
      </contour>
    </TTGlyph>
    <TTGlyph name="Igrave" xMin="-45" yMin="0" xMax="561" yMax="993">
      <contour>
        <pt x="303" y="389" on="0"/>
        <pt x="221" y="282" on="0"/>
        <pt x="41" y="282" on="0"/>
        <pt x="-45" y="384" on="0"/>
        <pt x="-45" y="456" on="1"/>
        <pt x="-45" y="570" on="0"/>
        <pt x="162" y="700" on="0"/>
        <pt x="389" y="700" on="1"/>
        <pt x="561" y="700" on="1"/>
        <pt x="561" y="580" on="1"/>
        <pt x="464" y="580" on="1"/>
        <pt x="464" y="120" on="1"/>
        <pt x="561" y="120" on="1"/>
        <pt x="561" y="0" on="1"/>
        <pt x="246" y="0" on="1"/>
        <pt x="246" y="120" on="1"/>
        <pt x="334" y="120" on="1"/>
        <pt x="334" y="579" on="1"/>
        <pt x="192" y="575" on="0"/>
        <pt x="80" y="518" on="0"/>
        <pt x="80" y="402" on="0"/>
        <pt x="131" y="402" on="1"/>
        <pt x="178" y="402" on="0"/>
        <pt x="178" y="466" on="1"/>
        <pt x="303" y="466" on="1"/>
      </contour>
      <contour>
        <pt x="386" y="760" on="1"/>
        <pt x="258" y="918" on="1"/>
        <pt x="369" y="993" on="1"/>
        <pt x="470" y="810" on="1"/>
      </contour>
    </TTGlyph>
    <TTGlyph name="Itilde" xMin="-45" yMin="0" xMax="575" yMax="910">
      <contour>
        <pt x="303" y="389" on="0"/>
        <pt x="221" y="282" on="0"/>
        <pt x="41" y="282" on="0"/>
        <pt x="-45" y="384" on="0"/>
        <pt x="-45" y="456" on="1"/>
        <pt x="-45" y="570" on="0"/>
        <pt x="162" y="700" on="0"/>
        <pt x="389" y="700" on="1"/>
        <pt x="561" y="700" on="1"/>
        <pt x="561" y="580" on="1"/>
        <pt x="464" y="580" on="1"/>
        <pt x="464" y="120" on="1"/>
        <pt x="561" y="120" on="1"/>
        <pt x="561" y="0" on="1"/>
        <pt x="246" y="0" on="1"/>
        <pt x="246" y="120" on="1"/>
        <pt x="334" y="120" on="1"/>
        <pt x="334" y="579" on="1"/>
        <pt x="192" y="575" on="0"/>
        <pt x="80" y="518" on="0"/>
        <pt x="80" y="402" on="0"/>
        <pt x="131" y="402" on="1"/>
        <pt x="178" y="402" on="0"/>
        <pt x="178" y="466" on="1"/>
        <pt x="303" y="466" on="1"/>
      </contour>
      <contour>
        <pt x="457" y="868" on="1"/>
        <pt x="520" y="910" on="1"/>
        <pt x="575" y="867" on="1"/>
        <pt x="557" y="819" on="0"/>
        <pt x="498" y="762" on="0"/>
        <pt x="429" y="762" on="0"/>
        <pt x="340" y="799" on="1"/>
        <pt x="277" y="757" on="1"/>
        <pt x="222" y="800" on="1"/>
        <pt x="240" y="848" on="0"/>
        <pt x="299" y="905" on="0"/>
        <pt x="337" y="905" on="1"/>
        <pt x="353" y="905" on="0"/>
        <pt x="372" y="899" on="0"/>
        <pt x="383" y="896" on="0"/>
        <pt x="406" y="888" on="0"/>
        <pt x="412" y="886" on="1"/>
        <pt x="427" y="879" on="0"/>
      </contour>
    </TTGlyph>
    <TTGlyph name="J" xMin="-45" yMin="-160" xMax="576" yMax="700">
      <contour>
        <pt x="479" y="580" on="1"/>
        <pt x="479" y="100" on="1"/>
        <pt x="479" y="-21" on="0"/>
        <pt x="347" y="-160" on="0"/>
        <pt x="220" y="-160" on="1"/>
        <pt x="220" y="-45" on="1"/>
        <pt x="282" y="-45" on="0"/>
        <pt x="349" y="31" on="0"/>
        <pt x="349" y="100" on="1"/>
        <pt x="349" y="579" on="1"/>
        <pt x="199" y="575" on="0"/>
        <pt x="80" y="518" on="0"/>
        <pt x="80" y="402" on="0"/>
        <pt x="131" y="402" on="1"/>
        <pt x="178" y="402" on="0"/>
        <pt x="178" y="466" on="1"/>
        <pt x="303" y="466" on="1"/>
        <pt x="303" y="389" on="0"/>
        <pt x="221" y="282" on="0"/>
        <pt x="41" y="282" on="0"/>
        <pt x="-45" y="384" on="0"/>
        <pt x="-45" y="456" on="1"/>
        <pt x="-45" y="570" on="0"/>
        <pt x="169" y="700" on="0"/>
        <pt x="404" y="700" on="1"/>
        <pt x="576" y="700" on="1"/>
        <pt x="576" y="580" on="1"/>
      </contour>
    </TTGlyph>
    <TTGlyph name="Jcircumflex" xMin="-45" yMin="-160" xMax="586" yMax="942">
      <contour>
        <pt x="464" y="580" on="1"/>
        <pt x="464" y="100" on="1"/>
        <pt x="464" y="-21" on="0"/>
        <pt x="332" y="-160" on="0"/>
        <pt x="205" y="-160" on="1"/>
        <pt x="205" y="-45" on="1"/>
        <pt x="267" y="-45" on="0"/>
        <pt x="334" y="31" on="0"/>
        <pt x="334" y="100" on="1"/>
        <pt x="334" y="579" on="1"/>
        <pt x="192" y="575" on="0"/>
        <pt x="80" y="518" on="0"/>
        <pt x="80" y="402" on="0"/>
        <pt x="131" y="402" on="1"/>
        <pt x="178" y="402" on="0"/>
        <pt x="178" y="466" on="1"/>
        <pt x="303" y="466" on="1"/>
        <pt x="303" y="389" on="0"/>
        <pt x="221" y="282" on="0"/>
        <pt x="41" y="282" on="0"/>
        <pt x="-45" y="384" on="0"/>
        <pt x="-45" y="456" on="1"/>
        <pt x="-45" y="570" on="0"/>
        <pt x="162" y="700" on="0"/>
        <pt x="389" y="700" on="1"/>
        <pt x="561" y="700" on="1"/>
        <pt x="561" y="580" on="1"/>
      </contour>
      <contour>
        <pt x="244" y="795" on="1"/>
        <pt x="374" y="942" on="1"/>
        <pt x="456" y="942" on="1"/>
        <pt x="586" y="795" on="1"/>
        <pt x="524" y="745" on="1"/>
        <pt x="415" y="835" on="1"/>
        <pt x="306" y="745" on="1"/>
      </contour>
    </TTGlyph>
    <TTGlyph name="K" xMin="-45" yMin="-11" xMax="969" yMax="700">
      <contour>
        <pt x="303" y="389" on="0"/>
        <pt x="221" y="282" on="0"/>
        <pt x="41" y="282" on="0"/>
        <pt x="-45" y="384" on="0"/>
        <pt x="-45" y="456" on="1"/>
        <pt x="-45" y="570" on="0"/>
        <pt x="169" y="700" on="0"/>
        <pt x="404" y="700" on="1"/>
        <pt x="530" y="700" on="1"/>
        <pt x="530" y="580" on="1"/>
        <pt x="479" y="580" on="1"/>
        <pt x="479" y="400" on="1"/>
        <pt x="536" y="436" on="1"/>
        <pt x="654" y="580" on="1"/>
        <pt x="615" y="580" on="1"/>
        <pt x="615" y="700" on="1"/>
        <pt x="891" y="700" on="1"/>
        <pt x="891" y="580" on="1"/>
        <pt x="813" y="580" on="1"/>
        <pt x="631" y="367" on="1"/>
        <pt x="730" y="160" on="1"/>
        <pt x="759" y="109" on="0"/>
        <pt x="828" y="109" on="0"/>
        <pt x="849" y="138" on="0"/>
        <pt x="849" y="170" on="1"/>
        <pt x="969" y="170" on="1"/>
        <pt x="969" y="75" on="0"/>
        <pt x="885" y="-11" on="0"/>
        <pt x="805" y="-11" on="1"/>
        <pt x="686" y="-11" on="0"/>
        <pt x="617" y="111" on="1"/>
        <pt x="534" y="283" on="1"/>
        <pt x="479" y="260" on="1"/>
        <pt x="479" y="120" on="1"/>
        <pt x="546" y="120" on="1"/>
        <pt x="546" y="0" on="1"/>
        <pt x="252" y="0" on="1"/>
        <pt x="252" y="120" on="1"/>
        <pt x="349" y="120" on="1"/>
        <pt x="349" y="579" on="1"/>
        <pt x="199" y="575" on="0"/>
        <pt x="80" y="518" on="0"/>
        <pt x="80" y="402" on="0"/>
        <pt x="131" y="402" on="1"/>
        <pt x="178" y="402" on="0"/>
        <pt x="178" y="466" on="1"/>
        <pt x="303" y="466" on="1"/>
      </contour>
    </TTGlyph>
    <TTGlyph name="L" xMin="-45" yMin="0" xMax="813" yMax="700">
      <contour>
        <pt x="303" y="389" on="0"/>
        <pt x="221" y="282" on="0"/>
        <pt x="41" y="282" on="0"/>
        <pt x="-45" y="384" on="0"/>
        <pt x="-45" y="456" on="1"/>
        <pt x="-45" y="570" on="0"/>
        <pt x="169" y="700" on="0"/>
        <pt x="404" y="700" on="1"/>
        <pt x="551" y="700" on="1"/>
        <pt x="551" y="580" on="1"/>
        <pt x="479" y="580" on="1"/>
        <pt x="479" y="120" on="1"/>
        <pt x="698" y="120" on="1"/>
        <pt x="698" y="205" on="1"/>
        <pt x="813" y="205" on="1"/>
        <pt x="813" y="0" on="1"/>
        <pt x="252" y="0" on="1"/>
        <pt x="252" y="120" on="1"/>
        <pt x="349" y="120" on="1"/>
        <pt x="349" y="579" on="1"/>
        <pt x="199" y="575" on="0"/>
        <pt x="80" y="518" on="0"/>
        <pt x="80" y="402" on="0"/>
        <pt x="131" y="402" on="1"/>
        <pt x="178" y="402" on="0"/>
        <pt x="178" y="466" on="1"/>
        <pt x="303" y="466" on="1"/>
      </contour>
    </TTGlyph>
    <TTGlyph name="Lacute" xMin="-45" yMin="0" xMax="798" yMax="993">
      <contour>
        <pt x="303" y="389" on="0"/>
        <pt x="221" y="282" on="0"/>
        <pt x="41" y="282" on="0"/>
        <pt x="-45" y="384" on="0"/>
        <pt x="-45" y="456" on="1"/>
        <pt x="-45" y="570" on="0"/>
        <pt x="162" y="700" on="0"/>
        <pt x="389" y="700" on="1"/>
        <pt x="536" y="700" on="1"/>
        <pt x="536" y="580" on="1"/>
        <pt x="464" y="580" on="1"/>
        <pt x="464" y="120" on="1"/>
        <pt x="683" y="120" on="1"/>
        <pt x="683" y="205" on="1"/>
        <pt x="798" y="205" on="1"/>
        <pt x="798" y="0" on="1"/>
        <pt x="237" y="0" on="1"/>
        <pt x="237" y="120" on="1"/>
        <pt x="334" y="120" on="1"/>
        <pt x="334" y="579" on="1"/>
        <pt x="192" y="575" on="0"/>
        <pt x="80" y="518" on="0"/>
        <pt x="80" y="402" on="0"/>
        <pt x="131" y="402" on="1"/>
        <pt x="178" y="402" on="0"/>
        <pt x="178" y="466" on="1"/>
        <pt x="303" y="466" on="1"/>
      </contour>
      <contour>
        <pt x="524" y="918" on="1"/>
        <pt x="396" y="760" on="1"/>
        <pt x="312" y="810" on="1"/>
        <pt x="413" y="993" on="1"/>
      </contour>
    </TTGlyph>
    <TTGlyph name="Ldotaccent" xMin="-45" yMin="0" xMax="798" yMax="700">
      <contour>
        <pt x="569" y="298" on="0"/>
        <pt x="526" y="341" on="0"/>
        <pt x="526" y="402" on="0"/>
        <pt x="569" y="445" on="0"/>
        <pt x="630" y="445" on="0"/>
        <pt x="673" y="402" on="0"/>
        <pt x="673" y="341" on="0"/>
        <pt x="630" y="298" on="0"/>
      </contour>
      <contour>
        <pt x="303" y="389" on="0"/>
        <pt x="221" y="282" on="0"/>
        <pt x="41" y="282" on="0"/>
        <pt x="-45" y="384" on="0"/>
        <pt x="-45" y="456" on="1"/>
        <pt x="-45" y="570" on="0"/>
        <pt x="162" y="700" on="0"/>
        <pt x="389" y="700" on="1"/>
        <pt x="536" y="700" on="1"/>
        <pt x="536" y="580" on="1"/>
        <pt x="464" y="580" on="1"/>
        <pt x="464" y="120" on="1"/>
        <pt x="683" y="120" on="1"/>
        <pt x="683" y="205" on="1"/>
        <pt x="798" y="205" on="1"/>
        <pt x="798" y="0" on="1"/>
        <pt x="237" y="0" on="1"/>
        <pt x="237" y="120" on="1"/>
        <pt x="334" y="120" on="1"/>
        <pt x="334" y="579" on="1"/>
        <pt x="192" y="575" on="0"/>
        <pt x="80" y="518" on="0"/>
        <pt x="80" y="402" on="0"/>
        <pt x="131" y="402" on="1"/>
        <pt x="178" y="402" on="0"/>
        <pt x="178" y="466" on="1"/>
        <pt x="303" y="466" on="1"/>
      </contour>
    </TTGlyph>
    <TTGlyph name="Lslash" xMin="-45" yMin="0" xMax="798" yMax="700">
      <contour>
        <pt x="303" y="389" on="0"/>
        <pt x="221" y="282" on="0"/>
        <pt x="41" y="282" on="0"/>
        <pt x="-45" y="384" on="0"/>
        <pt x="-45" y="456" on="1"/>
        <pt x="-45" y="570" on="0"/>
        <pt x="162" y="700" on="0"/>
        <pt x="389" y="700" on="1"/>
        <pt x="536" y="700" on="1"/>
        <pt x="536" y="580" on="1"/>
        <pt x="464" y="580" on="1"/>
        <pt x="464" y="382" on="1"/>
        <pt x="549" y="417" on="1"/>
        <pt x="596" y="310" on="1"/>
        <pt x="464" y="255" on="1"/>
        <pt x="464" y="120" on="1"/>
        <pt x="683" y="120" on="1"/>
        <pt x="683" y="205" on="1"/>
        <pt x="798" y="205" on="1"/>
        <pt x="798" y="0" on="1"/>
        <pt x="237" y="0" on="1"/>
        <pt x="237" y="120" on="1"/>
        <pt x="334" y="120" on="1"/>
        <pt x="334" y="202" on="1"/>
        <pt x="278" y="179" on="1"/>
        <pt x="231" y="286" on="1"/>
        <pt x="334" y="328" on="1"/>
        <pt x="334" y="579" on="1"/>
        <pt x="192" y="575" on="0"/>
        <pt x="80" y="518" on="0"/>
        <pt x="80" y="402" on="0"/>
        <pt x="131" y="402" on="1"/>
        <pt x="178" y="402" on="0"/>
        <pt x="178" y="466" on="1"/>
        <pt x="303" y="466" on="1"/>
      </contour>
    </TTGlyph>
    <TTGlyph name="M" xMin="-45" yMin="0" xMax="1090" yMax="700">
      <contour>
        <pt x="303" y="389" on="0"/>
        <pt x="221" y="282" on="0"/>
        <pt x="41" y="282" on="0"/>
        <pt x="-45" y="384" on="0"/>
        <pt x="-45" y="456" on="1"/>
        <pt x="-45" y="570" on="0"/>
        <pt x="169" y="700" on="0"/>
        <pt x="404" y="700" on="1"/>
        <pt x="494" y="700" on="1"/>
        <pt x="671" y="269" on="1"/>
        <pt x="848" y="700" on="1"/>
        <pt x="1090" y="700" on="1"/>
        <pt x="1090" y="580" on="1"/>
        <pt x="993" y="580" on="1"/>
        <pt x="993" y="105" on="1"/>
        <pt x="1090" y="105" on="1"/>
        <pt x="1090" y="0" on="1"/>
        <pt x="791" y="0" on="1"/>
        <pt x="791" y="105" on="1"/>
        <pt x="863" y="105" on="1"/>
        <pt x="863" y="421" on="1"/>
        <pt x="721" y="60" on="1"/>
        <pt x="621" y="60" on="1"/>
        <pt x="479" y="421" on="1"/>
        <pt x="479" y="105" on="1"/>
        <pt x="551" y="105" on="1"/>
        <pt x="551" y="0" on="1"/>
        <pt x="252" y="0" on="1"/>
        <pt x="252" y="105" on="1"/>
        <pt x="349" y="105" on="1"/>
        <pt x="349" y="579" on="1"/>
        <pt x="199" y="575" on="0"/>
        <pt x="80" y="518" on="0"/>
        <pt x="80" y="402" on="0"/>
        <pt x="131" y="402" on="1"/>
        <pt x="178" y="402" on="0"/>
        <pt x="178" y="466" on="1"/>
        <pt x="303" y="466" on="1"/>
      </contour>
    </TTGlyph>
    <TTGlyph name="N" xMin="-45" yMin="0" xMax="999" yMax="700">
      <contour>
        <pt x="303" y="389" on="0"/>
        <pt x="221" y="282" on="0"/>
        <pt x="41" y="282" on="0"/>
        <pt x="-45" y="384" on="0"/>
        <pt x="-45" y="456" on="1"/>
        <pt x="-45" y="570" on="0"/>
        <pt x="169" y="700" on="0"/>
        <pt x="404" y="700" on="1"/>
        <pt x="481" y="700" on="1"/>
        <pt x="772" y="233" on="1"/>
        <pt x="772" y="580" on="1"/>
        <pt x="685" y="580" on="1"/>
        <pt x="685" y="700" on="1"/>
        <pt x="999" y="700" on="1"/>
        <pt x="999" y="580" on="1"/>
        <pt x="902" y="580" on="1"/>
        <pt x="902" y="0" on="1"/>
        <pt x="779" y="0" on="1"/>
        <pt x="479" y="479" on="1"/>
        <pt x="479" y="120" on="1"/>
        <pt x="566" y="120" on="1"/>
        <pt x="566" y="0" on="1"/>
        <pt x="252" y="0" on="1"/>
        <pt x="252" y="120" on="1"/>
        <pt x="349" y="120" on="1"/>
        <pt x="349" y="579" on="1"/>
        <pt x="199" y="575" on="0"/>
        <pt x="80" y="518" on="0"/>
        <pt x="80" y="402" on="0"/>
        <pt x="131" y="402" on="1"/>
        <pt x="178" y="402" on="0"/>
        <pt x="178" y="466" on="1"/>
        <pt x="303" y="466" on="1"/>
      </contour>
    </TTGlyph>
    <TTGlyph name="Nacute" xMin="-45" yMin="0" xMax="984" yMax="993">
      <contour>
        <pt x="303" y="389" on="0"/>
        <pt x="221" y="282" on="0"/>
        <pt x="41" y="282" on="0"/>
        <pt x="-45" y="384" on="0"/>
        <pt x="-45" y="456" on="1"/>
        <pt x="-45" y="570" on="0"/>
        <pt x="162" y="700" on="0"/>
        <pt x="389" y="700" on="1"/>
        <pt x="466" y="700" on="1"/>
        <pt x="757" y="233" on="1"/>
        <pt x="757" y="580" on="1"/>
        <pt x="670" y="580" on="1"/>
        <pt x="670" y="700" on="1"/>
        <pt x="984" y="700" on="1"/>
        <pt x="984" y="580" on="1"/>
        <pt x="887" y="580" on="1"/>
        <pt x="887" y="0" on="1"/>
        <pt x="764" y="0" on="1"/>
        <pt x="464" y="479" on="1"/>
        <pt x="464" y="120" on="1"/>
        <pt x="551" y="120" on="1"/>
        <pt x="551" y="0" on="1"/>
        <pt x="237" y="0" on="1"/>
        <pt x="237" y="120" on="1"/>
        <pt x="334" y="120" on="1"/>
        <pt x="334" y="579" on="1"/>
        <pt x="192" y="575" on="0"/>
        <pt x="80" y="518" on="0"/>
        <pt x="80" y="402" on="0"/>
        <pt x="131" y="402" on="1"/>
        <pt x="178" y="402" on="0"/>
        <pt x="178" y="466" on="1"/>
        <pt x="303" y="466" on="1"/>
      </contour>
      <contour>
        <pt x="720" y="918" on="1"/>
        <pt x="592" y="760" on="1"/>
        <pt x="508" y="810" on="1"/>
        <pt x="609" y="993" on="1"/>
      </contour>
    </TTGlyph>
    <TTGlyph name="Ncaron" xMin="-45" yMin="0" xMax="984" yMax="947">
      <contour>
        <pt x="303" y="389" on="0"/>
        <pt x="221" y="282" on="0"/>
        <pt x="41" y="282" on="0"/>
        <pt x="-45" y="384" on="0"/>
        <pt x="-45" y="456" on="1"/>
        <pt x="-45" y="570" on="0"/>
        <pt x="162" y="700" on="0"/>
        <pt x="389" y="700" on="1"/>
        <pt x="466" y="700" on="1"/>
        <pt x="757" y="233" on="1"/>
        <pt x="757" y="580" on="1"/>
        <pt x="670" y="580" on="1"/>
        <pt x="670" y="700" on="1"/>
        <pt x="984" y="700" on="1"/>
        <pt x="984" y="580" on="1"/>
        <pt x="887" y="580" on="1"/>
        <pt x="887" y="0" on="1"/>
        <pt x="764" y="0" on="1"/>
        <pt x="464" y="479" on="1"/>
        <pt x="464" y="120" on="1"/>
        <pt x="551" y="120" on="1"/>
        <pt x="551" y="0" on="1"/>
        <pt x="237" y="0" on="1"/>
        <pt x="237" y="120" on="1"/>
        <pt x="334" y="120" on="1"/>
        <pt x="334" y="579" on="1"/>
        <pt x="192" y="575" on="0"/>
        <pt x="80" y="518" on="0"/>
        <pt x="80" y="402" on="0"/>
        <pt x="131" y="402" on="1"/>
        <pt x="178" y="402" on="0"/>
        <pt x="178" y="466" on="1"/>
        <pt x="303" y="466" on="1"/>
      </contour>
      <contour>
        <pt x="564" y="750" on="1"/>
        <pt x="434" y="897" on="1"/>
        <pt x="496" y="947" on="1"/>
        <pt x="605" y="857" on="1"/>
        <pt x="714" y="947" on="1"/>
        <pt x="776" y="897" on="1"/>
        <pt x="646" y="750" on="1"/>
      </contour>
    </TTGlyph>
    <TTGlyph name="Ntilde" xMin="-45" yMin="0" xMax="984" yMax="910">
      <contour>
        <pt x="303" y="389" on="0"/>
        <pt x="221" y="282" on="0"/>
        <pt x="41" y="282" on="0"/>
        <pt x="-45" y="384" on="0"/>
        <pt x="-45" y="456" on="1"/>
        <pt x="-45" y="570" on="0"/>
        <pt x="162" y="700" on="0"/>
        <pt x="389" y="700" on="1"/>
        <pt x="466" y="700" on="1"/>
        <pt x="757" y="233" on="1"/>
        <pt x="757" y="580" on="1"/>
        <pt x="670" y="580" on="1"/>
        <pt x="670" y="700" on="1"/>
        <pt x="984" y="700" on="1"/>
        <pt x="984" y="580" on="1"/>
        <pt x="887" y="580" on="1"/>
        <pt x="887" y="0" on="1"/>
        <pt x="764" y="0" on="1"/>
        <pt x="464" y="479" on="1"/>
        <pt x="464" y="120" on="1"/>
        <pt x="551" y="120" on="1"/>
        <pt x="551" y="0" on="1"/>
        <pt x="237" y="0" on="1"/>
        <pt x="237" y="120" on="1"/>
        <pt x="334" y="120" on="1"/>
        <pt x="334" y="579" on="1"/>
        <pt x="192" y="575" on="0"/>
        <pt x="80" y="518" on="0"/>
        <pt x="80" y="402" on="0"/>
        <pt x="131" y="402" on="1"/>
        <pt x="178" y="402" on="0"/>
        <pt x="178" y="466" on="1"/>
        <pt x="303" y="466" on="1"/>
      </contour>
      <contour>
        <pt x="653" y="868" on="1"/>
        <pt x="716" y="910" on="1"/>
        <pt x="771" y="867" on="1"/>
        <pt x="753" y="819" on="0"/>
        <pt x="694" y="762" on="0"/>
        <pt x="625" y="762" on="0"/>
        <pt x="536" y="799" on="1"/>
        <pt x="473" y="757" on="1"/>
        <pt x="418" y="800" on="1"/>
        <pt x="436" y="848" on="0"/>
        <pt x="495" y="905" on="0"/>
        <pt x="533" y="905" on="1"/>
        <pt x="549" y="905" on="0"/>
        <pt x="568" y="899" on="0"/>
        <pt x="579" y="896" on="0"/>
        <pt x="602" y="888" on="0"/>
        <pt x="608" y="886" on="1"/>
        <pt x="623" y="879" on="0"/>
      </contour>
    </TTGlyph>
    <TTGlyph name="O" xMin="35" yMin="-10" xMax="705" yMax="710">
      <contour>
        <pt x="35" y="193" on="0"/>
        <pt x="35" y="507" on="0"/>
        <pt x="217" y="710" on="0"/>
        <pt x="524" y="710" on="0"/>
        <pt x="705" y="509" on="0"/>
        <pt x="705" y="193" on="0"/>
        <pt x="525" y="-10" on="0"/>
        <pt x="215" y="-10" on="0"/>
      </contour>
      <contour>
        <pt x="303" y="321" on="1"/>
        <pt x="262" y="321" on="0"/>
        <pt x="192" y="373" on="0"/>
        <pt x="175" y="404" on="1"/>
        <pt x="170" y="392" on="0"/>
        <pt x="170" y="350" on="1"/>
        <pt x="170" y="246" on="0"/>
        <pt x="279" y="110" on="0"/>
        <pt x="461" y="110" on="0"/>
        <pt x="570" y="246" on="0"/>
        <pt x="570" y="452" on="0"/>
        <pt x="461" y="585" on="0"/>
        <pt x="370" y="585" on="1"/>
        <pt x="330" y="585" on="0"/>
        <pt x="268" y="535" on="0"/>
        <pt x="268" y="495" on="1"/>
        <pt x="268" y="441" on="0"/>
        <pt x="304" y="441" on="1"/>
        <pt x="351" y="441" on="0"/>
        <pt x="351" y="505" on="1"/>
        <pt x="476" y="505" on="1"/>
        <pt x="476" y="427" on="0"/>
        <pt x="394" y="321" on="0"/>
      </contour>
    </TTGlyph>
    <TTGlyph name="OE" xMin="-45" yMin="-10" xMax="964" yMax="710">
      <contour>
        <pt x="490" y="50" on="1"/>
        <pt x="408" y="-10" on="0"/>
        <pt x="290" y="-10" on="1"/>
        <pt x="135" y="-10" on="0"/>
        <pt x="-45" y="193" on="0"/>
        <pt x="-45" y="507" on="0"/>
        <pt x="137" y="710" on="0"/>
        <pt x="290" y="710" on="1"/>
        <pt x="407" y="710" on="0"/>
        <pt x="490" y="649" on="1"/>
        <pt x="490" y="700" on="1"/>
        <pt x="955" y="700" on="1"/>
        <pt x="955" y="495" on="1"/>
        <pt x="840" y="495" on="1"/>
        <pt x="840" y="580" on="1"/>
        <pt x="620" y="580" on="1"/>
        <pt x="620" y="419" on="1"/>
        <pt x="622" y="406" on="1"/>
        <pt x="698" y="406" on="1"/>
        <pt x="698" y="466" on="1"/>
        <pt x="813" y="466" on="1"/>
        <pt x="813" y="226" on="1"/>
        <pt x="698" y="226" on="1"/>
        <pt x="698" y="286" on="1"/>
        <pt x="621" y="286" on="1"/>
        <pt x="620" y="284" on="0"/>
        <pt x="620" y="280" on="1"/>
        <pt x="620" y="120" on="1"/>
        <pt x="849" y="120" on="1"/>
        <pt x="849" y="205" on="1"/>
        <pt x="964" y="205" on="1"/>
        <pt x="964" y="0" on="1"/>
        <pt x="490" y="0" on="1"/>
      </contour>
      <contour>
        <pt x="223" y="321" on="1"/>
        <pt x="182" y="321" on="0"/>
        <pt x="112" y="373" on="0"/>
        <pt x="95" y="404" on="1"/>
        <pt x="90" y="392" on="0"/>
        <pt x="90" y="350" on="1"/>
        <pt x="90" y="246" on="0"/>
        <pt x="199" y="110" on="0"/>
        <pt x="381" y="110" on="0"/>
        <pt x="490" y="246" on="0"/>
        <pt x="490" y="350" on="1"/>
        <pt x="490" y="362" on="1"/>
        <pt x="489" y="404" on="0"/>
        <pt x="476" y="443" on="1"/>
        <pt x="454" y="508" on="0"/>
        <pt x="357" y="585" on="0"/>
        <pt x="290" y="585" on="1"/>
        <pt x="250" y="585" on="0"/>
        <pt x="188" y="535" on="0"/>
        <pt x="188" y="495" on="1"/>
        <pt x="188" y="441" on="0"/>
        <pt x="224" y="441" on="1"/>
        <pt x="271" y="441" on="0"/>
        <pt x="271" y="505" on="1"/>
        <pt x="396" y="505" on="1"/>
        <pt x="396" y="427" on="0"/>
        <pt x="314" y="321" on="0"/>
      </contour>
    </TTGlyph>
    <TTGlyph name="Oacute" xMin="35" yMin="-10" xMax="705" yMax="993">
      <contour>
        <pt x="35" y="193" on="0"/>
        <pt x="35" y="507" on="0"/>
        <pt x="217" y="710" on="0"/>
        <pt x="524" y="710" on="0"/>
        <pt x="705" y="509" on="0"/>
        <pt x="705" y="193" on="0"/>
        <pt x="525" y="-10" on="0"/>
        <pt x="215" y="-10" on="0"/>
      </contour>
      <contour>
        <pt x="303" y="321" on="1"/>
        <pt x="261" y="321" on="0"/>
        <pt x="194" y="372" on="0"/>
        <pt x="175" y="404" on="1"/>
        <pt x="170" y="386" on="0"/>
        <pt x="170" y="350" on="1"/>
        <pt x="170" y="246" on="0"/>
        <pt x="279" y="110" on="0"/>
        <pt x="461" y="110" on="0"/>
        <pt x="570" y="246" on="0"/>
        <pt x="570" y="452" on="0"/>
        <pt x="461" y="585" on="0"/>
        <pt x="370" y="585" on="1"/>
        <pt x="330" y="585" on="0"/>
        <pt x="268" y="535" on="0"/>
        <pt x="268" y="495" on="1"/>
        <pt x="268" y="441" on="0"/>
        <pt x="304" y="441" on="1"/>
        <pt x="351" y="441" on="0"/>
        <pt x="351" y="505" on="1"/>
        <pt x="476" y="505" on="1"/>
        <pt x="476" y="428" on="0"/>
        <pt x="394" y="321" on="0"/>
      </contour>
      <contour>
        <pt x="523" y="918" on="1"/>
        <pt x="395" y="760" on="1"/>
        <pt x="311" y="810" on="1"/>
        <pt x="412" y="993" on="1"/>
      </contour>
    </TTGlyph>
    <TTGlyph name="Ocircumflex" xMin="35" yMin="-10" xMax="705" yMax="947">
      <contour>
        <pt x="35" y="193" on="0"/>
        <pt x="35" y="507" on="0"/>
        <pt x="217" y="710" on="0"/>
        <pt x="524" y="710" on="0"/>
        <pt x="705" y="509" on="0"/>
        <pt x="705" y="193" on="0"/>
        <pt x="525" y="-10" on="0"/>
        <pt x="215" y="-10" on="0"/>
      </contour>
      <contour>
        <pt x="303" y="321" on="1"/>
        <pt x="261" y="321" on="0"/>
        <pt x="194" y="372" on="0"/>
        <pt x="175" y="404" on="1"/>
        <pt x="170" y="386" on="0"/>
        <pt x="170" y="350" on="1"/>
        <pt x="170" y="246" on="0"/>
        <pt x="279" y="110" on="0"/>
        <pt x="461" y="110" on="0"/>
        <pt x="570" y="246" on="0"/>
        <pt x="570" y="452" on="0"/>
        <pt x="461" y="585" on="0"/>
        <pt x="370" y="585" on="1"/>
        <pt x="330" y="585" on="0"/>
        <pt x="268" y="535" on="0"/>
        <pt x="268" y="495" on="1"/>
        <pt x="268" y="441" on="0"/>
        <pt x="304" y="441" on="1"/>
        <pt x="351" y="441" on="0"/>
        <pt x="351" y="505" on="1"/>
        <pt x="476" y="505" on="1"/>
        <pt x="476" y="428" on="0"/>
        <pt x="394" y="321" on="0"/>
      </contour>
      <contour>
        <pt x="192" y="800" on="1"/>
        <pt x="322" y="947" on="1"/>
        <pt x="404" y="947" on="1"/>
        <pt x="534" y="800" on="1"/>
        <pt x="472" y="750" on="1"/>
        <pt x="363" y="840" on="1"/>
        <pt x="254" y="750" on="1"/>
      </contour>
    </TTGlyph>
    <TTGlyph name="Odieresis" xMin="35" yMin="-10" xMax="705" yMax="945">
      <contour>
        <pt x="35" y="193" on="0"/>
        <pt x="35" y="507" on="0"/>
        <pt x="217" y="710" on="0"/>
        <pt x="524" y="710" on="0"/>
        <pt x="705" y="509" on="0"/>
        <pt x="705" y="193" on="0"/>
        <pt x="525" y="-10" on="0"/>
        <pt x="215" y="-10" on="0"/>
      </contour>
      <contour>
        <pt x="303" y="321" on="1"/>
        <pt x="261" y="321" on="0"/>
        <pt x="194" y="372" on="0"/>
        <pt x="175" y="404" on="1"/>
        <pt x="170" y="386" on="0"/>
        <pt x="170" y="350" on="1"/>
        <pt x="170" y="246" on="0"/>
        <pt x="279" y="110" on="0"/>
        <pt x="461" y="110" on="0"/>
        <pt x="570" y="246" on="0"/>
        <pt x="570" y="452" on="0"/>
        <pt x="461" y="585" on="0"/>
        <pt x="370" y="585" on="1"/>
        <pt x="330" y="585" on="0"/>
        <pt x="268" y="535" on="0"/>
        <pt x="268" y="495" on="1"/>
        <pt x="268" y="441" on="0"/>
        <pt x="304" y="441" on="1"/>
        <pt x="351" y="441" on="0"/>
        <pt x="351" y="505" on="1"/>
        <pt x="476" y="505" on="1"/>
        <pt x="476" y="428" on="0"/>
        <pt x="394" y="321" on="0"/>
      </contour>
      <contour>
        <pt x="248" y="798" on="0"/>
        <pt x="211" y="839" on="0"/>
        <pt x="211" y="901" on="0"/>
        <pt x="252" y="945" on="0"/>
        <pt x="311" y="945" on="0"/>
        <pt x="348" y="903" on="0"/>
        <pt x="348" y="842" on="0"/>
        <pt x="307" y="798" on="0"/>
      </contour>
      <contour>
        <pt x="471" y="798" on="0"/>
        <pt x="434" y="839" on="0"/>
        <pt x="434" y="901" on="0"/>
        <pt x="475" y="945" on="0"/>
        <pt x="534" y="945" on="0"/>
        <pt x="571" y="903" on="0"/>
        <pt x="571" y="842" on="0"/>
        <pt x="530" y="798" on="0"/>
      </contour>
    </TTGlyph>
    <TTGlyph name="Ograve" xMin="35" yMin="-10" xMax="705" yMax="993">
      <contour>
        <pt x="35" y="193" on="0"/>
        <pt x="35" y="507" on="0"/>
        <pt x="217" y="710" on="0"/>
        <pt x="524" y="710" on="0"/>
        <pt x="705" y="509" on="0"/>
        <pt x="705" y="193" on="0"/>
        <pt x="525" y="-10" on="0"/>
        <pt x="215" y="-10" on="0"/>
      </contour>
      <contour>
        <pt x="303" y="321" on="1"/>
        <pt x="261" y="321" on="0"/>
        <pt x="194" y="372" on="0"/>
        <pt x="175" y="404" on="1"/>
        <pt x="170" y="386" on="0"/>
        <pt x="170" y="350" on="1"/>
        <pt x="170" y="246" on="0"/>
        <pt x="279" y="110" on="0"/>
        <pt x="461" y="110" on="0"/>
        <pt x="570" y="246" on="0"/>
        <pt x="570" y="452" on="0"/>
        <pt x="461" y="585" on="0"/>
        <pt x="370" y="585" on="1"/>
        <pt x="330" y="585" on="0"/>
        <pt x="268" y="535" on="0"/>
        <pt x="268" y="495" on="1"/>
        <pt x="268" y="441" on="0"/>
        <pt x="304" y="441" on="1"/>
        <pt x="351" y="441" on="0"/>
        <pt x="351" y="505" on="1"/>
        <pt x="476" y="505" on="1"/>
        <pt x="476" y="428" on="0"/>
        <pt x="394" y="321" on="0"/>
      </contour>
      <contour>
        <pt x="381" y="760" on="1"/>
        <pt x="253" y="918" on="1"/>
        <pt x="364" y="993" on="1"/>
        <pt x="465" y="810" on="1"/>
      </contour>
    </TTGlyph>
    <TTGlyph name="Oslash" xMin="35" yMin="-30" xMax="705" yMax="710">
      <contour>
        <pt x="35" y="350" on="1"/>
        <pt x="35" y="507" on="0"/>
        <pt x="217" y="710" on="0"/>
        <pt x="524" y="710" on="0"/>
        <pt x="705" y="509" on="0"/>
        <pt x="705" y="193" on="0"/>
        <pt x="525" y="-10" on="0"/>
        <pt x="370" y="-10" on="1"/>
        <pt x="323" y="-10" on="0"/>
        <pt x="272" y="2" on="1"/>
        <pt x="259" y="-30" on="1"/>
        <pt x="139" y="-30" on="1"/>
        <pt x="172" y="49" on="1"/>
        <pt x="106" y="97" on="0"/>
        <pt x="35" y="254" on="0"/>
      </contour>
      <contour>
        <pt x="476" y="505" on="1"/>
        <pt x="476" y="406" on="0"/>
        <pt x="418" y="358" on="1"/>
        <pt x="319" y="116" on="1"/>
        <pt x="343" y="110" on="0"/>
        <pt x="370" y="110" on="1"/>
        <pt x="461" y="110" on="0"/>
        <pt x="570" y="246" on="0"/>
        <pt x="570" y="452" on="0"/>
        <pt x="461" y="585" on="0"/>
        <pt x="370" y="585" on="1"/>
        <pt x="330" y="585" on="0"/>
        <pt x="268" y="535" on="0"/>
        <pt x="268" y="495" on="1"/>
        <pt x="268" y="441" on="0"/>
        <pt x="304" y="441" on="1"/>
        <pt x="351" y="441" on="0"/>
        <pt x="351" y="505" on="1"/>
      </contour>
      <contour>
        <pt x="170" y="350" on="1"/>
        <pt x="170" y="246" on="0"/>
        <pt x="225" y="178" on="1"/>
        <pt x="284" y="322" on="1"/>
        <pt x="216" y="334" on="0"/>
        <pt x="175" y="404" on="1"/>
        <pt x="170" y="386" on="0"/>
      </contour>
    </TTGlyph>
    <TTGlyph name="Otilde" xMin="35" yMin="-10" xMax="705" yMax="910">
      <contour>
        <pt x="35" y="193" on="0"/>
        <pt x="35" y="507" on="0"/>
        <pt x="217" y="710" on="0"/>
        <pt x="524" y="710" on="0"/>
        <pt x="705" y="509" on="0"/>
        <pt x="705" y="193" on="0"/>
        <pt x="525" y="-10" on="0"/>
        <pt x="215" y="-10" on="0"/>
      </contour>
      <contour>
        <pt x="303" y="321" on="1"/>
        <pt x="261" y="321" on="0"/>
        <pt x="194" y="372" on="0"/>
        <pt x="175" y="404" on="1"/>
        <pt x="170" y="386" on="0"/>
        <pt x="170" y="350" on="1"/>
        <pt x="170" y="246" on="0"/>
        <pt x="279" y="110" on="0"/>
        <pt x="461" y="110" on="0"/>
        <pt x="570" y="246" on="0"/>
        <pt x="570" y="452" on="0"/>
        <pt x="461" y="585" on="0"/>
        <pt x="370" y="585" on="1"/>
        <pt x="330" y="585" on="0"/>
        <pt x="268" y="535" on="0"/>
        <pt x="268" y="495" on="1"/>
        <pt x="268" y="441" on="0"/>
        <pt x="304" y="441" on="1"/>
        <pt x="351" y="441" on="0"/>
        <pt x="351" y="505" on="1"/>
        <pt x="476" y="505" on="1"/>
        <pt x="476" y="428" on="0"/>
        <pt x="394" y="321" on="0"/>
      </contour>
      <contour>
        <pt x="439" y="868" on="1"/>
        <pt x="502" y="910" on="1"/>
        <pt x="557" y="867" on="1"/>
        <pt x="539" y="819" on="0"/>
        <pt x="480" y="762" on="0"/>
        <pt x="411" y="762" on="0"/>
        <pt x="322" y="799" on="1"/>
        <pt x="259" y="757" on="1"/>
        <pt x="204" y="800" on="1"/>
        <pt x="222" y="848" on="0"/>
        <pt x="281" y="905" on="0"/>
        <pt x="319" y="905" on="1"/>
        <pt x="335" y="905" on="0"/>
        <pt x="354" y="899" on="0"/>
        <pt x="365" y="896" on="0"/>
        <pt x="388" y="888" on="0"/>
        <pt x="394" y="886" on="1"/>
        <pt x="409" y="879" on="0"/>
      </contour>
    </TTGlyph>
    <TTGlyph name="P" xMin="-45" yMin="0" xMax="817" yMax="700">
      <contour>
        <pt x="303" y="389" on="0"/>
        <pt x="221" y="282" on="0"/>
        <pt x="41" y="282" on="0"/>
        <pt x="-45" y="384" on="0"/>
        <pt x="-45" y="456" on="1"/>
        <pt x="-45" y="570" on="0"/>
        <pt x="169" y="700" on="0"/>
        <pt x="404" y="700" on="1"/>
        <pt x="449" y="700" on="1"/>
        <pt x="636" y="700" on="0"/>
        <pt x="817" y="577" on="0"/>
        <pt x="817" y="362" on="0"/>
        <pt x="682" y="242" on="0"/>
        <pt x="578" y="242" on="1"/>
        <pt x="522" y="242" on="0"/>
        <pt x="479" y="250" on="1"/>
        <pt x="479" y="120" on="1"/>
        <pt x="596" y="120" on="1"/>
        <pt x="596" y="0" on="1"/>
        <pt x="252" y="0" on="1"/>
        <pt x="252" y="120" on="1"/>
        <pt x="349" y="120" on="1"/>
        <pt x="349" y="579" on="1"/>
        <pt x="199" y="575" on="0"/>
        <pt x="80" y="518" on="0"/>
        <pt x="80" y="402" on="0"/>
        <pt x="131" y="402" on="1"/>
        <pt x="178" y="402" on="0"/>
        <pt x="178" y="466" on="1"/>
        <pt x="303" y="466" on="1"/>
      </contour>
      <contour>
        <pt x="479" y="580" on="1"/>
        <pt x="479" y="373" on="1"/>
        <pt x="518" y="362" on="0"/>
        <pt x="623" y="362" on="0"/>
        <pt x="687" y="422" on="0"/>
        <pt x="687" y="525" on="0"/>
        <pt x="592" y="580" on="0"/>
      </contour>
    </TTGlyph>
    <TTGlyph name="Q" xMin="35" yMin="-260" xMax="715" yMax="710">
      <contour>
        <pt x="195" y="4" on="0"/>
        <pt x="35" y="202" on="0"/>
        <pt x="35" y="507" on="0"/>
        <pt x="217" y="710" on="0"/>
        <pt x="524" y="710" on="0"/>
        <pt x="705" y="509" on="0"/>
        <pt x="705" y="352" on="1"/>
        <pt x="705" y="228" on="0"/>
        <pt x="594" y="46" on="0"/>
        <pt x="493" y="10" on="1"/>
        <pt x="715" y="-163" on="1"/>
        <pt x="631" y="-260" on="1"/>
        <pt x="334" y="-8" on="1"/>
      </contour>
      <contour>
        <pt x="303" y="321" on="1"/>
        <pt x="262" y="321" on="0"/>
        <pt x="192" y="373" on="0"/>
        <pt x="175" y="404" on="1"/>
        <pt x="170" y="391" on="0"/>
        <pt x="170" y="350" on="1"/>
        <pt x="170" y="246" on="0"/>
        <pt x="279" y="110" on="0"/>
        <pt x="461" y="110" on="0"/>
        <pt x="570" y="246" on="0"/>
        <pt x="570" y="452" on="0"/>
        <pt x="461" y="585" on="0"/>
        <pt x="370" y="585" on="1"/>
        <pt x="330" y="585" on="0"/>
        <pt x="268" y="535" on="0"/>
        <pt x="268" y="495" on="1"/>
        <pt x="268" y="441" on="0"/>
        <pt x="304" y="441" on="1"/>
        <pt x="351" y="441" on="0"/>
        <pt x="351" y="505" on="1"/>
        <pt x="476" y="505" on="1"/>
        <pt x="476" y="427" on="0"/>
        <pt x="394" y="321" on="0"/>
      </contour>
    </TTGlyph>
    <TTGlyph name="R" xMin="-45" yMin="-11" xMax="898" yMax="700">
      <contour>
        <pt x="479" y="120" on="1"/>
        <pt x="536" y="120" on="1"/>
        <pt x="536" y="0" on="1"/>
        <pt x="252" y="0" on="1"/>
        <pt x="252" y="120" on="1"/>
        <pt x="349" y="120" on="1"/>
        <pt x="349" y="579" on="1"/>
        <pt x="199" y="575" on="0"/>
        <pt x="80" y="518" on="0"/>
        <pt x="80" y="402" on="0"/>
        <pt x="131" y="402" on="1"/>
        <pt x="178" y="402" on="0"/>
        <pt x="178" y="466" on="1"/>
        <pt x="303" y="466" on="1"/>
        <pt x="303" y="389" on="0"/>
        <pt x="221" y="282" on="0"/>
        <pt x="41" y="282" on="0"/>
        <pt x="-45" y="384" on="0"/>
        <pt x="-45" y="456" on="1"/>
        <pt x="-45" y="570" on="0"/>
        <pt x="169" y="700" on="0"/>
        <pt x="404" y="700" on="1"/>
        <pt x="449" y="700" on="1"/>
        <pt x="636" y="700" on="0"/>
        <pt x="817" y="577" on="0"/>
        <pt x="817" y="471" on="1"/>
        <pt x="817" y="383" on="0"/>
        <pt x="728" y="270" on="0"/>
        <pt x="653" y="251" on="1"/>
        <pt x="675" y="174" on="0"/>
        <pt x="723" y="109" on="0"/>
        <pt x="754" y="109" on="1"/>
        <pt x="778" y="109" on="0"/>
        <pt x="778" y="140" on="1"/>
        <pt x="898" y="140" on="1"/>
        <pt x="898" y="63" on="0"/>
        <pt x="820" y="-11" on="0"/>
        <pt x="764" y="-11" on="1"/>
        <pt x="676" y="-11" on="0"/>
        <pt x="569" y="104" on="0"/>
        <pt x="526" y="243" on="1"/>
        <pt x="496" y="246" on="0"/>
        <pt x="479" y="250" on="1"/>
      </contour>
      <contour>
        <pt x="479" y="580" on="1"/>
        <pt x="479" y="373" on="1"/>
        <pt x="518" y="362" on="0"/>
        <pt x="623" y="362" on="0"/>
        <pt x="687" y="422" on="0"/>
        <pt x="687" y="525" on="0"/>
        <pt x="592" y="580" on="0"/>
      </contour>
    </TTGlyph>
    <TTGlyph name="Racute" xMin="-45" yMin="-11" xMax="883" yMax="993">
      <contour>
        <pt x="464" y="120" on="1"/>
        <pt x="521" y="120" on="1"/>
        <pt x="521" y="0" on="1"/>
        <pt x="237" y="0" on="1"/>
        <pt x="237" y="120" on="1"/>
        <pt x="334" y="120" on="1"/>
        <pt x="334" y="579" on="1"/>
        <pt x="192" y="575" on="0"/>
        <pt x="80" y="518" on="0"/>
        <pt x="80" y="402" on="0"/>
        <pt x="131" y="402" on="1"/>
        <pt x="178" y="402" on="0"/>
        <pt x="178" y="466" on="1"/>
        <pt x="303" y="466" on="1"/>
        <pt x="303" y="389" on="0"/>
        <pt x="221" y="282" on="0"/>
        <pt x="41" y="282" on="0"/>
        <pt x="-45" y="384" on="0"/>
        <pt x="-45" y="456" on="1"/>
        <pt x="-45" y="570" on="0"/>
        <pt x="162" y="700" on="0"/>
        <pt x="389" y="700" on="1"/>
        <pt x="434" y="700" on="1"/>
        <pt x="621" y="700" on="0"/>
        <pt x="802" y="577" on="0"/>
        <pt x="802" y="471" on="1"/>
        <pt x="802" y="383" on="0"/>
        <pt x="713" y="270" on="0"/>
        <pt x="638" y="251" on="1"/>
        <pt x="660" y="174" on="0"/>
        <pt x="708" y="109" on="0"/>
        <pt x="739" y="109" on="1"/>
        <pt x="763" y="109" on="0"/>
        <pt x="763" y="140" on="1"/>
        <pt x="883" y="140" on="1"/>
        <pt x="883" y="63" on="0"/>
        <pt x="805" y="-11" on="0"/>
        <pt x="749" y="-11" on="1"/>
        <pt x="661" y="-11" on="0"/>
        <pt x="554" y="104" on="0"/>
        <pt x="511" y="243" on="1"/>
        <pt x="481" y="246" on="0"/>
        <pt x="464" y="250" on="1"/>
      </contour>
      <contour>
        <pt x="464" y="580" on="1"/>
        <pt x="464" y="373" on="1"/>
        <pt x="502" y="362" on="0"/>
        <pt x="608" y="362" on="0"/>
        <pt x="672" y="422" on="0"/>
        <pt x="672" y="525" on="0"/>
        <pt x="577" y="580" on="0"/>
      </contour>
      <contour>
        <pt x="570" y="918" on="1"/>
        <pt x="442" y="760" on="1"/>
        <pt x="358" y="810" on="1"/>
        <pt x="459" y="993" on="1"/>
      </contour>
    </TTGlyph>
    <TTGlyph name="Rcaron" xMin="-45" yMin="-11" xMax="883" yMax="947">
      <contour>
        <pt x="464" y="120" on="1"/>
        <pt x="521" y="120" on="1"/>
        <pt x="521" y="0" on="1"/>
        <pt x="237" y="0" on="1"/>
        <pt x="237" y="120" on="1"/>
        <pt x="334" y="120" on="1"/>
        <pt x="334" y="579" on="1"/>
        <pt x="192" y="575" on="0"/>
        <pt x="80" y="518" on="0"/>
        <pt x="80" y="402" on="0"/>
        <pt x="131" y="402" on="1"/>
        <pt x="178" y="402" on="0"/>
        <pt x="178" y="466" on="1"/>
        <pt x="303" y="466" on="1"/>
        <pt x="303" y="389" on="0"/>
        <pt x="221" y="282" on="0"/>
        <pt x="41" y="282" on="0"/>
        <pt x="-45" y="384" on="0"/>
        <pt x="-45" y="456" on="1"/>
        <pt x="-45" y="570" on="0"/>
        <pt x="162" y="700" on="0"/>
        <pt x="389" y="700" on="1"/>
        <pt x="434" y="700" on="1"/>
        <pt x="621" y="700" on="0"/>
        <pt x="802" y="577" on="0"/>
        <pt x="802" y="471" on="1"/>
        <pt x="802" y="383" on="0"/>
        <pt x="713" y="270" on="0"/>
        <pt x="638" y="251" on="1"/>
        <pt x="660" y="174" on="0"/>
        <pt x="708" y="109" on="0"/>
        <pt x="739" y="109" on="1"/>
        <pt x="763" y="109" on="0"/>
        <pt x="763" y="140" on="1"/>
        <pt x="883" y="140" on="1"/>
        <pt x="883" y="63" on="0"/>
        <pt x="805" y="-11" on="0"/>
        <pt x="749" y="-11" on="1"/>
        <pt x="661" y="-11" on="0"/>
        <pt x="554" y="104" on="0"/>
        <pt x="511" y="243" on="1"/>
        <pt x="481" y="246" on="0"/>
        <pt x="464" y="250" on="1"/>
      </contour>
      <contour>
        <pt x="464" y="580" on="1"/>
        <pt x="464" y="373" on="1"/>
        <pt x="502" y="362" on="0"/>
        <pt x="608" y="362" on="0"/>
        <pt x="672" y="422" on="0"/>
        <pt x="672" y="525" on="0"/>
        <pt x="577" y="580" on="0"/>
      </contour>
      <contour>
        <pt x="391" y="750" on="1"/>
        <pt x="261" y="897" on="1"/>
        <pt x="323" y="947" on="1"/>
        <pt x="432" y="857" on="1"/>
        <pt x="541" y="947" on="1"/>
        <pt x="603" y="897" on="1"/>
        <pt x="473" y="750" on="1"/>
      </contour>
    </TTGlyph>
    <TTGlyph name="Rcommaaccent" xMin="-45" yMin="-297" xMax="883" yMax="700">
      <contour>
        <pt x="414" y="-173" on="0"/>
        <pt x="388" y="-129" on="0"/>
        <pt x="388" y="-80" on="0"/>
        <pt x="430" y="-41" on="0"/>
        <pt x="493" y="-41" on="0"/>
        <pt x="537" y="-82" on="0"/>
        <pt x="537" y="-156" on="0"/>
        <pt x="500" y="-255" on="0"/>
        <pt x="470" y="-297" on="1"/>
        <pt x="408" y="-262" on="1"/>
        <pt x="435" y="-214" on="0"/>
        <pt x="438" y="-182" on="1"/>
      </contour>
      <contour>
        <pt x="464" y="120" on="1"/>
        <pt x="521" y="120" on="1"/>
        <pt x="521" y="0" on="1"/>
        <pt x="237" y="0" on="1"/>
        <pt x="237" y="120" on="1"/>
        <pt x="334" y="120" on="1"/>
        <pt x="334" y="579" on="1"/>
        <pt x="192" y="575" on="0"/>
        <pt x="80" y="518" on="0"/>
        <pt x="80" y="402" on="0"/>
        <pt x="131" y="402" on="1"/>
        <pt x="178" y="402" on="0"/>
        <pt x="178" y="466" on="1"/>
        <pt x="303" y="466" on="1"/>
        <pt x="303" y="389" on="0"/>
        <pt x="221" y="282" on="0"/>
        <pt x="41" y="282" on="0"/>
        <pt x="-45" y="384" on="0"/>
        <pt x="-45" y="456" on="1"/>
        <pt x="-45" y="570" on="0"/>
        <pt x="162" y="700" on="0"/>
        <pt x="389" y="700" on="1"/>
        <pt x="434" y="700" on="1"/>
        <pt x="621" y="700" on="0"/>
        <pt x="802" y="577" on="0"/>
        <pt x="802" y="471" on="1"/>
        <pt x="802" y="383" on="0"/>
        <pt x="713" y="270" on="0"/>
        <pt x="638" y="251" on="1"/>
        <pt x="660" y="174" on="0"/>
        <pt x="708" y="109" on="0"/>
        <pt x="739" y="109" on="1"/>
        <pt x="763" y="109" on="0"/>
        <pt x="763" y="140" on="1"/>
        <pt x="883" y="140" on="1"/>
        <pt x="883" y="63" on="0"/>
        <pt x="805" y="-11" on="0"/>
        <pt x="749" y="-11" on="1"/>
        <pt x="661" y="-11" on="0"/>
        <pt x="554" y="104" on="0"/>
        <pt x="511" y="243" on="1"/>
        <pt x="481" y="246" on="0"/>
        <pt x="464" y="250" on="1"/>
      </contour>
      <contour>
        <pt x="464" y="580" on="1"/>
        <pt x="464" y="373" on="1"/>
        <pt x="502" y="362" on="0"/>
        <pt x="608" y="362" on="0"/>
        <pt x="672" y="422" on="0"/>
        <pt x="672" y="525" on="0"/>
        <pt x="577" y="580" on="0"/>
      </contour>
    </TTGlyph>
    <TTGlyph name="S" xMin="-45" yMin="-8" xMax="456" yMax="717">
      <contour>
        <pt x="351" y="320" on="1"/>
        <pt x="456" y="255" on="0"/>
        <pt x="456" y="81" on="0"/>
        <pt x="309" y="-8" on="0"/>
        <pt x="49" y="-8" on="0"/>
        <pt x="-45" y="43" on="1"/>
        <pt x="-45" y="223" on="1"/>
        <pt x="70" y="223" on="1"/>
        <pt x="70" y="132" on="1"/>
        <pt x="127" y="112" on="0"/>
        <pt x="250" y="112" on="0"/>
        <pt x="327" y="141" on="0"/>
        <pt x="327" y="165" on="1"/>
        <pt x="327" y="180" on="0"/>
        <pt x="307" y="201" on="0"/>
        <pt x="277" y="219" on="1"/>
        <pt x="104" y="320" on="1"/>
        <pt x="3" y="387" on="0"/>
        <pt x="-22" y="452" on="1"/>
        <pt x="-36" y="487" on="0"/>
        <pt x="-36" y="527" on="1"/>
        <pt x="-36" y="616" on="0"/>
        <pt x="106" y="717" on="0"/>
        <pt x="316" y="717" on="0"/>
        <pt x="455" y="622" on="0"/>
        <pt x="455" y="547" on="1"/>
        <pt x="455" y="469" on="0"/>
        <pt x="409" y="433" on="1"/>
        <pt x="367" y="400" on="0"/>
        <pt x="284" y="400" on="1"/>
        <pt x="284" y="515" on="1"/>
        <pt x="308" y="515" on="0"/>
        <pt x="325" y="528" on="0"/>
        <pt x="325" y="562" on="0"/>
        <pt x="270" y="597" on="0"/>
        <pt x="162" y="597" on="0"/>
        <pt x="94" y="564" on="0"/>
        <pt x="94" y="500" on="0"/>
        <pt x="123" y="459" on="0"/>
        <pt x="159" y="437" on="1"/>
      </contour>
    </TTGlyph>
    <TTGlyph name="Sacute" xMin="36" yMin="-8" xMax="537" yMax="993">
      <contour>
        <pt x="432" y="320" on="1"/>
        <pt x="537" y="255" on="0"/>
        <pt x="537" y="81" on="0"/>
        <pt x="390" y="-8" on="0"/>
        <pt x="130" y="-8" on="0"/>
        <pt x="36" y="43" on="1"/>
        <pt x="36" y="223" on="1"/>
        <pt x="151" y="223" on="1"/>
        <pt x="151" y="132" on="1"/>
        <pt x="208" y="112" on="0"/>
        <pt x="331" y="112" on="0"/>
        <pt x="408" y="141" on="0"/>
        <pt x="408" y="165" on="1"/>
        <pt x="408" y="180" on="0"/>
        <pt x="388" y="201" on="0"/>
        <pt x="358" y="219" on="1"/>
        <pt x="185" y="320" on="1"/>
        <pt x="84" y="387" on="0"/>
        <pt x="58" y="452" on="1"/>
        <pt x="45" y="487" on="0"/>
        <pt x="45" y="527" on="1"/>
        <pt x="45" y="616" on="0"/>
        <pt x="187" y="717" on="0"/>
        <pt x="397" y="717" on="0"/>
        <pt x="536" y="622" on="0"/>
        <pt x="536" y="547" on="1"/>
        <pt x="536" y="469" on="0"/>
        <pt x="490" y="433" on="1"/>
        <pt x="448" y="400" on="0"/>
        <pt x="365" y="400" on="1"/>
        <pt x="365" y="515" on="1"/>
        <pt x="389" y="515" on="0"/>
        <pt x="406" y="528" on="0"/>
        <pt x="406" y="562" on="0"/>
        <pt x="351" y="597" on="0"/>
        <pt x="243" y="597" on="0"/>
        <pt x="175" y="564" on="0"/>
        <pt x="175" y="500" on="0"/>
        <pt x="204" y="459" on="0"/>
        <pt x="240" y="437" on="1"/>
      </contour>
      <contour>
        <pt x="448" y="918" on="1"/>
        <pt x="320" y="760" on="1"/>
        <pt x="236" y="810" on="1"/>
        <pt x="337" y="993" on="1"/>
      </contour>
    </TTGlyph>
    <TTGlyph name="Scaron" xMin="36" yMin="-8" xMax="537" yMax="947">
      <contour>
        <pt x="432" y="320" on="1"/>
        <pt x="537" y="255" on="0"/>
        <pt x="537" y="81" on="0"/>
        <pt x="390" y="-8" on="0"/>
        <pt x="130" y="-8" on="0"/>
        <pt x="36" y="43" on="1"/>
        <pt x="36" y="223" on="1"/>
        <pt x="151" y="223" on="1"/>
        <pt x="151" y="132" on="1"/>
        <pt x="208" y="112" on="0"/>
        <pt x="331" y="112" on="0"/>
        <pt x="408" y="141" on="0"/>
        <pt x="408" y="165" on="1"/>
        <pt x="408" y="180" on="0"/>
        <pt x="388" y="201" on="0"/>
        <pt x="358" y="219" on="1"/>
        <pt x="185" y="320" on="1"/>
        <pt x="84" y="387" on="0"/>
        <pt x="58" y="452" on="1"/>
        <pt x="45" y="487" on="0"/>
        <pt x="45" y="527" on="1"/>
        <pt x="45" y="616" on="0"/>
        <pt x="187" y="717" on="0"/>
        <pt x="397" y="717" on="0"/>
        <pt x="536" y="622" on="0"/>
        <pt x="536" y="547" on="1"/>
        <pt x="536" y="469" on="0"/>
        <pt x="490" y="433" on="1"/>
        <pt x="448" y="400" on="0"/>
        <pt x="365" y="400" on="1"/>
        <pt x="365" y="515" on="1"/>
        <pt x="389" y="515" on="0"/>
        <pt x="406" y="528" on="0"/>
        <pt x="406" y="562" on="0"/>
        <pt x="351" y="597" on="0"/>
        <pt x="243" y="597" on="0"/>
        <pt x="175" y="564" on="0"/>
        <pt x="175" y="500" on="0"/>
        <pt x="204" y="459" on="0"/>
        <pt x="240" y="437" on="1"/>
      </contour>
      <contour>
        <pt x="247" y="750" on="1"/>
        <pt x="117" y="897" on="1"/>
        <pt x="179" y="947" on="1"/>
        <pt x="288" y="857" on="1"/>
        <pt x="397" y="947" on="1"/>
        <pt x="459" y="897" on="1"/>
        <pt x="329" y="750" on="1"/>
      </contour>
    </TTGlyph>
    <TTGlyph name="T" xMin="-45" yMin="0" xMax="741" yMax="700">
      <contour>
        <pt x="519" y="580" on="1"/>
        <pt x="519" y="120" on="1"/>
        <pt x="616" y="120" on="1"/>
        <pt x="616" y="0" on="1"/>
        <pt x="301" y="0" on="1"/>
        <pt x="301" y="120" on="1"/>
        <pt x="389" y="120" on="1"/>
        <pt x="389" y="580" on="1"/>
        <pt x="319" y="580" on="1"/>
        <pt x="188" y="580" on="0"/>
        <pt x="80" y="518" on="0"/>
        <pt x="80" y="402" on="0"/>
        <pt x="131" y="402" on="1"/>
        <pt x="178" y="402" on="0"/>
        <pt x="178" y="466" on="1"/>
        <pt x="303" y="466" on="1"/>
        <pt x="303" y="389" on="0"/>
        <pt x="221" y="282" on="0"/>
        <pt x="41" y="282" on="0"/>
        <pt x="-45" y="384" on="0"/>
        <pt x="-45" y="456" on="1"/>
        <pt x="-45" y="570" on="0"/>
        <pt x="162" y="700" on="0"/>
        <pt x="389" y="700" on="1"/>
        <pt x="741" y="700" on="1"/>
        <pt x="741" y="493" on="1"/>
        <pt x="622" y="493" on="1"/>
        <pt x="622" y="580" on="1"/>
      </contour>
    </TTGlyph>
    <TTGlyph name="Tcaron" xMin="-45" yMin="0" xMax="741" yMax="947">
      <contour>
        <pt x="412" y="750" on="1"/>
        <pt x="282" y="897" on="1"/>
        <pt x="344" y="947" on="1"/>
        <pt x="453" y="857" on="1"/>
        <pt x="562" y="947" on="1"/>
        <pt x="624" y="897" on="1"/>
        <pt x="494" y="750" on="1"/>
      </contour>
      <contour>
        <pt x="519" y="120" on="1"/>
        <pt x="616" y="120" on="1"/>
        <pt x="616" y="0" on="1"/>
        <pt x="301" y="0" on="1"/>
        <pt x="301" y="120" on="1"/>
        <pt x="389" y="120" on="1"/>
        <pt x="389" y="580" on="1"/>
        <pt x="319" y="580" on="1"/>
        <pt x="188" y="580" on="0"/>
        <pt x="80" y="518" on="0"/>
        <pt x="80" y="402" on="0"/>
        <pt x="131" y="402" on="1"/>
        <pt x="178" y="402" on="0"/>
        <pt x="178" y="466" on="1"/>
        <pt x="303" y="466" on="1"/>
        <pt x="303" y="389" on="0"/>
        <pt x="221" y="282" on="0"/>
        <pt x="41" y="282" on="0"/>
        <pt x="-45" y="384" on="0"/>
        <pt x="-45" y="456" on="1"/>
        <pt x="-45" y="570" on="0"/>
        <pt x="162" y="700" on="0"/>
        <pt x="389" y="700" on="1"/>
        <pt x="741" y="700" on="1"/>
        <pt x="741" y="493" on="1"/>
        <pt x="622" y="493" on="1"/>
        <pt x="622" y="580" on="1"/>
        <pt x="519" y="580" on="1"/>
      </contour>
    </TTGlyph>
    <TTGlyph name="Thorn" xMin="18" yMin="0" xMax="575" yMax="691">
      <contour>
        <pt x="226" y="110" on="1"/>
        <pt x="313" y="110" on="1"/>
        <pt x="313" y="0" on="1"/>
        <pt x="18" y="0" on="1"/>
        <pt x="18" y="110" on="1"/>
        <pt x="96" y="110" on="1"/>
        <pt x="96" y="581" on="1"/>
        <pt x="19" y="581" on="1"/>
        <pt x="19" y="691" on="1"/>
        <pt x="313" y="691" on="1"/>
        <pt x="313" y="581" on="1"/>
        <pt x="226" y="581" on="1"/>
        <pt x="226" y="541" on="1"/>
        <pt x="326" y="548" on="0"/>
        <pt x="336" y="548" on="1"/>
        <pt x="453" y="548" on="0"/>
        <pt x="575" y="436" on="0"/>
        <pt x="575" y="261" on="0"/>
        <pt x="453" y="143" on="0"/>
        <pt x="336" y="143" on="1"/>
        <pt x="269" y="143" on="0"/>
        <pt x="226" y="145" on="1"/>
      </contour>
      <contour>
        <pt x="394" y="263" on="0"/>
        <pt x="445" y="311" on="0"/>
        <pt x="445" y="388" on="0"/>
        <pt x="394" y="428" on="0"/>
        <pt x="322" y="428" on="0"/>
        <pt x="226" y="421" on="1"/>
        <pt x="226" y="265" on="1"/>
        <pt x="267" y="263" on="0"/>
        <pt x="351" y="263" on="1"/>
      </contour>
    </TTGlyph>
    <TTGlyph name="U" xMin="-45" yMin="-10" xMax="1014" yMax="700">
      <contour>
        <pt x="303" y="389" on="0"/>
        <pt x="221" y="282" on="0"/>
        <pt x="41" y="282" on="0"/>
        <pt x="-45" y="384" on="0"/>
        <pt x="-45" y="456" on="1"/>
        <pt x="-45" y="570" on="0"/>
        <pt x="169" y="700" on="0"/>
        <pt x="404" y="700" on="1"/>
        <pt x="566" y="700" on="1"/>
        <pt x="566" y="580" on="1"/>
        <pt x="479" y="580" on="1"/>
        <pt x="479" y="235" on="1"/>
        <pt x="479" y="184" on="0"/>
        <pt x="564" y="115" on="0"/>
        <pt x="699" y="115" on="0"/>
        <pt x="787" y="184" on="0"/>
        <pt x="787" y="235" on="1"/>
        <pt x="787" y="580" on="1"/>
        <pt x="700" y="580" on="1"/>
        <pt x="700" y="700" on="1"/>
        <pt x="1014" y="700" on="1"/>
        <pt x="1014" y="580" on="1"/>
        <pt x="917" y="580" on="1"/>
        <pt x="917" y="235" on="1"/>
        <pt x="917" y="131" on="0"/>
        <pt x="762" y="-10" on="0"/>
        <pt x="501" y="-10" on="0"/>
        <pt x="349" y="130" on="0"/>
        <pt x="349" y="235" on="1"/>
        <pt x="349" y="579" on="1"/>
        <pt x="199" y="575" on="0"/>
        <pt x="80" y="518" on="0"/>
        <pt x="80" y="402" on="0"/>
        <pt x="131" y="402" on="1"/>
        <pt x="178" y="402" on="0"/>
        <pt x="178" y="466" on="1"/>
        <pt x="303" y="466" on="1"/>
      </contour>
    </TTGlyph>
    <TTGlyph name="Uacute" xMin="-45" yMin="-10" xMax="999" yMax="993">
      <contour>
        <pt x="303" y="389" on="0"/>
        <pt x="221" y="282" on="0"/>
        <pt x="41" y="282" on="0"/>
        <pt x="-45" y="384" on="0"/>
        <pt x="-45" y="456" on="1"/>
        <pt x="-45" y="570" on="0"/>
        <pt x="162" y="700" on="0"/>
        <pt x="389" y="700" on="1"/>
        <pt x="551" y="700" on="1"/>
        <pt x="551" y="580" on="1"/>
        <pt x="464" y="580" on="1"/>
        <pt x="464" y="235" on="1"/>
        <pt x="464" y="184" on="0"/>
        <pt x="549" y="115" on="0"/>
        <pt x="684" y="115" on="0"/>
        <pt x="772" y="184" on="0"/>
        <pt x="772" y="235" on="1"/>
        <pt x="772" y="580" on="1"/>
        <pt x="685" y="580" on="1"/>
        <pt x="685" y="700" on="1"/>
        <pt x="999" y="700" on="1"/>
        <pt x="999" y="580" on="1"/>
        <pt x="902" y="580" on="1"/>
        <pt x="902" y="235" on="1"/>
        <pt x="902" y="131" on="0"/>
        <pt x="747" y="-10" on="0"/>
        <pt x="486" y="-10" on="0"/>
        <pt x="334" y="130" on="0"/>
        <pt x="334" y="235" on="1"/>
        <pt x="334" y="579" on="1"/>
        <pt x="192" y="575" on="0"/>
        <pt x="80" y="518" on="0"/>
        <pt x="80" y="402" on="0"/>
        <pt x="131" y="402" on="1"/>
        <pt x="178" y="402" on="0"/>
        <pt x="178" y="466" on="1"/>
        <pt x="303" y="466" on="1"/>
      </contour>
      <contour>
        <pt x="723" y="918" on="1"/>
        <pt x="595" y="760" on="1"/>
        <pt x="511" y="810" on="1"/>
        <pt x="612" y="993" on="1"/>
      </contour>
    </TTGlyph>
    <TTGlyph name="Ucircumflex" xMin="-45" yMin="-10" xMax="999" yMax="947">
      <contour>
        <pt x="303" y="389" on="0"/>
        <pt x="221" y="282" on="0"/>
        <pt x="41" y="282" on="0"/>
        <pt x="-45" y="384" on="0"/>
        <pt x="-45" y="456" on="1"/>
        <pt x="-45" y="570" on="0"/>
        <pt x="162" y="700" on="0"/>
        <pt x="389" y="700" on="1"/>
        <pt x="551" y="700" on="1"/>
        <pt x="551" y="580" on="1"/>
        <pt x="464" y="580" on="1"/>
        <pt x="464" y="235" on="1"/>
        <pt x="464" y="184" on="0"/>
        <pt x="549" y="115" on="0"/>
        <pt x="684" y="115" on="0"/>
        <pt x="772" y="184" on="0"/>
        <pt x="772" y="235" on="1"/>
        <pt x="772" y="580" on="1"/>
        <pt x="685" y="580" on="1"/>
        <pt x="685" y="700" on="1"/>
        <pt x="999" y="700" on="1"/>
        <pt x="999" y="580" on="1"/>
        <pt x="902" y="580" on="1"/>
        <pt x="902" y="235" on="1"/>
        <pt x="902" y="131" on="0"/>
        <pt x="747" y="-10" on="0"/>
        <pt x="486" y="-10" on="0"/>
        <pt x="334" y="130" on="0"/>
        <pt x="334" y="235" on="1"/>
        <pt x="334" y="579" on="1"/>
        <pt x="192" y="575" on="0"/>
        <pt x="80" y="518" on="0"/>
        <pt x="80" y="402" on="0"/>
        <pt x="131" y="402" on="1"/>
        <pt x="178" y="402" on="0"/>
        <pt x="178" y="466" on="1"/>
        <pt x="303" y="466" on="1"/>
      </contour>
      <contour>
        <pt x="451" y="800" on="1"/>
        <pt x="581" y="947" on="1"/>
        <pt x="663" y="947" on="1"/>
        <pt x="793" y="800" on="1"/>
        <pt x="731" y="750" on="1"/>
        <pt x="622" y="840" on="1"/>
        <pt x="513" y="750" on="1"/>
      </contour>
    </TTGlyph>
    <TTGlyph name="Udieresis" xMin="-45" yMin="-10" xMax="999" yMax="945">
      <contour>
        <pt x="303" y="389" on="0"/>
        <pt x="221" y="282" on="0"/>
        <pt x="41" y="282" on="0"/>
        <pt x="-45" y="384" on="0"/>
        <pt x="-45" y="456" on="1"/>
        <pt x="-45" y="570" on="0"/>
        <pt x="162" y="700" on="0"/>
        <pt x="389" y="700" on="1"/>
        <pt x="551" y="700" on="1"/>
        <pt x="551" y="580" on="1"/>
        <pt x="464" y="580" on="1"/>
        <pt x="464" y="235" on="1"/>
        <pt x="464" y="184" on="0"/>
        <pt x="549" y="115" on="0"/>
        <pt x="684" y="115" on="0"/>
        <pt x="772" y="184" on="0"/>
        <pt x="772" y="235" on="1"/>
        <pt x="772" y="580" on="1"/>
        <pt x="685" y="580" on="1"/>
        <pt x="685" y="700" on="1"/>
        <pt x="999" y="700" on="1"/>
        <pt x="999" y="580" on="1"/>
        <pt x="902" y="580" on="1"/>
        <pt x="902" y="235" on="1"/>
        <pt x="902" y="131" on="0"/>
        <pt x="747" y="-10" on="0"/>
        <pt x="486" y="-10" on="0"/>
        <pt x="334" y="130" on="0"/>
        <pt x="334" y="235" on="1"/>
        <pt x="334" y="579" on="1"/>
        <pt x="192" y="575" on="0"/>
        <pt x="80" y="518" on="0"/>
        <pt x="80" y="402" on="0"/>
        <pt x="131" y="402" on="1"/>
        <pt x="178" y="402" on="0"/>
        <pt x="178" y="466" on="1"/>
        <pt x="303" y="466" on="1"/>
      </contour>
      <contour>
        <pt x="477" y="798" on="0"/>
        <pt x="440" y="839" on="0"/>
        <pt x="440" y="901" on="0"/>
        <pt x="481" y="945" on="0"/>
        <pt x="540" y="945" on="0"/>
        <pt x="577" y="903" on="0"/>
        <pt x="577" y="842" on="0"/>
        <pt x="536" y="798" on="0"/>
      </contour>
      <contour>
        <pt x="700" y="798" on="0"/>
        <pt x="663" y="839" on="0"/>
        <pt x="663" y="901" on="0"/>
        <pt x="704" y="945" on="0"/>
        <pt x="763" y="945" on="0"/>
        <pt x="800" y="903" on="0"/>
        <pt x="800" y="842" on="0"/>
        <pt x="759" y="798" on="0"/>
      </contour>
    </TTGlyph>
    <TTGlyph name="Ugrave" xMin="-45" yMin="-10" xMax="999" yMax="993">
      <contour>
        <pt x="303" y="389" on="0"/>
        <pt x="221" y="282" on="0"/>
        <pt x="41" y="282" on="0"/>
        <pt x="-45" y="384" on="0"/>
        <pt x="-45" y="456" on="1"/>
        <pt x="-45" y="570" on="0"/>
        <pt x="162" y="700" on="0"/>
        <pt x="389" y="700" on="1"/>
        <pt x="551" y="700" on="1"/>
        <pt x="551" y="580" on="1"/>
        <pt x="464" y="580" on="1"/>
        <pt x="464" y="235" on="1"/>
        <pt x="464" y="184" on="0"/>
        <pt x="549" y="115" on="0"/>
        <pt x="684" y="115" on="0"/>
        <pt x="772" y="184" on="0"/>
        <pt x="772" y="235" on="1"/>
        <pt x="772" y="580" on="1"/>
        <pt x="685" y="580" on="1"/>
        <pt x="685" y="700" on="1"/>
        <pt x="999" y="700" on="1"/>
        <pt x="999" y="580" on="1"/>
        <pt x="902" y="580" on="1"/>
        <pt x="902" y="235" on="1"/>
        <pt x="902" y="131" on="0"/>
        <pt x="747" y="-10" on="0"/>
        <pt x="486" y="-10" on="0"/>
        <pt x="334" y="130" on="0"/>
        <pt x="334" y="235" on="1"/>
        <pt x="334" y="579" on="1"/>
        <pt x="192" y="575" on="0"/>
        <pt x="80" y="518" on="0"/>
        <pt x="80" y="402" on="0"/>
        <pt x="131" y="402" on="1"/>
        <pt x="178" y="402" on="0"/>
        <pt x="178" y="466" on="1"/>
        <pt x="303" y="466" on="1"/>
      </contour>
      <contour>
        <pt x="538" y="760" on="1"/>
        <pt x="410" y="918" on="1"/>
        <pt x="521" y="993" on="1"/>
        <pt x="622" y="810" on="1"/>
      </contour>
    </TTGlyph>
    <TTGlyph name="Uring" xMin="-45" yMin="-10" xMax="999" yMax="980">
      <contour>
        <pt x="303" y="389" on="0"/>
        <pt x="221" y="282" on="0"/>
        <pt x="41" y="282" on="0"/>
        <pt x="-45" y="384" on="0"/>
        <pt x="-45" y="456" on="1"/>
        <pt x="-45" y="570" on="0"/>
        <pt x="162" y="700" on="0"/>
        <pt x="389" y="700" on="1"/>
        <pt x="551" y="700" on="1"/>
        <pt x="551" y="580" on="1"/>
        <pt x="464" y="580" on="1"/>
        <pt x="464" y="235" on="1"/>
        <pt x="464" y="184" on="0"/>
        <pt x="549" y="115" on="0"/>
        <pt x="684" y="115" on="0"/>
        <pt x="772" y="184" on="0"/>
        <pt x="772" y="235" on="1"/>
        <pt x="772" y="580" on="1"/>
        <pt x="685" y="580" on="1"/>
        <pt x="685" y="700" on="1"/>
        <pt x="999" y="700" on="1"/>
        <pt x="999" y="580" on="1"/>
        <pt x="902" y="580" on="1"/>
        <pt x="902" y="235" on="1"/>
        <pt x="902" y="131" on="0"/>
        <pt x="747" y="-10" on="0"/>
        <pt x="486" y="-10" on="0"/>
        <pt x="334" y="130" on="0"/>
        <pt x="334" y="235" on="1"/>
        <pt x="334" y="579" on="1"/>
        <pt x="192" y="575" on="0"/>
        <pt x="80" y="518" on="0"/>
        <pt x="80" y="402" on="0"/>
        <pt x="131" y="402" on="1"/>
        <pt x="178" y="402" on="0"/>
        <pt x="178" y="466" on="1"/>
        <pt x="303" y="466" on="1"/>
      </contour>
      <contour>
        <pt x="755" y="787" on="0"/>
        <pt x="676" y="710" on="0"/>
        <pt x="561" y="710" on="0"/>
        <pt x="480" y="789" on="0"/>
        <pt x="480" y="899" on="0"/>
        <pt x="562" y="980" on="0"/>
        <pt x="676" y="980" on="0"/>
        <pt x="755" y="900" on="0"/>
      </contour>
      <contour>
        <pt x="641" y="895" on="0"/>
        <pt x="597" y="895" on="0"/>
        <pt x="570" y="865" on="0"/>
        <pt x="570" y="824" on="0"/>
        <pt x="597" y="795" on="0"/>
        <pt x="642" y="795" on="0"/>
        <pt x="669" y="824" on="0"/>
        <pt x="669" y="865" on="0"/>
      </contour>
    </TTGlyph>
    <TTGlyph name="V" xMin="-45" yMin="0" xMax="880" yMax="700">
      <contour>
        <pt x="303" y="389" on="0"/>
        <pt x="221" y="282" on="0"/>
        <pt x="41" y="282" on="0"/>
        <pt x="-45" y="384" on="0"/>
        <pt x="-45" y="456" on="1"/>
        <pt x="-45" y="570" on="0"/>
        <pt x="169" y="700" on="0"/>
        <pt x="404" y="700" on="1"/>
        <pt x="513" y="700" on="1"/>
        <pt x="513" y="580" on="1"/>
        <pt x="458" y="580" on="1"/>
        <pt x="570" y="201" on="1"/>
        <pt x="683" y="580" on="1"/>
        <pt x="628" y="580" on="1"/>
        <pt x="628" y="700" on="1"/>
        <pt x="880" y="700" on="1"/>
        <pt x="880" y="580" on="1"/>
        <pt x="816" y="580" on="1"/>
        <pt x="637" y="0" on="1"/>
        <pt x="504" y="0" on="1"/>
        <pt x="325" y="578" on="1"/>
        <pt x="189" y="572" on="0"/>
        <pt x="80" y="515" on="0"/>
        <pt x="80" y="402" on="0"/>
        <pt x="131" y="402" on="1"/>
        <pt x="178" y="402" on="0"/>
        <pt x="178" y="466" on="1"/>
        <pt x="303" y="466" on="1"/>
      </contour>
    </TTGlyph>
    <TTGlyph name="W" xMin="-45" yMin="0" xMax="1213" yMax="700">
      <contour>
        <pt x="303" y="389" on="0"/>
        <pt x="221" y="282" on="0"/>
        <pt x="41" y="282" on="0"/>
        <pt x="-45" y="384" on="0"/>
        <pt x="-45" y="456" on="1"/>
        <pt x="-45" y="570" on="0"/>
        <pt x="169" y="700" on="0"/>
        <pt x="404" y="700" on="1"/>
        <pt x="538" y="700" on="1"/>
        <pt x="538" y="580" on="1"/>
        <pt x="481" y="580" on="1"/>
        <pt x="575" y="211" on="1"/>
        <pt x="698" y="700" on="1"/>
        <pt x="801" y="700" on="1"/>
        <pt x="923" y="211" on="1"/>
        <pt x="1018" y="580" on="1"/>
        <pt x="961" y="580" on="1"/>
        <pt x="961" y="700" on="1"/>
        <pt x="1213" y="700" on="1"/>
        <pt x="1213" y="580" on="1"/>
        <pt x="1151" y="580" on="1"/>
        <pt x="995" y="0" on="1"/>
        <pt x="862" y="0" on="1"/>
        <pt x="749" y="405" on="1"/>
        <pt x="637" y="0" on="1"/>
        <pt x="504" y="0" on="1"/>
        <pt x="348" y="579" on="1"/>
        <pt x="198" y="575" on="0"/>
        <pt x="80" y="518" on="0"/>
        <pt x="80" y="402" on="0"/>
        <pt x="131" y="402" on="1"/>
        <pt x="178" y="402" on="0"/>
        <pt x="178" y="466" on="1"/>
        <pt x="303" y="466" on="1"/>
      </contour>
    </TTGlyph>
    <TTGlyph name="X" xMin="-45" yMin="0" xMax="817" yMax="700">
      <contour>
        <pt x="303" y="388" on="0"/>
        <pt x="221" y="282" on="0"/>
        <pt x="41" y="282" on="0"/>
        <pt x="-45" y="384" on="0"/>
        <pt x="-45" y="456" on="1"/>
        <pt x="-45" y="570" on="0"/>
        <pt x="176" y="700" on="0"/>
        <pt x="419" y="700" on="1"/>
        <pt x="462" y="700" on="1"/>
        <pt x="462" y="580" on="1"/>
        <pt x="441" y="580" on="1"/>
        <pt x="513" y="464" on="1"/>
        <pt x="585" y="580" on="1"/>
        <pt x="548" y="580" on="1"/>
        <pt x="548" y="700" on="1"/>
        <pt x="800" y="700" on="1"/>
        <pt x="800" y="580" on="1"/>
        <pt x="727" y="580" on="1"/>
        <pt x="590" y="360" on="1"/>
        <pt x="742" y="120" on="1"/>
        <pt x="817" y="120" on="1"/>
        <pt x="817" y="0" on="1"/>
        <pt x="565" y="0" on="1"/>
        <pt x="565" y="120" on="1"/>
        <pt x="599" y="120" on="1"/>
        <pt x="513" y="258" on="1"/>
        <pt x="428" y="120" on="1"/>
        <pt x="459" y="120" on="1"/>
        <pt x="459" y="0" on="1"/>
        <pt x="207" y="0" on="1"/>
        <pt x="207" y="120" on="1"/>
        <pt x="286" y="120" on="1"/>
        <pt x="436" y="360" on="1"/>
        <pt x="301" y="576" on="1"/>
        <pt x="178" y="566" on="0"/>
        <pt x="80" y="511" on="0"/>
        <pt x="80" y="402" on="0"/>
        <pt x="131" y="402" on="1"/>
        <pt x="178" y="402" on="0"/>
        <pt x="178" y="466" on="1"/>
        <pt x="303" y="466" on="1"/>
      </contour>
    </TTGlyph>
    <TTGlyph name="Y" xMin="-45" yMin="0" xMax="803" yMax="700">
      <contour>
        <pt x="303" y="389" on="0"/>
        <pt x="221" y="282" on="0"/>
        <pt x="41" y="282" on="0"/>
        <pt x="-45" y="384" on="0"/>
        <pt x="-45" y="456" on="1"/>
        <pt x="-45" y="570" on="0"/>
        <pt x="162" y="700" on="0"/>
        <pt x="389" y="700" on="1"/>
        <pt x="481" y="700" on="1"/>
        <pt x="481" y="580" on="1"/>
        <pt x="441" y="580" on="1"/>
        <pt x="516" y="414" on="1"/>
        <pt x="591" y="580" on="1"/>
        <pt x="551" y="580" on="1"/>
        <pt x="551" y="700" on="1"/>
        <pt x="803" y="700" on="1"/>
        <pt x="803" y="580" on="1"/>
        <pt x="733" y="580" on="1"/>
        <pt x="581" y="273" on="1"/>
        <pt x="581" y="120" on="1"/>
        <pt x="678" y="120" on="1"/>
        <pt x="678" y="0" on="1"/>
        <pt x="354" y="0" on="1"/>
        <pt x="354" y="120" on="1"/>
        <pt x="451" y="120" on="1"/>
        <pt x="451" y="273" on="1"/>
        <pt x="300" y="578" on="1"/>
        <pt x="178" y="571" on="0"/>
        <pt x="80" y="515" on="0"/>
        <pt x="80" y="402" on="0"/>
        <pt x="131" y="402" on="1"/>
        <pt x="178" y="402" on="0"/>
        <pt x="178" y="466" on="1"/>
        <pt x="303" y="466" on="1"/>
      </contour>
    </TTGlyph>
    <TTGlyph name="Yacute" xMin="-45" yMin="0" xMax="803" yMax="993">
      <contour>
        <pt x="303" y="389" on="0"/>
        <pt x="221" y="282" on="0"/>
        <pt x="41" y="282" on="0"/>
        <pt x="-45" y="384" on="0"/>
        <pt x="-45" y="456" on="1"/>
        <pt x="-45" y="570" on="0"/>
        <pt x="162" y="700" on="0"/>
        <pt x="389" y="700" on="1"/>
        <pt x="481" y="700" on="1"/>
        <pt x="481" y="580" on="1"/>
        <pt x="441" y="580" on="1"/>
        <pt x="516" y="414" on="1"/>
        <pt x="591" y="580" on="1"/>
        <pt x="551" y="580" on="1"/>
        <pt x="551" y="700" on="1"/>
        <pt x="803" y="700" on="1"/>
        <pt x="803" y="580" on="1"/>
        <pt x="733" y="580" on="1"/>
        <pt x="581" y="273" on="1"/>
        <pt x="581" y="120" on="1"/>
        <pt x="678" y="120" on="1"/>
        <pt x="678" y="0" on="1"/>
        <pt x="354" y="0" on="1"/>
        <pt x="354" y="120" on="1"/>
        <pt x="451" y="120" on="1"/>
        <pt x="451" y="273" on="1"/>
        <pt x="300" y="578" on="1"/>
        <pt x="178" y="571" on="0"/>
        <pt x="80" y="515" on="0"/>
        <pt x="80" y="402" on="0"/>
        <pt x="131" y="402" on="1"/>
        <pt x="178" y="402" on="0"/>
        <pt x="178" y="466" on="1"/>
        <pt x="303" y="466" on="1"/>
      </contour>
      <contour>
        <pt x="632" y="918" on="1"/>
        <pt x="504" y="760" on="1"/>
        <pt x="420" y="810" on="1"/>
        <pt x="521" y="993" on="1"/>
      </contour>
    </TTGlyph>
    <TTGlyph name="Z" xMin="-45" yMin="0" xMax="685" yMax="700">
      <contour>
        <pt x="303" y="389" on="0"/>
        <pt x="221" y="282" on="0"/>
        <pt x="41" y="282" on="0"/>
        <pt x="-45" y="384" on="0"/>
        <pt x="-45" y="456" on="1"/>
        <pt x="-45" y="570" on="0"/>
        <pt x="169" y="700" on="0"/>
        <pt x="404" y="700" on="1"/>
        <pt x="682" y="700" on="1"/>
        <pt x="682" y="600" on="1"/>
        <pt x="344" y="120" on="1"/>
        <pt x="585" y="120" on="1"/>
        <pt x="585" y="189" on="1"/>
        <pt x="685" y="189" on="1"/>
        <pt x="685" y="0" on="1"/>
        <pt x="173" y="0" on="1"/>
        <pt x="173" y="100" on="1"/>
        <pt x="510" y="580" on="1"/>
        <pt x="402" y="580" on="1"/>
        <pt x="220" y="580" on="0"/>
        <pt x="80" y="523" on="0"/>
        <pt x="80" y="456" on="1"/>
        <pt x="80" y="402" on="0"/>
        <pt x="131" y="402" on="1"/>
        <pt x="178" y="402" on="0"/>
        <pt x="178" y="466" on="1"/>
        <pt x="303" y="466" on="1"/>
      </contour>
    </TTGlyph>
    <TTGlyph name="Zacute" xMin="-45" yMin="0" xMax="670" yMax="993">
      <contour>
        <pt x="303" y="389" on="0"/>
        <pt x="221" y="282" on="0"/>
        <pt x="41" y="282" on="0"/>
        <pt x="-45" y="384" on="0"/>
        <pt x="-45" y="456" on="1"/>
        <pt x="-45" y="570" on="0"/>
        <pt x="162" y="700" on="0"/>
        <pt x="389" y="700" on="1"/>
        <pt x="667" y="700" on="1"/>
        <pt x="667" y="600" on="1"/>
        <pt x="329" y="120" on="1"/>
        <pt x="570" y="120" on="1"/>
        <pt x="570" y="189" on="1"/>
        <pt x="670" y="189" on="1"/>
        <pt x="670" y="0" on="1"/>
        <pt x="158" y="0" on="1"/>
        <pt x="158" y="100" on="1"/>
        <pt x="495" y="580" on="1"/>
        <pt x="387" y="580" on="1"/>
        <pt x="213" y="580" on="0"/>
        <pt x="80" y="523" on="0"/>
        <pt x="80" y="456" on="1"/>
        <pt x="80" y="402" on="0"/>
        <pt x="131" y="402" on="1"/>
        <pt x="178" y="402" on="0"/>
        <pt x="178" y="466" on="1"/>
        <pt x="303" y="466" on="1"/>
      </contour>
      <contour>
        <pt x="537" y="918" on="1"/>
        <pt x="409" y="760" on="1"/>
        <pt x="325" y="810" on="1"/>
        <pt x="426" y="993" on="1"/>
      </contour>
    </TTGlyph>
    <TTGlyph name="Zcaron" xMin="-45" yMin="0" xMax="670" yMax="947">
      <contour>
        <pt x="303" y="389" on="0"/>
        <pt x="221" y="282" on="0"/>
        <pt x="41" y="282" on="0"/>
        <pt x="-45" y="384" on="0"/>
        <pt x="-45" y="456" on="1"/>
        <pt x="-45" y="570" on="0"/>
        <pt x="162" y="700" on="0"/>
        <pt x="389" y="700" on="1"/>
        <pt x="667" y="700" on="1"/>
        <pt x="667" y="600" on="1"/>
        <pt x="329" y="120" on="1"/>
        <pt x="570" y="120" on="1"/>
        <pt x="570" y="189" on="1"/>
        <pt x="670" y="189" on="1"/>
        <pt x="670" y="0" on="1"/>
        <pt x="158" y="0" on="1"/>
        <pt x="158" y="100" on="1"/>
        <pt x="495" y="580" on="1"/>
        <pt x="387" y="580" on="1"/>
        <pt x="213" y="580" on="0"/>
        <pt x="80" y="523" on="0"/>
        <pt x="80" y="456" on="1"/>
        <pt x="80" y="402" on="0"/>
        <pt x="131" y="402" on="1"/>
        <pt x="178" y="402" on="0"/>
        <pt x="178" y="466" on="1"/>
        <pt x="303" y="466" on="1"/>
      </contour>
      <contour>
        <pt x="346" y="750" on="1"/>
        <pt x="216" y="897" on="1"/>
        <pt x="278" y="947" on="1"/>
        <pt x="387" y="857" on="1"/>
        <pt x="496" y="947" on="1"/>
        <pt x="558" y="897" on="1"/>
        <pt x="428" y="750" on="1"/>
      </contour>
    </TTGlyph>
    <TTGlyph name="a" xMin="30" yMin="-10" xMax="542" yMax="510">
      <contour>
        <pt x="268" y="-10" on="0"/>
        <pt x="116" y="-10" on="0"/>
        <pt x="30" y="68" on="0"/>
        <pt x="30" y="209" on="0"/>
        <pt x="142" y="307" on="0"/>
        <pt x="251" y="307" on="1"/>
        <pt x="330" y="307" on="1"/>
        <pt x="330" y="343" on="1"/>
        <pt x="330" y="390" on="0"/>
        <pt x="212" y="390" on="0"/>
        <pt x="166" y="377" on="1"/>
        <pt x="166" y="320" on="1"/>
        <pt x="51" y="320" on="1"/>
        <pt x="51" y="469" on="1"/>
        <pt x="100" y="488" on="0"/>
        <pt x="231" y="510" on="0"/>
        <pt x="275" y="510" on="1"/>
        <pt x="362" y="510" on="0"/>
        <pt x="460" y="419" on="0"/>
        <pt x="460" y="343" on="1"/>
        <pt x="460" y="105" on="1"/>
        <pt x="542" y="105" on="1"/>
        <pt x="542" y="18" on="1"/>
        <pt x="499" y="-5" on="0"/>
        <pt x="434" y="-5" on="1"/>
        <pt x="330" y="-5" on="0"/>
        <pt x="330" y="65" on="1"/>
      </contour>
      <contour>
        <pt x="201" y="110" on="1"/>
        <pt x="270" y="110" on="0"/>
        <pt x="330" y="192" on="1"/>
        <pt x="330" y="196" on="1"/>
        <pt x="250" y="196" on="1"/>
        <pt x="204" y="196" on="0"/>
        <pt x="160" y="164" on="0"/>
        <pt x="160" y="110" on="0"/>
      </contour>
    </TTGlyph>
    <TTGlyph name="aacute" xMin="20" yMin="-10" xMax="532" yMax="793">
      <contour>
        <pt x="258" y="-10" on="0"/>
        <pt x="106" y="-10" on="0"/>
        <pt x="20" y="68" on="0"/>
        <pt x="20" y="209" on="0"/>
        <pt x="132" y="307" on="0"/>
        <pt x="241" y="307" on="1"/>
        <pt x="320" y="307" on="1"/>
        <pt x="320" y="343" on="1"/>
        <pt x="320" y="390" on="0"/>
        <pt x="202" y="390" on="0"/>
        <pt x="156" y="377" on="1"/>
        <pt x="156" y="320" on="1"/>
        <pt x="41" y="320" on="1"/>
        <pt x="41" y="469" on="1"/>
        <pt x="90" y="488" on="0"/>
        <pt x="221" y="510" on="0"/>
        <pt x="265" y="510" on="1"/>
        <pt x="352" y="510" on="0"/>
        <pt x="450" y="419" on="0"/>
        <pt x="450" y="343" on="1"/>
        <pt x="450" y="105" on="1"/>
        <pt x="532" y="105" on="1"/>
        <pt x="532" y="18" on="1"/>
        <pt x="489" y="-5" on="0"/>
        <pt x="424" y="-5" on="1"/>
        <pt x="320" y="-5" on="0"/>
        <pt x="320" y="65" on="1"/>
      </contour>
      <contour>
        <pt x="191" y="110" on="1"/>
        <pt x="260" y="110" on="0"/>
        <pt x="320" y="192" on="1"/>
        <pt x="320" y="196" on="1"/>
        <pt x="240" y="196" on="1"/>
        <pt x="194" y="196" on="0"/>
        <pt x="150" y="164" on="0"/>
        <pt x="150" y="110" on="0"/>
      </contour>
      <contour>
        <pt x="414" y="718" on="1"/>
        <pt x="286" y="560" on="1"/>
        <pt x="202" y="610" on="1"/>
        <pt x="303" y="793" on="1"/>
      </contour>
    </TTGlyph>
    <TTGlyph name="abreve" xMin="20" yMin="-10" xMax="532" yMax="724">
      <contour>
        <pt x="258" y="-10" on="0"/>
        <pt x="106" y="-10" on="0"/>
        <pt x="20" y="68" on="0"/>
        <pt x="20" y="209" on="0"/>
        <pt x="132" y="307" on="0"/>
        <pt x="241" y="307" on="1"/>
        <pt x="320" y="307" on="1"/>
        <pt x="320" y="343" on="1"/>
        <pt x="320" y="390" on="0"/>
        <pt x="202" y="390" on="0"/>
        <pt x="156" y="377" on="1"/>
        <pt x="156" y="320" on="1"/>
        <pt x="41" y="320" on="1"/>
        <pt x="41" y="469" on="1"/>
        <pt x="90" y="488" on="0"/>
        <pt x="221" y="510" on="0"/>
        <pt x="265" y="510" on="1"/>
        <pt x="352" y="510" on="0"/>
        <pt x="450" y="419" on="0"/>
        <pt x="450" y="343" on="1"/>
        <pt x="450" y="105" on="1"/>
        <pt x="532" y="105" on="1"/>
        <pt x="532" y="18" on="1"/>
        <pt x="489" y="-5" on="0"/>
        <pt x="424" y="-5" on="1"/>
        <pt x="320" y="-5" on="0"/>
        <pt x="320" y="65" on="1"/>
      </contour>
      <contour>
        <pt x="191" y="110" on="1"/>
        <pt x="260" y="110" on="0"/>
        <pt x="320" y="192" on="1"/>
        <pt x="320" y="196" on="1"/>
        <pt x="240" y="196" on="1"/>
        <pt x="194" y="196" on="0"/>
        <pt x="150" y="164" on="0"/>
        <pt x="150" y="110" on="0"/>
      </contour>
      <contour>
        <pt x="186" y="658" on="0"/>
        <pt x="312" y="658" on="0"/>
        <pt x="378" y="724" on="1"/>
        <pt x="437" y="664" on="1"/>
        <pt x="350" y="550" on="0"/>
        <pt x="148" y="550" on="0"/>
        <pt x="61" y="664" on="1"/>
        <pt x="120" y="724" on="1"/>
      </contour>
    </TTGlyph>
    <TTGlyph name="acircumflex" xMin="20" yMin="-10" xMax="532" yMax="747">
      <contour>
        <pt x="258" y="-10" on="0"/>
        <pt x="106" y="-10" on="0"/>
        <pt x="20" y="68" on="0"/>
        <pt x="20" y="209" on="0"/>
        <pt x="132" y="307" on="0"/>
        <pt x="241" y="307" on="1"/>
        <pt x="320" y="307" on="1"/>
        <pt x="320" y="343" on="1"/>
        <pt x="320" y="390" on="0"/>
        <pt x="202" y="390" on="0"/>
        <pt x="156" y="377" on="1"/>
        <pt x="156" y="320" on="1"/>
        <pt x="41" y="320" on="1"/>
        <pt x="41" y="469" on="1"/>
        <pt x="90" y="488" on="0"/>
        <pt x="221" y="510" on="0"/>
        <pt x="265" y="510" on="1"/>
        <pt x="352" y="510" on="0"/>
        <pt x="450" y="419" on="0"/>
        <pt x="450" y="343" on="1"/>
        <pt x="450" y="105" on="1"/>
        <pt x="532" y="105" on="1"/>
        <pt x="532" y="18" on="1"/>
        <pt x="489" y="-5" on="0"/>
        <pt x="424" y="-5" on="1"/>
        <pt x="320" y="-5" on="0"/>
        <pt x="320" y="65" on="1"/>
      </contour>
      <contour>
        <pt x="191" y="110" on="1"/>
        <pt x="260" y="110" on="0"/>
        <pt x="320" y="192" on="1"/>
        <pt x="320" y="196" on="1"/>
        <pt x="240" y="196" on="1"/>
        <pt x="194" y="196" on="0"/>
        <pt x="150" y="164" on="0"/>
        <pt x="150" y="110" on="0"/>
      </contour>
      <contour>
        <pt x="83" y="600" on="1"/>
        <pt x="213" y="747" on="1"/>
        <pt x="295" y="747" on="1"/>
        <pt x="425" y="600" on="1"/>
        <pt x="363" y="550" on="1"/>
        <pt x="254" y="640" on="1"/>
        <pt x="145" y="550" on="1"/>
      </contour>
    </TTGlyph>
    <TTGlyph name="acute" xMin="44" yMin="760" xMax="256" yMax="993">
      <contour>
        <pt x="256" y="918" on="1"/>
        <pt x="128" y="760" on="1"/>
        <pt x="44" y="810" on="1"/>
        <pt x="145" y="993" on="1"/>
      </contour>
    </TTGlyph>
    <TTGlyph name="adieresis" xMin="20" yMin="-10" xMax="532" yMax="745">
      <contour>
        <pt x="258" y="-10" on="0"/>
        <pt x="106" y="-10" on="0"/>
        <pt x="20" y="68" on="0"/>
        <pt x="20" y="209" on="0"/>
        <pt x="132" y="307" on="0"/>
        <pt x="241" y="307" on="1"/>
        <pt x="320" y="307" on="1"/>
        <pt x="320" y="343" on="1"/>
        <pt x="320" y="390" on="0"/>
        <pt x="202" y="390" on="0"/>
        <pt x="156" y="377" on="1"/>
        <pt x="156" y="320" on="1"/>
        <pt x="41" y="320" on="1"/>
        <pt x="41" y="469" on="1"/>
        <pt x="90" y="488" on="0"/>
        <pt x="221" y="510" on="0"/>
        <pt x="265" y="510" on="1"/>
        <pt x="352" y="510" on="0"/>
        <pt x="450" y="419" on="0"/>
        <pt x="450" y="343" on="1"/>
        <pt x="450" y="105" on="1"/>
        <pt x="532" y="105" on="1"/>
        <pt x="532" y="18" on="1"/>
        <pt x="489" y="-5" on="0"/>
        <pt x="424" y="-5" on="1"/>
        <pt x="320" y="-5" on="0"/>
        <pt x="320" y="65" on="1"/>
      </contour>
      <contour>
        <pt x="191" y="110" on="1"/>
        <pt x="260" y="110" on="0"/>
        <pt x="320" y="192" on="1"/>
        <pt x="320" y="196" on="1"/>
        <pt x="240" y="196" on="1"/>
        <pt x="194" y="196" on="0"/>
        <pt x="150" y="164" on="0"/>
        <pt x="150" y="110" on="0"/>
      </contour>
      <contour>
        <pt x="109" y="598" on="0"/>
        <pt x="72" y="639" on="0"/>
        <pt x="72" y="701" on="0"/>
        <pt x="113" y="745" on="0"/>
        <pt x="172" y="745" on="0"/>
        <pt x="209" y="703" on="0"/>
        <pt x="209" y="642" on="0"/>
        <pt x="168" y="598" on="0"/>
      </contour>
      <contour>
        <pt x="332" y="598" on="0"/>
        <pt x="295" y="639" on="0"/>
        <pt x="295" y="701" on="0"/>
        <pt x="336" y="745" on="0"/>
        <pt x="395" y="745" on="0"/>
        <pt x="432" y="703" on="0"/>
        <pt x="432" y="642" on="0"/>
        <pt x="391" y="598" on="0"/>
      </contour>
    </TTGlyph>
    <TTGlyph name="ae" xMin="30" yMin="-10" xMax="795" yMax="510">
      <contour>
        <pt x="795" y="254" on="1"/>
        <pt x="795" y="201" on="1"/>
        <pt x="460" y="201" on="1"/>
        <pt x="460" y="182" on="1"/>
        <pt x="468" y="149" on="0"/>
        <pt x="527" y="110" on="0"/>
        <pt x="603" y="110" on="0"/>
        <pt x="660" y="122" on="0"/>
        <pt x="683" y="132" on="0"/>
        <pt x="706" y="145" on="1"/>
        <pt x="730" y="158" on="1"/>
        <pt x="782" y="57" on="1"/>
        <pt x="700" y="-10" on="0"/>
        <pt x="462" y="-10" on="0"/>
        <pt x="396" y="59" on="1"/>
        <pt x="290" y="-10" on="0"/>
        <pt x="124" y="-10" on="0"/>
        <pt x="30" y="68" on="0"/>
        <pt x="30" y="209" on="0"/>
        <pt x="142" y="307" on="0"/>
        <pt x="251" y="307" on="1"/>
        <pt x="330" y="307" on="1"/>
        <pt x="330" y="343" on="1"/>
        <pt x="330" y="390" on="0"/>
        <pt x="212" y="390" on="0"/>
        <pt x="166" y="377" on="1"/>
        <pt x="166" y="320" on="1"/>
        <pt x="51" y="320" on="1"/>
        <pt x="51" y="469" on="1"/>
        <pt x="100" y="488" on="0"/>
        <pt x="231" y="510" on="0"/>
        <pt x="275" y="510" on="1"/>
        <pt x="359" y="510" on="0"/>
        <pt x="409" y="454" on="1"/>
        <pt x="473" y="510" on="0"/>
        <pt x="679" y="510" on="0"/>
        <pt x="795" y="366" on="0"/>
      </contour>
      <contour>
        <pt x="661" y="342" on="0"/>
        <pt x="614" y="390" on="0"/>
        <pt x="527" y="390" on="0"/>
        <pt x="470" y="341" on="0"/>
        <pt x="461" y="302" on="1"/>
        <pt x="665" y="302" on="1"/>
      </contour>
      <contour>
        <pt x="197" y="110" on="1"/>
        <pt x="236" y="110" on="0"/>
        <pt x="312" y="143" on="0"/>
        <pt x="330" y="170" on="1"/>
        <pt x="330" y="196" on="1"/>
        <pt x="231" y="196" on="1"/>
        <pt x="186" y="196" on="0"/>
        <pt x="141" y="170" on="0"/>
        <pt x="141" y="150" on="1"/>
        <pt x="141" y="110" on="0"/>
      </contour>
    </TTGlyph>
    <TTGlyph name="agrave" xMin="20" yMin="-10" xMax="532" yMax="793">
      <contour>
        <pt x="258" y="-10" on="0"/>
        <pt x="106" y="-10" on="0"/>
        <pt x="20" y="68" on="0"/>
        <pt x="20" y="209" on="0"/>
        <pt x="132" y="307" on="0"/>
        <pt x="241" y="307" on="1"/>
        <pt x="320" y="307" on="1"/>
        <pt x="320" y="343" on="1"/>
        <pt x="320" y="390" on="0"/>
        <pt x="202" y="390" on="0"/>
        <pt x="156" y="377" on="1"/>
        <pt x="156" y="320" on="1"/>
        <pt x="41" y="320" on="1"/>
        <pt x="41" y="469" on="1"/>
        <pt x="90" y="488" on="0"/>
        <pt x="221" y="510" on="0"/>
        <pt x="265" y="510" on="1"/>
        <pt x="352" y="510" on="0"/>
        <pt x="450" y="419" on="0"/>
        <pt x="450" y="343" on="1"/>
        <pt x="450" y="105" on="1"/>
        <pt x="532" y="105" on="1"/>
        <pt x="532" y="18" on="1"/>
        <pt x="489" y="-5" on="0"/>
        <pt x="424" y="-5" on="1"/>
        <pt x="320" y="-5" on="0"/>
        <pt x="320" y="65" on="1"/>
      </contour>
      <contour>
        <pt x="191" y="110" on="1"/>
        <pt x="260" y="110" on="0"/>
        <pt x="320" y="192" on="1"/>
        <pt x="320" y="196" on="1"/>
        <pt x="240" y="196" on="1"/>
        <pt x="194" y="196" on="0"/>
        <pt x="150" y="164" on="0"/>
        <pt x="150" y="110" on="0"/>
      </contour>
      <contour>
        <pt x="252" y="560" on="1"/>
        <pt x="124" y="718" on="1"/>
        <pt x="235" y="793" on="1"/>
        <pt x="336" y="610" on="1"/>
      </contour>
    </TTGlyph>
    <TTGlyph name="ampersand" xMin="16" yMin="-70" xMax="690" yMax="722">
      <contour>
        <pt x="16" y="183" on="1"/>
        <pt x="16" y="291" on="0"/>
        <pt x="149" y="396" on="1"/>
        <pt x="90" y="480" on="0"/>
        <pt x="90" y="627" on="0"/>
        <pt x="179" y="722" on="0"/>
        <pt x="359" y="722" on="0"/>
        <pt x="455" y="637" on="0"/>
        <pt x="455" y="513" on="0"/>
        <pt x="388" y="427" on="0"/>
        <pt x="313" y="372" on="1"/>
        <pt x="385" y="281" on="0"/>
        <pt x="456" y="211" on="1"/>
        <pt x="487" y="251" on="0"/>
        <pt x="510" y="306" on="1"/>
        <pt x="465" y="306" on="1"/>
        <pt x="465" y="409" on="1"/>
        <pt x="690" y="409" on="1"/>
        <pt x="690" y="306" on="1"/>
        <pt x="635" y="306" on="1"/>
        <pt x="608" y="208" on="0"/>
        <pt x="544" y="129" on="1"/>
        <pt x="624" y="62" on="0"/>
        <pt x="690" y="30" on="1"/>
        <pt x="625" y="-70" on="1"/>
        <pt x="546" y="-26" on="0"/>
        <pt x="459" y="49" on="1"/>
        <pt x="370" y="-12" on="0"/>
        <pt x="151" y="-12" on="0"/>
        <pt x="16" y="87" on="0"/>
      </contour>
      <contour>
        <pt x="151" y="147" on="0"/>
        <pt x="211" y="109" on="0"/>
        <pt x="319" y="109" on="0"/>
        <pt x="367" y="134" on="1"/>
        <pt x="281" y="220" on="0"/>
        <pt x="220" y="302" on="1"/>
        <pt x="151" y="242" on="0"/>
        <pt x="151" y="183" on="1"/>
      </contour>
      <contour>
        <pt x="219" y="556" on="1"/>
        <pt x="219" y="506" on="0"/>
        <pt x="246" y="466" on="1"/>
        <pt x="288" y="488" on="0"/>
        <pt x="325" y="540" on="0"/>
        <pt x="325" y="582" on="0"/>
        <pt x="296" y="606" on="0"/>
        <pt x="250" y="606" on="0"/>
        <pt x="219" y="575" on="0"/>
      </contour>
    </TTGlyph>
    <TTGlyph name="aring" xMin="20" yMin="-10" xMax="532" yMax="795">
      <contour>
        <pt x="258" y="-10" on="0"/>
        <pt x="106" y="-10" on="0"/>
        <pt x="20" y="68" on="0"/>
        <pt x="20" y="209" on="0"/>
        <pt x="132" y="307" on="0"/>
        <pt x="241" y="307" on="1"/>
        <pt x="320" y="307" on="1"/>
        <pt x="320" y="343" on="1"/>
        <pt x="320" y="390" on="0"/>
        <pt x="202" y="390" on="0"/>
        <pt x="156" y="377" on="1"/>
        <pt x="156" y="320" on="1"/>
        <pt x="41" y="320" on="1"/>
        <pt x="41" y="469" on="1"/>
        <pt x="90" y="488" on="0"/>
        <pt x="221" y="510" on="0"/>
        <pt x="265" y="510" on="1"/>
        <pt x="352" y="510" on="0"/>
        <pt x="450" y="419" on="0"/>
        <pt x="450" y="343" on="1"/>
        <pt x="450" y="105" on="1"/>
        <pt x="532" y="105" on="1"/>
        <pt x="532" y="18" on="1"/>
        <pt x="489" y="-5" on="0"/>
        <pt x="424" y="-5" on="1"/>
        <pt x="320" y="-5" on="0"/>
        <pt x="320" y="65" on="1"/>
      </contour>
      <contour>
        <pt x="191" y="110" on="1"/>
        <pt x="260" y="110" on="0"/>
        <pt x="320" y="192" on="1"/>
        <pt x="320" y="196" on="1"/>
        <pt x="240" y="196" on="1"/>
        <pt x="194" y="196" on="0"/>
        <pt x="150" y="164" on="0"/>
        <pt x="150" y="110" on="0"/>
      </contour>
      <contour>
        <pt x="401" y="602" on="0"/>
        <pt x="322" y="525" on="0"/>
        <pt x="207" y="525" on="0"/>
        <pt x="126" y="604" on="0"/>
        <pt x="126" y="714" on="0"/>
        <pt x="208" y="795" on="0"/>
        <pt x="322" y="795" on="0"/>
        <pt x="401" y="715" on="0"/>
      </contour>
      <contour>
        <pt x="287" y="710" on="0"/>
        <pt x="243" y="710" on="0"/>
        <pt x="216" y="680" on="0"/>
        <pt x="216" y="639" on="0"/>
        <pt x="243" y="610" on="0"/>
        <pt x="288" y="610" on="0"/>
        <pt x="315" y="639" on="0"/>
        <pt x="315" y="680" on="0"/>
      </contour>
    </TTGlyph>
    <TTGlyph name="asciicircum" xMin="13" yMin="365" xMax="478" yMax="700">
      <contour>
        <pt x="290" y="700" on="1"/>
        <pt x="478" y="365" on="1"/>
        <pt x="346" y="365" on="1"/>
        <pt x="245" y="539" on="1"/>
        <pt x="143" y="365" on="1"/>
        <pt x="13" y="365" on="1"/>
        <pt x="200" y="700" on="1"/>
      </contour>
    </TTGlyph>
    <TTGlyph name="asciitilde" xMin="30" yMin="196" xMax="498" yMax="368">
      <contour>
        <pt x="188" y="363" on="1"/>
        <pt x="224" y="363" on="0"/>
        <pt x="283" y="346" on="0"/>
        <pt x="337" y="329" on="0"/>
        <pt x="348" y="326" on="1"/>
        <pt x="434" y="368" on="1"/>
        <pt x="498" y="318" on="1"/>
        <pt x="444" y="200" on="0"/>
        <pt x="351" y="200" on="1"/>
        <pt x="307" y="200" on="0"/>
        <pt x="197" y="236" on="0"/>
        <pt x="190" y="238" on="1"/>
        <pt x="94" y="196" on="1"/>
        <pt x="30" y="246" on="1"/>
        <pt x="88" y="363" on="0"/>
      </contour>
    </TTGlyph>
    <TTGlyph name="asterisk" xMin="49" yMin="379" xMax="397" yMax="710">
      <contour>
        <pt x="289" y="710" on="1"/>
        <pt x="270" y="616" on="1"/>
        <pt x="338" y="652" on="0"/>
        <pt x="353" y="661" on="1"/>
        <pt x="397" y="534" on="1"/>
        <pt x="297" y="523" on="1"/>
        <pt x="308" y="513" on="0"/>
        <pt x="356" y="467" on="0"/>
        <pt x="366" y="458" on="1"/>
        <pt x="263" y="379" on="1"/>
        <pt x="220" y="468" on="1"/>
        <pt x="212" y="451" on="0"/>
        <pt x="184" y="391" on="0"/>
        <pt x="179" y="381" on="1"/>
        <pt x="72" y="457" on="1"/>
        <pt x="143" y="525" on="1"/>
        <pt x="68" y="534" on="0"/>
        <pt x="49" y="537" on="1"/>
        <pt x="89" y="664" on="1"/>
        <pt x="174" y="616" on="1"/>
        <pt x="154" y="710" on="1"/>
      </contour>
    </TTGlyph>
    <TTGlyph name="at" xMin="50" yMin="-233" xMax="1239" yMax="978">
      <contour>
        <pt x="799" y="434" on="1"/>
        <pt x="826" y="434" on="0"/>
        <pt x="847" y="476" on="0"/>
        <pt x="847" y="497" on="1"/>
        <pt x="847" y="563" on="0"/>
        <pt x="681" y="647" on="0"/>
        <pt x="577" y="647" on="1"/>
        <pt x="504" y="647" on="0"/>
        <pt x="366" y="588" on="0"/>
        <pt x="257" y="482" on="0"/>
        <pt x="191" y="321" on="0"/>
        <pt x="191" y="227" on="1"/>
        <pt x="191" y="79" on="0"/>
        <pt x="369" y="-93" on="0"/>
        <pt x="536" y="-93" on="1"/>
        <pt x="669" y="-93" on="0"/>
        <pt x="884" y="-9" on="0"/>
        <pt x="1023" y="137" on="0"/>
        <pt x="1097" y="327" on="0"/>
        <pt x="1097" y="435" on="1"/>
        <pt x="1097" y="616" on="0"/>
        <pt x="844" y="819" on="0"/>
        <pt x="627" y="838" on="1"/>
        <pt x="649" y="978" on="1"/>
        <pt x="921" y="960" on="0"/>
        <pt x="1239" y="665" on="0"/>
        <pt x="1239" y="436" on="1"/>
        <pt x="1239" y="305" on="0"/>
        <pt x="1140" y="65" on="0"/>
        <pt x="963" y="-122" on="0"/>
        <pt x="692" y="-233" on="0"/>
        <pt x="532" y="-233" on="1"/>
        <pt x="303" y="-233" on="0"/>
        <pt x="50" y="11" on="0"/>
        <pt x="50" y="220" on="1"/>
        <pt x="50" y="351" on="0"/>
        <pt x="145" y="571" on="0"/>
        <pt x="298" y="710" on="0"/>
        <pt x="485" y="787" on="0"/>
        <pt x="684" y="787" on="0"/>
        <pt x="867" y="720" on="0"/>
        <pt x="988" y="581" on="0"/>
        <pt x="988" y="416" on="0"/>
        <pt x="900" y="309" on="0"/>
        <pt x="834" y="309" on="1"/>
        <pt x="794" y="309" on="0"/>
        <pt x="755" y="330" on="1"/>
        <pt x="730" y="128" on="1"/>
        <pt x="806" y="128" on="1"/>
        <pt x="792" y="41" on="1"/>
        <pt x="736" y="9" on="0"/>
        <pt x="675" y="9" on="1"/>
        <pt x="650" y="9" on="0"/>
        <pt x="609" y="40" on="0"/>
        <pt x="605" y="60" on="1"/>
        <pt x="542" y="4" on="0"/>
        <pt x="379" y="4" on="0"/>
        <pt x="291" y="117" on="0"/>
        <pt x="291" y="216" on="1"/>
        <pt x="291" y="352" on="0"/>
        <pt x="451" y="543" on="0"/>
        <pt x="594" y="543" on="1"/>
        <pt x="676" y="543" on="0"/>
        <pt x="787" y="507" on="1"/>
        <pt x="783" y="455" on="1"/>
        <pt x="787" y="434" on="0"/>
      </contour>
      <contour>
        <pt x="493" y="133" on="1"/>
        <pt x="538" y="133" on="0"/>
        <pt x="600" y="197" on="0"/>
        <pt x="610" y="256" on="1"/>
        <pt x="634" y="407" on="1"/>
        <pt x="612" y="414" on="0"/>
        <pt x="586" y="414" on="1"/>
        <pt x="513" y="414" on="0"/>
        <pt x="430" y="305" on="0"/>
        <pt x="430" y="229" on="1"/>
        <pt x="430" y="133" on="0"/>
      </contour>
    </TTGlyph>
    <TTGlyph name="atilde" xMin="20" yMin="-10" xMax="532" yMax="710">
      <contour>
        <pt x="258" y="-10" on="0"/>
        <pt x="106" y="-10" on="0"/>
        <pt x="20" y="68" on="0"/>
        <pt x="20" y="209" on="0"/>
        <pt x="132" y="307" on="0"/>
        <pt x="241" y="307" on="1"/>
        <pt x="320" y="307" on="1"/>
        <pt x="320" y="343" on="1"/>
        <pt x="320" y="390" on="0"/>
        <pt x="202" y="390" on="0"/>
        <pt x="156" y="377" on="1"/>
        <pt x="156" y="320" on="1"/>
        <pt x="41" y="320" on="1"/>
        <pt x="41" y="469" on="1"/>
        <pt x="90" y="488" on="0"/>
        <pt x="221" y="510" on="0"/>
        <pt x="265" y="510" on="1"/>
        <pt x="352" y="510" on="0"/>
        <pt x="450" y="419" on="0"/>
        <pt x="450" y="343" on="1"/>
        <pt x="450" y="105" on="1"/>
        <pt x="532" y="105" on="1"/>
        <pt x="532" y="18" on="1"/>
        <pt x="489" y="-5" on="0"/>
        <pt x="424" y="-5" on="1"/>
        <pt x="320" y="-5" on="0"/>
        <pt x="320" y="65" on="1"/>
      </contour>
      <contour>
        <pt x="191" y="110" on="1"/>
        <pt x="260" y="110" on="0"/>
        <pt x="320" y="192" on="1"/>
        <pt x="320" y="196" on="1"/>
        <pt x="240" y="196" on="1"/>
        <pt x="194" y="196" on="0"/>
        <pt x="150" y="164" on="0"/>
        <pt x="150" y="110" on="0"/>
      </contour>
      <contour>
        <pt x="315" y="668" on="1"/>
        <pt x="378" y="710" on="1"/>
        <pt x="433" y="667" on="1"/>
        <pt x="415" y="619" on="0"/>
        <pt x="356" y="562" on="0"/>
        <pt x="287" y="562" on="0"/>
        <pt x="198" y="599" on="1"/>
        <pt x="135" y="557" on="1"/>
        <pt x="80" y="600" on="1"/>
        <pt x="98" y="648" on="0"/>
        <pt x="157" y="705" on="0"/>
        <pt x="195" y="705" on="1"/>
        <pt x="211" y="705" on="0"/>
        <pt x="230" y="699" on="0"/>
        <pt x="241" y="696" on="0"/>
        <pt x="264" y="688" on="0"/>
        <pt x="270" y="686" on="1"/>
        <pt x="285" y="679" on="0"/>
      </contour>
    </TTGlyph>
    <TTGlyph name="b" xMin="10" yMin="-10" xMax="547" yMax="750">
      <contour>
        <pt x="87" y="640" on="1"/>
        <pt x="10" y="640" on="1"/>
        <pt x="10" y="750" on="1"/>
        <pt x="217" y="750" on="1"/>
        <pt x="217" y="460" on="1"/>
        <pt x="262" y="510" on="0"/>
        <pt x="338" y="510" on="1"/>
        <pt x="438" y="510" on="0"/>
        <pt x="547" y="363" on="0"/>
        <pt x="547" y="136" on="0"/>
        <pt x="413" y="-10" on="0"/>
        <pt x="286" y="-10" on="1"/>
        <pt x="192" y="-10" on="0"/>
        <pt x="87" y="20" on="1"/>
      </contour>
      <contour>
        <pt x="417" y="308" on="0"/>
        <pt x="367" y="390" on="0"/>
        <pt x="275" y="390" on="0"/>
        <pt x="217" y="296" on="0"/>
        <pt x="217" y="230" on="1"/>
        <pt x="217" y="122" on="1"/>
        <pt x="244" y="110" on="0"/>
        <pt x="278" y="110" on="1"/>
        <pt x="347" y="110" on="0"/>
        <pt x="417" y="186" on="0"/>
      </contour>
    </TTGlyph>
    <TTGlyph name="backslash" xMin="10" yMin="-30" xMax="410" yMax="700">
      <contour>
        <pt x="120" y="700" on="1"/>
        <pt x="410" y="-30" on="1"/>
        <pt x="300" y="-30" on="1"/>
        <pt x="10" y="700" on="1"/>
      </contour>
    </TTGlyph>
    <TTGlyph name="bar" xMin="80" yMin="-160" xMax="190" yMax="750">
      <contour>
        <pt x="190" y="750" on="1"/>
        <pt x="190" y="-160" on="1"/>
        <pt x="80" y="-160" on="1"/>
        <pt x="80" y="750" on="1"/>
      </contour>
    </TTGlyph>
    <TTGlyph name="braceleft" xMin="12" yMin="-200" xMax="301" yMax="795">
      <contour>
        <pt x="93" y="-40" on="1"/>
        <pt x="93" y="215" on="1"/>
        <pt x="93" y="232" on="0"/>
        <pt x="85" y="258" on="0"/>
        <pt x="46" y="287" on="0"/>
        <pt x="12" y="293" on="1"/>
        <pt x="12" y="382" on="1"/>
        <pt x="93" y="398" on="0"/>
        <pt x="93" y="475" on="1"/>
        <pt x="93" y="635" on="1"/>
        <pt x="93" y="719" on="0"/>
        <pt x="169" y="795" on="0"/>
        <pt x="253" y="795" on="1"/>
        <pt x="301" y="795" on="1"/>
        <pt x="301" y="685" on="1"/>
        <pt x="263" y="685" on="1"/>
        <pt x="213" y="685" on="0"/>
        <pt x="213" y="635" on="1"/>
        <pt x="213" y="500" on="1"/>
        <pt x="213" y="359" on="0"/>
        <pt x="147" y="340" on="1"/>
        <pt x="213" y="322" on="0"/>
        <pt x="213" y="185" on="1"/>
        <pt x="213" y="-30" on="1"/>
        <pt x="213" y="-90" on="0"/>
        <pt x="263" y="-90" on="1"/>
        <pt x="301" y="-90" on="1"/>
        <pt x="301" y="-200" on="1"/>
        <pt x="253" y="-200" on="1"/>
        <pt x="168" y="-200" on="0"/>
        <pt x="93" y="-125" on="0"/>
      </contour>
    </TTGlyph>
    <TTGlyph name="braceright" xMin="12" yMin="-200" xMax="301" yMax="795">
      <contour>
        <pt x="220" y="215" on="1"/>
        <pt x="220" y="-40" on="1"/>
        <pt x="220" y="-125" on="0"/>
        <pt x="145" y="-200" on="0"/>
        <pt x="60" y="-200" on="1"/>
        <pt x="12" y="-200" on="1"/>
        <pt x="12" y="-90" on="1"/>
        <pt x="50" y="-90" on="1"/>
        <pt x="100" y="-90" on="0"/>
        <pt x="100" y="-30" on="1"/>
        <pt x="100" y="185" on="1"/>
        <pt x="100" y="322" on="0"/>
        <pt x="166" y="340" on="1"/>
        <pt x="100" y="359" on="0"/>
        <pt x="100" y="500" on="1"/>
        <pt x="100" y="635" on="1"/>
        <pt x="100" y="685" on="0"/>
        <pt x="50" y="685" on="1"/>
        <pt x="12" y="685" on="1"/>
        <pt x="12" y="795" on="1"/>
        <pt x="60" y="795" on="1"/>
        <pt x="144" y="795" on="0"/>
        <pt x="220" y="719" on="0"/>
        <pt x="220" y="635" on="1"/>
        <pt x="220" y="475" on="1"/>
        <pt x="220" y="398" on="0"/>
        <pt x="301" y="382" on="1"/>
        <pt x="301" y="293" on="1"/>
        <pt x="267" y="287" on="0"/>
        <pt x="228" y="258" on="0"/>
        <pt x="220" y="232" on="0"/>
      </contour>
    </TTGlyph>
    <TTGlyph name="bracketleft" xMin="40" yMin="-200" xMax="248" yMax="795">
      <contour>
        <pt x="248" y="795" on="1"/>
        <pt x="248" y="685" on="1"/>
        <pt x="160" y="685" on="1"/>
        <pt x="160" y="-90" on="1"/>
        <pt x="248" y="-90" on="1"/>
        <pt x="248" y="-200" on="1"/>
        <pt x="40" y="-200" on="1"/>
        <pt x="40" y="795" on="1"/>
      </contour>
    </TTGlyph>
    <TTGlyph name="bracketright" xMin="40" yMin="-200" xMax="248" yMax="795">
      <contour>
        <pt x="40" y="685" on="1"/>
        <pt x="40" y="795" on="1"/>
        <pt x="248" y="795" on="1"/>
        <pt x="248" y="-200" on="1"/>
        <pt x="40" y="-200" on="1"/>
        <pt x="40" y="-90" on="1"/>
        <pt x="128" y="-90" on="1"/>
        <pt x="128" y="685" on="1"/>
      </contour>
    </TTGlyph>
    <TTGlyph name="breve" xMin="82" yMin="750" xMax="458" yMax="924">
      <contour>
        <pt x="207" y="858" on="0"/>
        <pt x="333" y="858" on="0"/>
        <pt x="399" y="924" on="1"/>
        <pt x="458" y="864" on="1"/>
        <pt x="371" y="750" on="0"/>
        <pt x="169" y="750" on="0"/>
        <pt x="82" y="864" on="1"/>
        <pt x="141" y="924" on="1"/>
      </contour>
    </TTGlyph>
    <TTGlyph name="brokenbar" xMin="80" yMin="-160" xMax="205" yMax="750">
      <contour>
        <pt x="205" y="240" on="1"/>
        <pt x="205" y="-160" on="1"/>
        <pt x="80" y="-160" on="1"/>
        <pt x="80" y="240" on="1"/>
      </contour>
      <contour>
        <pt x="205" y="750" on="1"/>
        <pt x="205" y="350" on="1"/>
        <pt x="80" y="350" on="1"/>
        <pt x="80" y="750" on="1"/>
      </contour>
    </TTGlyph>
    <TTGlyph name="bullet" xMin="70" yMin="200" xMax="290" yMax="420">
      <contour>
        <pt x="134" y="200" on="0"/>
        <pt x="70" y="264" on="0"/>
        <pt x="70" y="355" on="0"/>
        <pt x="134" y="420" on="0"/>
        <pt x="225" y="420" on="0"/>
        <pt x="290" y="355" on="0"/>
        <pt x="290" y="264" on="0"/>
        <pt x="225" y="200" on="0"/>
      </contour>
    </TTGlyph>
    <TTGlyph name="c" xMin="35" yMin="-10" xMax="480" yMax="510">
      <contour>
        <pt x="480" y="57" on="1"/>
        <pt x="402" y="-10" on="0"/>
        <pt x="164" y="-10" on="0"/>
        <pt x="35" y="137" on="0"/>
        <pt x="35" y="363" on="0"/>
        <pt x="164" y="510" on="0"/>
        <pt x="379" y="510" on="0"/>
        <pt x="456" y="469" on="1"/>
        <pt x="456" y="305" on="1"/>
        <pt x="341" y="305" on="1"/>
        <pt x="341" y="382" on="1"/>
        <pt x="314" y="390" on="0"/>
        <pt x="280" y="390" on="1"/>
        <pt x="226" y="390" on="0"/>
        <pt x="165" y="312" on="0"/>
        <pt x="165" y="188" on="0"/>
        <pt x="226" y="110" on="0"/>
        <pt x="319" y="110" on="0"/>
        <pt x="382" y="128" on="0"/>
        <pt x="407" y="143" on="0"/>
        <pt x="428" y="158" on="1"/>
      </contour>
    </TTGlyph>
    <TTGlyph name="cacute" xMin="35" yMin="-10" xMax="480" yMax="793">
      <contour>
        <pt x="480" y="57" on="1"/>
        <pt x="402" y="-10" on="0"/>
        <pt x="164" y="-10" on="0"/>
        <pt x="35" y="137" on="0"/>
        <pt x="35" y="363" on="0"/>
        <pt x="164" y="510" on="0"/>
        <pt x="379" y="510" on="0"/>
        <pt x="456" y="469" on="1"/>
        <pt x="456" y="305" on="1"/>
        <pt x="341" y="305" on="1"/>
        <pt x="341" y="382" on="1"/>
        <pt x="314" y="390" on="0"/>
        <pt x="280" y="390" on="1"/>
        <pt x="226" y="390" on="0"/>
        <pt x="165" y="312" on="0"/>
        <pt x="165" y="188" on="0"/>
        <pt x="226" y="110" on="0"/>
        <pt x="319" y="110" on="0"/>
        <pt x="382" y="128" on="0"/>
        <pt x="407" y="143" on="0"/>
        <pt x="428" y="158" on="1"/>
      </contour>
      <contour>
        <pt x="433" y="718" on="1"/>
        <pt x="305" y="560" on="1"/>
        <pt x="221" y="610" on="1"/>
        <pt x="322" y="793" on="1"/>
      </contour>
    </TTGlyph>
    <TTGlyph name="caron" xMin="87" yMin="750" xMax="429" yMax="947">
      <contour>
        <pt x="217" y="750" on="1"/>
        <pt x="87" y="897" on="1"/>
        <pt x="149" y="947" on="1"/>
        <pt x="258" y="857" on="1"/>
        <pt x="367" y="947" on="1"/>
        <pt x="429" y="897" on="1"/>
        <pt x="299" y="750" on="1"/>
      </contour>
    </TTGlyph>
    <TTGlyph name="ccaron" xMin="35" yMin="-10" xMax="480" yMax="747">
      <contour>
        <pt x="480" y="57" on="1"/>
        <pt x="402" y="-10" on="0"/>
        <pt x="164" y="-10" on="0"/>
        <pt x="35" y="137" on="0"/>
        <pt x="35" y="363" on="0"/>
        <pt x="164" y="510" on="0"/>
        <pt x="379" y="510" on="0"/>
        <pt x="456" y="469" on="1"/>
        <pt x="456" y="305" on="1"/>
        <pt x="341" y="305" on="1"/>
        <pt x="341" y="382" on="1"/>
        <pt x="314" y="390" on="0"/>
        <pt x="280" y="390" on="1"/>
        <pt x="226" y="390" on="0"/>
        <pt x="165" y="312" on="0"/>
        <pt x="165" y="188" on="0"/>
        <pt x="226" y="110" on="0"/>
        <pt x="319" y="110" on="0"/>
        <pt x="382" y="128" on="0"/>
        <pt x="407" y="143" on="0"/>
        <pt x="428" y="158" on="1"/>
      </contour>
      <contour>
        <pt x="232" y="550" on="1"/>
        <pt x="102" y="697" on="1"/>
        <pt x="164" y="747" on="1"/>
        <pt x="273" y="657" on="1"/>
        <pt x="382" y="747" on="1"/>
        <pt x="444" y="697" on="1"/>
        <pt x="314" y="550" on="1"/>
      </contour>
    </TTGlyph>
    <TTGlyph name="ccedilla" xMin="35" yMin="-260" xMax="480" yMax="510">
      <contour>
        <pt x="143" y="5" on="0"/>
        <pt x="35" y="147" on="0"/>
        <pt x="35" y="363" on="0"/>
        <pt x="164" y="510" on="0"/>
        <pt x="379" y="510" on="0"/>
        <pt x="456" y="469" on="1"/>
        <pt x="456" y="305" on="1"/>
        <pt x="341" y="305" on="1"/>
        <pt x="341" y="382" on="1"/>
        <pt x="314" y="390" on="0"/>
        <pt x="280" y="390" on="1"/>
        <pt x="226" y="390" on="0"/>
        <pt x="165" y="312" on="0"/>
        <pt x="165" y="188" on="0"/>
        <pt x="226" y="110" on="0"/>
        <pt x="319" y="110" on="0"/>
        <pt x="382" y="128" on="0"/>
        <pt x="407" y="143" on="0"/>
        <pt x="428" y="158" on="1"/>
        <pt x="480" y="57" on="1"/>
        <pt x="437" y="19" on="0"/>
        <pt x="371" y="2" on="1"/>
        <pt x="332" y="-22" on="1"/>
        <pt x="405" y="-41" on="0"/>
        <pt x="405" y="-131" on="1"/>
        <pt x="405" y="-196" on="0"/>
        <pt x="326" y="-260" on="0"/>
        <pt x="206" y="-260" on="0"/>
        <pt x="157" y="-238" on="1"/>
        <pt x="191" y="-145" on="1"/>
        <pt x="210" y="-155" on="0"/>
        <pt x="297" y="-155" on="0"/>
        <pt x="297" y="-127" on="1"/>
        <pt x="297" y="-96" on="0"/>
        <pt x="259" y="-96" on="1"/>
        <pt x="238" y="-96" on="0"/>
        <pt x="220" y="-104" on="1"/>
        <pt x="199" y="-35" on="1"/>
        <pt x="241" y="-7" on="1"/>
      </contour>
    </TTGlyph>
    <TTGlyph name="ccircumflex" xMin="35" yMin="-10" xMax="480" yMax="747">
      <contour>
        <pt x="480" y="57" on="1"/>
        <pt x="402" y="-10" on="0"/>
        <pt x="164" y="-10" on="0"/>
        <pt x="35" y="137" on="0"/>
        <pt x="35" y="363" on="0"/>
        <pt x="164" y="510" on="0"/>
        <pt x="379" y="510" on="0"/>
        <pt x="456" y="469" on="1"/>
        <pt x="456" y="305" on="1"/>
        <pt x="341" y="305" on="1"/>
        <pt x="341" y="382" on="1"/>
        <pt x="314" y="390" on="0"/>
        <pt x="280" y="390" on="1"/>
        <pt x="226" y="390" on="0"/>
        <pt x="165" y="312" on="0"/>
        <pt x="165" y="188" on="0"/>
        <pt x="226" y="110" on="0"/>
        <pt x="319" y="110" on="0"/>
        <pt x="382" y="128" on="0"/>
        <pt x="407" y="143" on="0"/>
        <pt x="428" y="158" on="1"/>
      </contour>
      <contour>
        <pt x="102" y="600" on="1"/>
        <pt x="232" y="747" on="1"/>
        <pt x="314" y="747" on="1"/>
        <pt x="444" y="600" on="1"/>
        <pt x="382" y="550" on="1"/>
        <pt x="273" y="640" on="1"/>
        <pt x="164" y="550" on="1"/>
      </contour>
    </TTGlyph>
    <TTGlyph name="cedilla" xMin="113" yMin="-258" xMax="361" yMax="10">
      <contour>
        <pt x="361" y="-129" on="1"/>
        <pt x="361" y="-194" on="0"/>
        <pt x="282" y="-258" on="0"/>
        <pt x="162" y="-258" on="0"/>
        <pt x="113" y="-236" on="1"/>
        <pt x="147" y="-143" on="1"/>
        <pt x="166" y="-153" on="0"/>
        <pt x="253" y="-153" on="0"/>
        <pt x="253" y="-125" on="1"/>
        <pt x="253" y="-94" on="0"/>
        <pt x="215" y="-94" on="1"/>
        <pt x="194" y="-94" on="0"/>
        <pt x="176" y="-102" on="1"/>
        <pt x="155" y="-33" on="1"/>
        <pt x="221" y="10" on="1"/>
        <pt x="338" y="10" on="1"/>
        <pt x="288" y="-20" on="1"/>
        <pt x="361" y="-39" on="0"/>
      </contour>
    </TTGlyph>
    <TTGlyph name="cent" xMin="35" yMin="-82" xMax="480" yMax="582">
      <contour>
        <pt x="335" y="582" on="1"/>
        <pt x="335" y="507" on="1"/>
        <pt x="399" y="498" on="0"/>
        <pt x="456" y="469" on="1"/>
        <pt x="456" y="305" on="1"/>
        <pt x="341" y="305" on="1"/>
        <pt x="341" y="382" on="1"/>
        <pt x="314" y="390" on="0"/>
        <pt x="280" y="390" on="1"/>
        <pt x="226" y="390" on="0"/>
        <pt x="165" y="312" on="0"/>
        <pt x="165" y="188" on="0"/>
        <pt x="226" y="110" on="0"/>
        <pt x="319" y="110" on="0"/>
        <pt x="382" y="128" on="0"/>
        <pt x="407" y="143" on="0"/>
        <pt x="428" y="158" on="1"/>
        <pt x="480" y="57" on="1"/>
        <pt x="421" y="6" on="0"/>
        <pt x="330" y="-6" on="1"/>
        <pt x="330" y="-82" on="1"/>
        <pt x="215" y="-82" on="1"/>
        <pt x="215" y="-3" on="1"/>
        <pt x="129" y="17" on="0"/>
        <pt x="35" y="155" on="0"/>
        <pt x="35" y="347" on="0"/>
        <pt x="132" y="485" on="0"/>
        <pt x="220" y="504" on="1"/>
        <pt x="220" y="582" on="1"/>
      </contour>
    </TTGlyph>
    <TTGlyph name="circumflex" xMin="87" yMin="750" xMax="429" yMax="947">
      <contour>
        <pt x="87" y="800" on="1"/>
        <pt x="217" y="947" on="1"/>
        <pt x="299" y="947" on="1"/>
        <pt x="429" y="800" on="1"/>
        <pt x="367" y="750" on="1"/>
        <pt x="258" y="840" on="1"/>
        <pt x="149" y="750" on="1"/>
      </contour>
    </TTGlyph>
    <TTGlyph name="colon" xMin="70" yMin="-10" xMax="217" yMax="420">
      <contour>
        <pt x="113" y="-10" on="0"/>
        <pt x="70" y="33" on="0"/>
        <pt x="70" y="94" on="0"/>
        <pt x="113" y="137" on="0"/>
        <pt x="174" y="137" on="0"/>
        <pt x="217" y="94" on="0"/>
        <pt x="217" y="33" on="0"/>
        <pt x="174" y="-10" on="0"/>
      </contour>
      <contour>
        <pt x="113" y="273" on="0"/>
        <pt x="70" y="316" on="0"/>
        <pt x="70" y="377" on="0"/>
        <pt x="113" y="420" on="0"/>
        <pt x="174" y="420" on="0"/>
        <pt x="217" y="377" on="0"/>
        <pt x="217" y="316" on="0"/>
        <pt x="174" y="273" on="0"/>
      </contour>
    </TTGlyph>
    <TTGlyph name="comma" xMin="70" yMin="-171" xMax="223" yMax="120">
      <contour>
        <pt x="100" y="-12" on="0"/>
        <pt x="74" y="32" on="0"/>
        <pt x="74" y="81" on="0"/>
        <pt x="116" y="120" on="0"/>
        <pt x="179" y="120" on="0"/>
        <pt x="223" y="79" on="0"/>
        <pt x="223" y="-2" on="0"/>
        <pt x="168" y="-128" on="0"/>
        <pt x="127" y="-171" on="1"/>
        <pt x="70" y="-136" on="1"/>
        <pt x="119" y="-75" on="0"/>
        <pt x="124" y="-21" on="1"/>
      </contour>
    </TTGlyph>
    <TTGlyph name="copyright" xMin="24" yMin="-55" xMax="811" yMax="742">
      <contour>
        <pt x="235" y="-55" on="0"/>
        <pt x="24" y="176" on="0"/>
        <pt x="24" y="519" on="0"/>
        <pt x="234" y="742" on="0"/>
        <pt x="601" y="742" on="0"/>
        <pt x="811" y="519" on="0"/>
        <pt x="811" y="348" on="1"/>
        <pt x="811" y="236" on="0"/>
        <pt x="721" y="56" on="0"/>
        <pt x="540" y="-55" on="0"/>
        <pt x="418" y="-55" on="1"/>
      </contour>
      <contour>
        <pt x="284" y="645" on="0"/>
        <pt x="131" y="478" on="0"/>
        <pt x="131" y="217" on="0"/>
        <pt x="285" y="41" on="0"/>
        <pt x="550" y="41" on="0"/>
        <pt x="704" y="217" on="0"/>
        <pt x="704" y="478" on="0"/>
        <pt x="551" y="645" on="0"/>
      </contour>
      <contour>
        <pt x="426" y="556" on="1"/>
        <pt x="495" y="556" on="0"/>
        <pt x="591" y="468" on="0"/>
        <pt x="591" y="397" on="1"/>
        <pt x="474" y="396" on="1"/>
        <pt x="474" y="420" on="0"/>
        <pt x="449" y="444" on="0"/>
        <pt x="431" y="444" on="1"/>
        <pt x="393" y="444" on="0"/>
        <pt x="344" y="386" on="0"/>
        <pt x="344" y="299" on="0"/>
        <pt x="393" y="241" on="0"/>
        <pt x="433" y="241" on="1"/>
        <pt x="456" y="241" on="0"/>
        <pt x="509" y="261" on="0"/>
        <pt x="525" y="280" on="1"/>
        <pt x="600" y="208" on="1"/>
        <pt x="538" y="130" on="0"/>
        <pt x="336" y="130" on="0"/>
        <pt x="220" y="249" on="0"/>
        <pt x="220" y="434" on="0"/>
        <pt x="336" y="556" on="0"/>
      </contour>
    </TTGlyph>
    <TTGlyph name="currency" xMin="8" yMin="49" xMax="555" yMax="509">
      <contour>
        <pt x="81" y="186" on="1"/>
        <pt x="64" y="234" on="0"/>
        <pt x="64" y="331" on="0"/>
        <pt x="81" y="371" on="1"/>
        <pt x="8" y="418" on="1"/>
        <pt x="75" y="509" on="1"/>
        <pt x="140" y="449" on="1"/>
        <pt x="195" y="495" on="0"/>
        <pt x="363" y="495" on="0"/>
        <pt x="422" y="449" on="1"/>
        <pt x="488" y="509" on="1"/>
        <pt x="555" y="418" on="1"/>
        <pt x="481" y="370" on="1"/>
        <pt x="498" y="330" on="0"/>
        <pt x="498" y="233" on="0"/>
        <pt x="481" y="187" on="1"/>
        <pt x="555" y="141" on="1"/>
        <pt x="489" y="50" on="1"/>
        <pt x="426" y="105" on="1"/>
        <pt x="370" y="55" on="0"/>
        <pt x="192" y="55" on="0"/>
        <pt x="136" y="105" on="1"/>
        <pt x="75" y="49" on="1"/>
        <pt x="8" y="141" on="1"/>
      </contour>
      <contour>
        <pt x="234" y="390" on="0"/>
        <pt x="179" y="327" on="0"/>
        <pt x="179" y="228" on="0"/>
        <pt x="234" y="160" on="0"/>
        <pt x="328" y="160" on="0"/>
        <pt x="383" y="228" on="0"/>
        <pt x="383" y="327" on="0"/>
        <pt x="328" y="390" on="0"/>
      </contour>
    </TTGlyph>
    <TTGlyph name="d" xMin="35" yMin="-10" xMax="577" yMax="750">
      <contour>
        <pt x="495" y="750" on="1"/>
        <pt x="495" y="105" on="1"/>
        <pt x="577" y="105" on="1"/>
        <pt x="577" y="18" on="1"/>
        <pt x="534" y="-5" on="0"/>
        <pt x="469" y="-5" on="1"/>
        <pt x="370" y="-5" on="0"/>
        <pt x="365" y="55" on="1"/>
        <pt x="319" y="-10" on="0"/>
        <pt x="247" y="-10" on="1"/>
        <pt x="145" y="-10" on="0"/>
        <pt x="35" y="135" on="0"/>
        <pt x="35" y="362" on="0"/>
        <pt x="162" y="510" on="0"/>
        <pt x="281" y="510" on="1"/>
        <pt x="315" y="510" on="0"/>
        <pt x="365" y="504" on="1"/>
        <pt x="365" y="640" on="1"/>
        <pt x="288" y="640" on="1"/>
        <pt x="288" y="750" on="1"/>
      </contour>
      <contour>
        <pt x="165" y="190" on="0"/>
        <pt x="216" y="110" on="0"/>
        <pt x="306" y="110" on="0"/>
        <pt x="365" y="204" on="0"/>
        <pt x="365" y="270" on="1"/>
        <pt x="365" y="373" on="1"/>
        <pt x="326" y="390" on="0"/>
        <pt x="288" y="390" on="1"/>
        <pt x="232" y="390" on="0"/>
        <pt x="165" y="315" on="0"/>
      </contour>
    </TTGlyph>
    <TTGlyph name="degree" xMin="60" yMin="502" xMax="344" yMax="784">
      <contour>
        <pt x="156" y="693" on="0"/>
        <pt x="156" y="593" on="0"/>
        <pt x="247" y="593" on="0"/>
        <pt x="247" y="693" on="0"/>
      </contour>
      <contour>
        <pt x="60" y="578" on="0"/>
        <pt x="60" y="708" on="0"/>
        <pt x="132" y="784" on="0"/>
        <pt x="272" y="784" on="0"/>
        <pt x="344" y="708" on="0"/>
        <pt x="344" y="578" on="0"/>
        <pt x="272" y="502" on="0"/>
        <pt x="132" y="502" on="0"/>
      </contour>
    </TTGlyph>
    <TTGlyph name="dieresis" xMin="96" yMin="798" xMax="456" yMax="945">
      <contour>
        <pt x="133" y="798" on="0"/>
        <pt x="96" y="839" on="0"/>
        <pt x="96" y="901" on="0"/>
        <pt x="137" y="945" on="0"/>
        <pt x="196" y="945" on="0"/>
        <pt x="233" y="903" on="0"/>
        <pt x="233" y="842" on="0"/>
        <pt x="192" y="798" on="0"/>
      </contour>
      <contour>
        <pt x="356" y="798" on="0"/>
        <pt x="319" y="839" on="0"/>
        <pt x="319" y="901" on="0"/>
        <pt x="360" y="945" on="0"/>
        <pt x="419" y="945" on="0"/>
        <pt x="456" y="903" on="0"/>
        <pt x="456" y="842" on="0"/>
        <pt x="415" y="798" on="0"/>
      </contour>
    </TTGlyph>
    <TTGlyph name="divide" xMin="60" yMin="93" xMax="370" yMax="597">
      <contour>
        <pt x="370" y="283" on="1"/>
        <pt x="60" y="283" on="1"/>
        <pt x="60" y="400" on="1"/>
        <pt x="370" y="400" on="1"/>
      </contour>
      <contour>
        <pt x="190" y="93" on="0"/>
        <pt x="147" y="136" on="0"/>
        <pt x="147" y="197" on="0"/>
        <pt x="190" y="240" on="0"/>
        <pt x="251" y="240" on="0"/>
        <pt x="294" y="197" on="0"/>
        <pt x="294" y="136" on="0"/>
        <pt x="251" y="93" on="0"/>
      </contour>
      <contour>
        <pt x="190" y="450" on="0"/>
        <pt x="147" y="493" on="0"/>
        <pt x="147" y="554" on="0"/>
        <pt x="190" y="597" on="0"/>
        <pt x="251" y="597" on="0"/>
        <pt x="294" y="554" on="0"/>
        <pt x="294" y="493" on="0"/>
        <pt x="251" y="450" on="0"/>
      </contour>
    </TTGlyph>
    <TTGlyph name="dollar" xMin="36" yMin="-61" xMax="539" yMax="769">
      <contour>
        <pt x="339" y="-61" on="1"/>
        <pt x="224" y="-61" on="1"/>
        <pt x="224" y="13" on="1"/>
        <pt x="114" y="20" on="0"/>
        <pt x="36" y="63" on="1"/>
        <pt x="36" y="243" on="1"/>
        <pt x="151" y="243" on="1"/>
        <pt x="151" y="152" on="1"/>
        <pt x="203" y="132" on="0"/>
        <pt x="328" y="132" on="0"/>
        <pt x="408" y="178" on="0"/>
        <pt x="408" y="210" on="1"/>
        <pt x="408" y="237" on="0"/>
        <pt x="376" y="256" on="1"/>
        <pt x="354" y="270" on="0"/>
        <pt x="280" y="303" on="0"/>
        <pt x="253" y="316" on="0"/>
        <pt x="191" y="345" on="0"/>
        <pt x="163" y="361" on="0"/>
        <pt x="112" y="390" on="0"/>
        <pt x="87" y="415" on="0"/>
        <pt x="72" y="433" on="1"/>
        <pt x="45" y="465" on="0"/>
        <pt x="45" y="516" on="1"/>
        <pt x="45" y="583" on="0"/>
        <pt x="142" y="673" on="0"/>
        <pt x="224" y="688" on="1"/>
        <pt x="224" y="769" on="1"/>
        <pt x="339" y="769" on="1"/>
        <pt x="339" y="696" on="1"/>
        <pt x="451" y="688" on="0"/>
        <pt x="512" y="656" on="1"/>
        <pt x="512" y="477" on="1"/>
        <pt x="397" y="477" on="1"/>
        <pt x="397" y="565" on="1"/>
        <pt x="366" y="577" on="0"/>
        <pt x="246" y="577" on="0"/>
        <pt x="174" y="544" on="0"/>
        <pt x="174" y="514" on="1"/>
        <pt x="174" y="492" on="0"/>
        <pt x="202" y="476" on="1"/>
        <pt x="223" y="464" on="0"/>
        <pt x="253" y="451" on="0"/>
        <pt x="275" y="441" on="0"/>
        <pt x="294" y="433" on="1"/>
        <pt x="436" y="373" on="0"/>
        <pt x="539" y="269" on="0"/>
        <pt x="539" y="121" on="0"/>
        <pt x="432" y="29" on="0"/>
        <pt x="339" y="16" on="1"/>
      </contour>
    </TTGlyph>
    <TTGlyph name="dotaccent" xMin="108" yMin="782" xMax="245" yMax="929">
      <contour>
        <pt x="145" y="782" on="0"/>
        <pt x="108" y="823" on="0"/>
        <pt x="108" y="885" on="0"/>
        <pt x="149" y="929" on="0"/>
        <pt x="208" y="929" on="0"/>
        <pt x="245" y="887" on="0"/>
        <pt x="245" y="826" on="0"/>
        <pt x="204" y="782" on="0"/>
      </contour>
    </TTGlyph>
    <TTGlyph name="dotlessi" xMin="40" yMin="0" xMax="335" yMax="500">
      <contour>
        <pt x="41" y="390" on="1"/>
        <pt x="41" y="500" on="1"/>
        <pt x="248" y="500" on="1"/>
        <pt x="248" y="110" on="1"/>
        <pt x="335" y="110" on="1"/>
        <pt x="335" y="0" on="1"/>
        <pt x="40" y="0" on="1"/>
        <pt x="40" y="110" on="1"/>
        <pt x="118" y="110" on="1"/>
        <pt x="118" y="390" on="1"/>
      </contour>
    </TTGlyph>
    <TTGlyph name="e" xMin="35" yMin="-10" xMax="503" yMax="510">
      <contour>
        <pt x="503" y="254" on="1"/>
        <pt x="503" y="201" on="1"/>
        <pt x="165" y="201" on="1"/>
        <pt x="168" y="161" on="0"/>
        <pt x="229" y="110" on="0"/>
        <pt x="311" y="110" on="0"/>
        <pt x="368" y="122" on="0"/>
        <pt x="391" y="132" on="0"/>
        <pt x="414" y="145" on="1"/>
        <pt x="438" y="158" on="1"/>
        <pt x="490" y="57" on="1"/>
        <pt x="408" y="-10" on="0"/>
        <pt x="164" y="-10" on="0"/>
        <pt x="35" y="137" on="0"/>
        <pt x="35" y="363" on="0"/>
        <pt x="164" y="510" on="0"/>
        <pt x="387" y="510" on="0"/>
        <pt x="503" y="366" on="0"/>
      </contour>
      <contour>
        <pt x="369" y="342" on="0"/>
        <pt x="322" y="390" on="0"/>
        <pt x="235" y="390" on="0"/>
        <pt x="178" y="341" on="0"/>
        <pt x="169" y="302" on="1"/>
        <pt x="373" y="302" on="1"/>
      </contour>
    </TTGlyph>
    <TTGlyph name="eacute" xMin="35" yMin="-10" xMax="503" yMax="793">
      <contour>
        <pt x="503" y="254" on="1"/>
        <pt x="503" y="201" on="1"/>
        <pt x="165" y="201" on="1"/>
        <pt x="168" y="161" on="0"/>
        <pt x="229" y="110" on="0"/>
        <pt x="311" y="110" on="0"/>
        <pt x="368" y="122" on="0"/>
        <pt x="391" y="132" on="0"/>
        <pt x="414" y="145" on="1"/>
        <pt x="438" y="158" on="1"/>
        <pt x="490" y="57" on="1"/>
        <pt x="408" y="-10" on="0"/>
        <pt x="164" y="-10" on="0"/>
        <pt x="35" y="137" on="0"/>
        <pt x="35" y="363" on="0"/>
        <pt x="164" y="510" on="0"/>
        <pt x="387" y="510" on="0"/>
        <pt x="503" y="366" on="0"/>
      </contour>
      <contour>
        <pt x="369" y="342" on="0"/>
        <pt x="322" y="390" on="0"/>
        <pt x="235" y="390" on="0"/>
        <pt x="178" y="341" on="0"/>
        <pt x="169" y="302" on="1"/>
        <pt x="373" y="302" on="1"/>
      </contour>
      <contour>
        <pt x="427" y="718" on="1"/>
        <pt x="299" y="560" on="1"/>
        <pt x="215" y="610" on="1"/>
        <pt x="316" y="793" on="1"/>
      </contour>
    </TTGlyph>
    <TTGlyph name="ebreve" xMin="35" yMin="-10" xMax="503" yMax="724">
      <contour>
        <pt x="503" y="254" on="1"/>
        <pt x="503" y="201" on="1"/>
        <pt x="165" y="201" on="1"/>
        <pt x="168" y="161" on="0"/>
        <pt x="229" y="110" on="0"/>
        <pt x="311" y="110" on="0"/>
        <pt x="368" y="122" on="0"/>
        <pt x="391" y="132" on="0"/>
        <pt x="414" y="145" on="1"/>
        <pt x="438" y="158" on="1"/>
        <pt x="490" y="57" on="1"/>
        <pt x="408" y="-10" on="0"/>
        <pt x="164" y="-10" on="0"/>
        <pt x="35" y="137" on="0"/>
        <pt x="35" y="363" on="0"/>
        <pt x="164" y="510" on="0"/>
        <pt x="387" y="510" on="0"/>
        <pt x="503" y="366" on="0"/>
      </contour>
      <contour>
        <pt x="369" y="342" on="0"/>
        <pt x="322" y="390" on="0"/>
        <pt x="235" y="390" on="0"/>
        <pt x="178" y="341" on="0"/>
        <pt x="169" y="302" on="1"/>
        <pt x="373" y="302" on="1"/>
      </contour>
      <contour>
        <pt x="222" y="658" on="0"/>
        <pt x="348" y="658" on="0"/>
        <pt x="414" y="724" on="1"/>
        <pt x="473" y="664" on="1"/>
        <pt x="386" y="550" on="0"/>
        <pt x="184" y="550" on="0"/>
        <pt x="97" y="664" on="1"/>
        <pt x="156" y="724" on="1"/>
      </contour>
    </TTGlyph>
    <TTGlyph name="ecaron" xMin="35" yMin="-10" xMax="503" yMax="747">
      <contour>
        <pt x="503" y="254" on="1"/>
        <pt x="503" y="201" on="1"/>
        <pt x="165" y="201" on="1"/>
        <pt x="168" y="161" on="0"/>
        <pt x="229" y="110" on="0"/>
        <pt x="311" y="110" on="0"/>
        <pt x="368" y="122" on="0"/>
        <pt x="391" y="132" on="0"/>
        <pt x="414" y="145" on="1"/>
        <pt x="438" y="158" on="1"/>
        <pt x="490" y="57" on="1"/>
        <pt x="408" y="-10" on="0"/>
        <pt x="164" y="-10" on="0"/>
        <pt x="35" y="137" on="0"/>
        <pt x="35" y="363" on="0"/>
        <pt x="164" y="510" on="0"/>
        <pt x="387" y="510" on="0"/>
        <pt x="503" y="366" on="0"/>
      </contour>
      <contour>
        <pt x="369" y="342" on="0"/>
        <pt x="322" y="390" on="0"/>
        <pt x="235" y="390" on="0"/>
        <pt x="178" y="341" on="0"/>
        <pt x="169" y="302" on="1"/>
        <pt x="373" y="302" on="1"/>
      </contour>
      <contour>
        <pt x="237" y="550" on="1"/>
        <pt x="107" y="697" on="1"/>
        <pt x="169" y="747" on="1"/>
        <pt x="278" y="657" on="1"/>
        <pt x="387" y="747" on="1"/>
        <pt x="449" y="697" on="1"/>
        <pt x="319" y="550" on="1"/>
      </contour>
    </TTGlyph>
    <TTGlyph name="ecircumflex" xMin="35" yMin="-10" xMax="503" yMax="747">
      <contour>
        <pt x="503" y="254" on="1"/>
        <pt x="503" y="201" on="1"/>
        <pt x="165" y="201" on="1"/>
        <pt x="168" y="161" on="0"/>
        <pt x="229" y="110" on="0"/>
        <pt x="311" y="110" on="0"/>
        <pt x="368" y="122" on="0"/>
        <pt x="391" y="132" on="0"/>
        <pt x="414" y="145" on="1"/>
        <pt x="438" y="158" on="1"/>
        <pt x="490" y="57" on="1"/>
        <pt x="408" y="-10" on="0"/>
        <pt x="164" y="-10" on="0"/>
        <pt x="35" y="137" on="0"/>
        <pt x="35" y="363" on="0"/>
        <pt x="164" y="510" on="0"/>
        <pt x="387" y="510" on="0"/>
        <pt x="503" y="366" on="0"/>
      </contour>
      <contour>
        <pt x="369" y="342" on="0"/>
        <pt x="322" y="390" on="0"/>
        <pt x="235" y="390" on="0"/>
        <pt x="178" y="341" on="0"/>
        <pt x="169" y="302" on="1"/>
        <pt x="373" y="302" on="1"/>
      </contour>
      <contour>
        <pt x="107" y="600" on="1"/>
        <pt x="237" y="747" on="1"/>
        <pt x="319" y="747" on="1"/>
        <pt x="449" y="600" on="1"/>
        <pt x="387" y="550" on="1"/>
        <pt x="278" y="640" on="1"/>
        <pt x="169" y="550" on="1"/>
      </contour>
    </TTGlyph>
    <TTGlyph name="edieresis" xMin="35" yMin="-10" xMax="503" yMax="734">
      <contour>
        <pt x="503" y="254" on="1"/>
        <pt x="503" y="201" on="1"/>
        <pt x="165" y="201" on="1"/>
        <pt x="168" y="161" on="0"/>
        <pt x="229" y="110" on="0"/>
        <pt x="311" y="110" on="0"/>
        <pt x="368" y="122" on="0"/>
        <pt x="391" y="132" on="0"/>
        <pt x="414" y="145" on="1"/>
        <pt x="438" y="158" on="1"/>
        <pt x="490" y="57" on="1"/>
        <pt x="408" y="-10" on="0"/>
        <pt x="164" y="-10" on="0"/>
        <pt x="35" y="137" on="0"/>
        <pt x="35" y="363" on="0"/>
        <pt x="164" y="510" on="0"/>
        <pt x="387" y="510" on="0"/>
        <pt x="503" y="366" on="0"/>
      </contour>
      <contour>
        <pt x="369" y="342" on="0"/>
        <pt x="322" y="390" on="0"/>
        <pt x="235" y="390" on="0"/>
        <pt x="178" y="341" on="0"/>
        <pt x="169" y="302" on="1"/>
        <pt x="373" y="302" on="1"/>
      </contour>
      <contour>
        <pt x="133" y="587" on="0"/>
        <pt x="96" y="628" on="0"/>
        <pt x="96" y="690" on="0"/>
        <pt x="137" y="734" on="0"/>
        <pt x="196" y="734" on="0"/>
        <pt x="233" y="692" on="0"/>
        <pt x="233" y="631" on="0"/>
        <pt x="192" y="587" on="0"/>
      </contour>
      <contour>
        <pt x="356" y="587" on="0"/>
        <pt x="319" y="628" on="0"/>
        <pt x="319" y="690" on="0"/>
        <pt x="360" y="734" on="0"/>
        <pt x="419" y="734" on="0"/>
        <pt x="456" y="692" on="0"/>
        <pt x="456" y="631" on="0"/>
        <pt x="415" y="587" on="0"/>
      </contour>
    </TTGlyph>
    <TTGlyph name="egrave" xMin="35" yMin="-10" xMax="503" yMax="793">
      <contour>
        <pt x="503" y="254" on="1"/>
        <pt x="503" y="201" on="1"/>
        <pt x="165" y="201" on="1"/>
        <pt x="168" y="161" on="0"/>
        <pt x="229" y="110" on="0"/>
        <pt x="311" y="110" on="0"/>
        <pt x="368" y="122" on="0"/>
        <pt x="391" y="132" on="0"/>
        <pt x="414" y="145" on="1"/>
        <pt x="438" y="158" on="1"/>
        <pt x="490" y="57" on="1"/>
        <pt x="408" y="-10" on="0"/>
        <pt x="164" y="-10" on="0"/>
        <pt x="35" y="137" on="0"/>
        <pt x="35" y="363" on="0"/>
        <pt x="164" y="510" on="0"/>
        <pt x="387" y="510" on="0"/>
        <pt x="503" y="366" on="0"/>
      </contour>
      <contour>
        <pt x="369" y="342" on="0"/>
        <pt x="322" y="390" on="0"/>
        <pt x="235" y="390" on="0"/>
        <pt x="178" y="341" on="0"/>
        <pt x="169" y="302" on="1"/>
        <pt x="373" y="302" on="1"/>
      </contour>
      <contour>
        <pt x="296" y="560" on="1"/>
        <pt x="168" y="718" on="1"/>
        <pt x="279" y="793" on="1"/>
        <pt x="380" y="610" on="1"/>
      </contour>
    </TTGlyph>
    <TTGlyph name="eight" xMin="40" yMin="-10" xMax="524" yMax="710">
      <contour>
        <pt x="524" y="188" on="1"/>
        <pt x="524" y="104" on="0"/>
        <pt x="400" y="-10" on="0"/>
        <pt x="164" y="-10" on="0"/>
        <pt x="40" y="104" on="0"/>
        <pt x="40" y="189" on="1"/>
        <pt x="40" y="293" on="0"/>
        <pt x="151" y="373" on="1"/>
        <pt x="71" y="427" on="0"/>
        <pt x="71" y="607" on="0"/>
        <pt x="195" y="710" on="0"/>
        <pt x="369" y="710" on="0"/>
        <pt x="493" y="607" on="0"/>
        <pt x="493" y="522" on="1"/>
        <pt x="493" y="472" on="0"/>
        <pt x="449" y="400" on="0"/>
        <pt x="405" y="358" on="1"/>
        <pt x="462" y="327" on="0"/>
        <pt x="524" y="247" on="0"/>
      </contour>
      <contour>
        <pt x="170" y="197" on="1"/>
        <pt x="170" y="110" on="0"/>
        <pt x="394" y="110" on="0"/>
        <pt x="394" y="189" on="1"/>
        <pt x="394" y="231" on="0"/>
        <pt x="322" y="284" on="0"/>
        <pt x="233" y="316" on="1"/>
        <pt x="170" y="272" on="0"/>
      </contour>
      <contour>
        <pt x="363" y="513" on="1"/>
        <pt x="363" y="590" on="0"/>
        <pt x="283" y="590" on="1"/>
        <pt x="245" y="590" on="0"/>
        <pt x="201" y="553" on="0"/>
        <pt x="201" y="491" on="0"/>
        <pt x="224" y="451" on="0"/>
        <pt x="247" y="438" on="1"/>
        <pt x="282" y="420" on="0"/>
        <pt x="325" y="408" on="1"/>
        <pt x="363" y="457" on="0"/>
      </contour>
    </TTGlyph>
    <TTGlyph name="emdash" xMin="0" yMin="231" xMax="674" yMax="348">
      <contour>
        <pt x="674" y="231" on="1"/>
        <pt x="0" y="231" on="1"/>
        <pt x="0" y="348" on="1"/>
        <pt x="674" y="348" on="1"/>
      </contour>
    </TTGlyph>
    <TTGlyph name="endash" xMin="30" yMin="231" xMax="613" yMax="348">
      <contour>
        <pt x="613" y="231" on="1"/>
        <pt x="30" y="231" on="1"/>
        <pt x="30" y="348" on="1"/>
        <pt x="613" y="348" on="1"/>
      </contour>
    </TTGlyph>
    <TTGlyph name="equal" xMin="60" yMin="125" xMax="490" yMax="443">
      <contour>
        <pt x="490" y="326" on="1"/>
        <pt x="60" y="326" on="1"/>
        <pt x="60" y="443" on="1"/>
        <pt x="490" y="443" on="1"/>
      </contour>
      <contour>
        <pt x="490" y="125" on="1"/>
        <pt x="60" y="125" on="1"/>
        <pt x="60" y="242" on="1"/>
        <pt x="490" y="242" on="1"/>
      </contour>
    </TTGlyph>
    <TTGlyph name="eth" xMin="42" yMin="15" xMax="509" yMax="749">
      <contour>
        <pt x="509" y="313" on="1"/>
        <pt x="509" y="177" on="0"/>
        <pt x="397" y="15" on="0"/>
        <pt x="162" y="15" on="0"/>
        <pt x="42" y="147" on="0"/>
        <pt x="42" y="354" on="0"/>
        <pt x="185" y="471" on="0"/>
        <pt x="310" y="471" on="1"/>
        <pt x="338" y="471" on="0"/>
        <pt x="365" y="467" on="1"/>
        <pt x="355" y="512" on="0"/>
        <pt x="315" y="552" on="1"/>
        <pt x="256" y="498" on="1"/>
        <pt x="187" y="570" on="1"/>
        <pt x="233" y="611" on="1"/>
        <pt x="195" y="630" on="0"/>
        <pt x="155" y="640" on="1"/>
        <pt x="186" y="743" on="1"/>
        <pt x="264" y="724" on="0"/>
        <pt x="321" y="691" on="1"/>
        <pt x="385" y="749" on="1"/>
        <pt x="453" y="677" on="1"/>
        <pt x="399" y="628" on="1"/>
        <pt x="509" y="513" on="0"/>
      </contour>
      <contour>
        <pt x="312" y="352" on="1"/>
        <pt x="173" y="352" on="0"/>
        <pt x="173" y="242" on="1"/>
        <pt x="173" y="197" on="0"/>
        <pt x="220" y="134" on="0"/>
        <pt x="272" y="134" on="1"/>
        <pt x="380" y="134" on="0"/>
        <pt x="380" y="288" on="1"/>
        <pt x="380" y="328" on="0"/>
        <pt x="375" y="345" on="1"/>
        <pt x="341" y="352" on="0"/>
      </contour>
    </TTGlyph>
    <TTGlyph name="exclam" xMin="108" yMin="-10" xMax="258" yMax="801">
      <contour>
        <pt x="128" y="201" on="1"/>
        <pt x="108" y="801" on="1"/>
        <pt x="258" y="801" on="1"/>
        <pt x="238" y="201" on="1"/>
      </contour>
      <contour>
        <pt x="152" y="-10" on="0"/>
        <pt x="109" y="33" on="0"/>
        <pt x="109" y="94" on="0"/>
        <pt x="152" y="137" on="0"/>
        <pt x="213" y="137" on="0"/>
        <pt x="256" y="94" on="0"/>
        <pt x="256" y="33" on="0"/>
        <pt x="213" y="-10" on="0"/>
      </contour>
    </TTGlyph>
    <TTGlyph name="exclamdown" xMin="108" yMin="-301" xMax="258" yMax="510">
      <contour>
        <pt x="128" y="299" on="1"/>
        <pt x="238" y="299" on="1"/>
        <pt x="258" y="-301" on="1"/>
        <pt x="108" y="-301" on="1"/>
      </contour>
      <contour>
        <pt x="152" y="363" on="0"/>
        <pt x="109" y="406" on="0"/>
        <pt x="109" y="467" on="0"/>
        <pt x="152" y="510" on="0"/>
        <pt x="213" y="510" on="0"/>
        <pt x="256" y="467" on="0"/>
        <pt x="256" y="406" on="0"/>
        <pt x="213" y="363" on="0"/>
      </contour>
    </TTGlyph>
    <TTGlyph name="f" xMin="20" yMin="0" xMax="415" yMax="758">
      <contour>
        <pt x="300" y="571" on="1"/>
        <pt x="300" y="638" on="1"/>
        <pt x="257" y="637" on="0"/>
        <pt x="228" y="593" on="0"/>
        <pt x="228" y="546" on="1"/>
        <pt x="228" y="500" on="1"/>
        <pt x="372" y="500" on="1"/>
        <pt x="372" y="390" on="1"/>
        <pt x="228" y="390" on="1"/>
        <pt x="228" y="110" on="1"/>
        <pt x="300" y="110" on="1"/>
        <pt x="300" y="0" on="1"/>
        <pt x="20" y="0" on="1"/>
        <pt x="20" y="110" on="1"/>
        <pt x="98" y="110" on="1"/>
        <pt x="98" y="390" on="1"/>
        <pt x="21" y="390" on="1"/>
        <pt x="21" y="490" on="1"/>
        <pt x="98" y="500" on="1"/>
        <pt x="98" y="546" on="1"/>
        <pt x="98" y="651" on="0"/>
        <pt x="189" y="758" on="0"/>
        <pt x="305" y="758" on="1"/>
        <pt x="348" y="758" on="0"/>
        <pt x="415" y="750" on="1"/>
        <pt x="415" y="571" on="1"/>
      </contour>
    </TTGlyph>
    <TTGlyph name="five" xMin="20" yMin="-179" xMax="507" yMax="560">
      <contour>
        <pt x="493" y="560" on="1"/>
        <pt x="493" y="366" on="1"/>
        <pt x="378" y="366" on="1"/>
        <pt x="378" y="440" on="1"/>
        <pt x="226" y="440" on="1"/>
        <pt x="201" y="287" on="1"/>
        <pt x="234" y="298" on="0"/>
        <pt x="272" y="298" on="1"/>
        <pt x="375" y="298" on="0"/>
        <pt x="507" y="184" on="0"/>
        <pt x="507" y="69" on="1"/>
        <pt x="507" y="-59" on="0"/>
        <pt x="424" y="-121" on="1"/>
        <pt x="348" y="-179" on="0"/>
        <pt x="105" y="-179" on="0"/>
        <pt x="20" y="-138" on="1"/>
        <pt x="68" y="-27" on="1"/>
        <pt x="97" y="-41" on="0"/>
        <pt x="191" y="-59" on="0"/>
        <pt x="228" y="-59" on="1"/>
        <pt x="292" y="-59" on="0"/>
        <pt x="378" y="3" on="0"/>
        <pt x="378" y="125" on="0"/>
        <pt x="307" y="178" on="0"/>
        <pt x="209" y="178" on="0"/>
        <pt x="161" y="150" on="1"/>
        <pt x="63" y="174" on="1"/>
        <pt x="123" y="560" on="1"/>
      </contour>
    </TTGlyph>
    <TTGlyph name="four" xMin="22" yMin="-169" xMax="572" yMax="560">
      <contour>
        <pt x="464" y="560" on="1"/>
        <pt x="464" y="141" on="1"/>
        <pt x="572" y="141" on="1"/>
        <pt x="572" y="21" on="1"/>
        <pt x="464" y="21" on="1"/>
        <pt x="464" y="-49" on="1"/>
        <pt x="541" y="-49" on="1"/>
        <pt x="541" y="-169" on="1"/>
        <pt x="257" y="-169" on="1"/>
        <pt x="257" y="-49" on="1"/>
        <pt x="334" y="-49" on="1"/>
        <pt x="334" y="21" on="1"/>
        <pt x="22" y="21" on="1"/>
        <pt x="22" y="141" on="1"/>
        <pt x="335" y="560" on="1"/>
      </contour>
      <contour>
        <pt x="335" y="141" on="1"/>
        <pt x="335" y="360" on="1"/>
        <pt x="172" y="141" on="1"/>
      </contour>
    </TTGlyph>
    <TTGlyph name="g" xMin="38" yMin="-224" xMax="538" yMax="510">
      <contour>
        <pt x="101" y="206" on="1"/>
        <pt x="50" y="253" on="0"/>
        <pt x="50" y="408" on="0"/>
        <pt x="164" y="510" on="0"/>
        <pt x="265" y="510" on="1"/>
        <pt x="329" y="510" on="0"/>
        <pt x="373" y="488" on="1"/>
        <pt x="538" y="488" on="1"/>
        <pt x="538" y="371" on="1"/>
        <pt x="472" y="371" on="1"/>
        <pt x="480" y="347" on="0"/>
        <pt x="480" y="330" on="1"/>
        <pt x="480" y="252" on="0"/>
        <pt x="366" y="150" on="0"/>
        <pt x="265" y="150" on="1"/>
        <pt x="228" y="150" on="0"/>
        <pt x="193" y="158" on="1"/>
        <pt x="185" y="157" on="0"/>
        <pt x="172" y="144" on="0"/>
        <pt x="172" y="126" on="0"/>
        <pt x="179" y="122" on="1"/>
        <pt x="190" y="114" on="0"/>
        <pt x="222" y="111" on="1"/>
        <pt x="370" y="90" on="1"/>
        <pt x="438" y="80" on="0"/>
        <pt x="518" y="1" on="0"/>
        <pt x="518" y="-134" on="0"/>
        <pt x="372" y="-224" on="0"/>
        <pt x="148" y="-224" on="0"/>
        <pt x="38" y="-142" on="0"/>
        <pt x="38" y="-79" on="1"/>
        <pt x="38" y="-47" on="0"/>
        <pt x="66" y="8" on="0"/>
        <pt x="96" y="20" on="1"/>
        <pt x="42" y="42" on="0"/>
        <pt x="42" y="175" on="0"/>
      </contour>
      <contour>
        <pt x="180" y="357" on="0"/>
        <pt x="180" y="303" on="0"/>
        <pt x="224" y="270" on="0"/>
        <pt x="306" y="270" on="0"/>
        <pt x="350" y="303" on="0"/>
        <pt x="350" y="357" on="0"/>
        <pt x="306" y="390" on="0"/>
        <pt x="224" y="390" on="0"/>
      </contour>
      <contour>
        <pt x="168" y="-73" on="1"/>
        <pt x="168" y="-104" on="0"/>
        <pt x="254" y="-104" on="1"/>
        <pt x="313" y="-104" on="0"/>
        <pt x="388" y="-82" on="0"/>
        <pt x="388" y="-60" on="1"/>
        <pt x="388" y="-34" on="0"/>
        <pt x="343" y="-29" on="1"/>
        <pt x="220" y="-15" on="1"/>
        <pt x="199" y="-19" on="0"/>
        <pt x="168" y="-53" on="0"/>
      </contour>
    </TTGlyph>
</ttFont>
